SplineFontDB: 3.0
FontName: TaameyAshkenaz-Bold
FullName: Taamey Ashkenaz Bold
FamilyName: Taamey Ashkenaz
Weight: Bold
Copyright: Copyright 2012 by Yoram Gnat (yoram.gnat@gmail.com)\nDistributed under the terms of GNU General Public License version 2(http://www.gnu.org/licenses/gpl.html).\n\nLatin glyphs and punctuation Copyright (URW)++,Copyright 1999 by (URW)++ Design & Development;\n \nHebrew Cantillation marks GSUB and GPOS OpenType positioning rules copyright (c) 2011-2012 by Yoram Gnat (yoram.gnat@gmail.com)\nDistributed under the terms of GNU General Public License version 2(http://www.gnu.org/licenses/gpl.html).\nInspired by the Hebrew OpenType Layout logic copyright (c) 2003 & 2007, Ralph Hancock & John Hudson published under the MIT License.\n\nAs a special exception, if you create a document which uses this font, and embed this font or unaltered portions of this font into the document, this font does not by itself cause the resulting document to be covered by the GNU General Public License. This exception does not however invalidate any other reasons why the document might be covered by the GNU General Public License. If you modify this font, you may extend this exception to your version of the font, but you are not obligated to do so. If you do not wish to do so, delete this exception statement from your version.
UComments: "The average width of a character (not including narrow chars) is 945.4" 
Version: 0.150yg
ItalicAngle: 0
UnderlinePosition: -170
UnderlineWidth: 70
Ascent: 1638
Descent: 410
LayerCount: 2
Layer: 0 0 "Back"  1
Layer: 1 0 "Fore"  0
NeedsXUIDChange: 1
XUID: [1021 594 1227166039 12540753]
FSType: 0
OS2Version: 0
OS2_WeightWidthSlopeOnly: 0
OS2_UseTypoMetrics: 1
CreationTime: 1244295734
ModificationTime: 1340218003
PfmFamily: 17
TTFWeight: 700
TTFWidth: 6
LineGap: 184
VLineGap: 0
Panose: 2 0 0 0 0 0 0 0 0 0
OS2TypoAscent: 0
OS2TypoAOffset: 1
OS2TypoDescent: 0
OS2TypoDOffset: 1
OS2TypoLinegap: 184
OS2WinAscent: 0
OS2WinAOffset: 1

StartChar: .null
Encoding: 0 -1 0
AltUni2: 000000.ffffffff.0 000000.ffffffff.0 000000.ffffffff.0 000000.ffffffff.0 000000.ffffffff.0 000000.ffffffff.0 000000.ffffffff.0 000000.ffffffff.0 000000.ffffffff.0 000000.ffffffff.0 000000.ffffffff.0 000000.ffffffff.0 000000.ffffffff.0 000000.ffffffff.0 000000.ffffffff.0 000000.ffffffff.0 000000.ffffffff.0 000000.ffffffff.0 000000.ffffffff.0 000000.ffffffff.0 000000.ffffffff.0 000000.ffffffff.0 000000.ffffffff.0 000000.ffffffff.0 000000.ffffffff.0 000000.ffffffff.0 000000.ffffffff.0 000000.ffffffff.0 000000.ffffffff.0 000000.ffffffff.0 000000.ffffffff.0 000000.ffffffff.0 000000.ffffffff.0 000000.ffffffff.0
Width: 1128
VWidth: 2273
GlyphClass: 2
Flags: W
HStem: -64 138<186 942> 124 192<427.175 608.825> 868 107<451.32 606.137> 1035 154<186 942>
VStem: 40 146<74 1035> 287 210<700.438 845.45> 410 216<143.439 297.284> 461 119<341 508.111> 619 191<656.8 855.113> 942 147<74 1035>
LayerCount: 2
Fore
SplineSet
40 -64 m 1xf840
 40 1189 l 1
 1089 1189 l 1
 1089 -64 l 1
 40 -64 l 1xf840
942 1035 m 1
 186 1035 l 1
 186 74 l 1
 942 74 l 1
 942 1035 l 1
518 316 m 0
 577 316 626 274 626 221 c 0
 626 168 578 124 518 124 c 0
 459 124 410 168 410 221 c 0xfa40
 410 274 459 316 518 316 c 0
497 773 m 0xfcc0
 497 721 450 679 397 679 c 0
 331 679 287 730 287 790 c 0xfcc0
 287 901 404 975 550 975 c 0
 702 975 810 890 810 762 c 0
 810 673 771 629 657 538 c 1
 595 491 580 472 580 381 c 2
 580 341 l 1
 461 341 l 1
 461 406 l 2xf9c0
 461 624 619 625 619 769 c 0
 619 818 599 868 519 868 c 0
 477 868 457 855 449 848 c 1
 455 843 497 812 497 773 c 0xfcc0
EndSplineSet
Validated: 1
Substitution2: "L1ccmpZWJbuginLinuxoverride subtable" zerojoin
EndChar

StartChar: exclam
Encoding: 2 33 2
Width: 562
VWidth: 1900
GlyphClass: 2
Flags: W
HStem: -28 355<169.473 401.872>
VStem: 108 356<34.0435 265.527 987.474 1346.91> 236 100<433 835.937>
LayerCount: 2
Fore
SplineSet
336 433 m 1xa0
 236 433 l 1xa0
 236 709 211 790 135 1041 c 0
 118 1098 108 1161 108 1210 c 0
 108 1330 175 1400 287 1400 c 0
 397 1400 464 1330 464 1210 c 0xc0
 464 1136 460 1119 399 910 c 0
 363 786 336 640 336 433 c 1xa0
285 327 m 0
 384 327 464 247 464 150 c 0
 464 51 384 -28 283 -28 c 0
 188 -28 108 53 108 150 c 0xc0
 108 247 188 327 285 327 c 0
EndSplineSet
Validated: 1
EndChar

StartChar: quotedbl
Encoding: 3 34 3
Width: 838
VWidth: 1900
GlyphClass: 2
Flags: W
HStem: 1044 351<105.199 227.317 489.199 611.317>
VStem: 230 184<988.857 1234.5> 614 184<988.857 1234.5>
LayerCount: 2
Fore
SplineSet
477 715 m 1
 426 793 l 1
 544 873 614 966 614 1036 c 0
 614 1044 610 1048 606 1048 c 0
 604 1048 603 1050 599 1048 c 0
 593 1046 589 1044 583 1044 c 0
 492 1044 424 1114 424 1207 c 0
 424 1313 503 1395 606 1395 c 0
 720 1395 798 1302 798 1167 c 0
 798 998 688 842 477 715 c 1
93 715 m 1
 42 793 l 1
 160 873 230 966 230 1036 c 0
 230 1044 226 1048 222 1048 c 0
 220 1048 219 1050 215 1048 c 0
 209 1046 205 1044 199 1044 c 0
 108 1044 40 1114 40 1207 c 0
 40 1313 119 1395 222 1395 c 0
 336 1395 414 1302 414 1167 c 0
 414 998 304 842 93 715 c 1
EndSplineSet
Validated: 1
EndChar

StartChar: numbersign
Encoding: 4 35 4
Width: 1090
VWidth: 1900
GlyphClass: 2
Flags: W
HStem: 0 21G<196 369.919 530 703.919> 418 158<78 256 450 591 785 963> 781 158<127 310 502 642 836 1013>
LayerCount: 2
Fore
SplineSet
256 418 m 1
 78 418 l 1
 78 576 l 1
 279 576 l 1
 310 781 l 1
 127 781 l 1
 127 939 l 1
 331 939 l 1
 388 1330 l 1
 559 1330 l 1
 502 939 l 1
 665 939 l 1
 720 1330 l 1
 891 1330 l 1
 836 939 l 1
 1013 939 l 1
 1013 781 l 1
 813 781 l 1
 785 576 l 1
 963 576 l 1
 963 418 l 1
 762 418 l 1
 701 0 l 1
 530 0 l 1
 591 418 l 1
 428 418 l 1
 367 0 l 1
 196 0 l 1
 256 418 l 1
481 781 m 1
 450 576 l 1
 612 576 l 1
 642 781 l 1
 481 781 l 1
EndSplineSet
Validated: 1
EndChar

StartChar: dollar
Encoding: 5 36 5
Width: 1090
VWidth: 1900
GlyphClass: 2
Flags: W
HStem: -27 105<322.328 496 606 716.422> 1226 102<379.564 496>
VStem: 48 237<149.837 343> 86 228<822.5 1100.64> 496 110<-260 -27 84 496 857 1226 1330 1522> 756 266<980.927 1183.93> 806 237<208.517 410.853>
LayerCount: 2
Fore
SplineSet
606 823 m 1xdc
 656 808 l 2
 930 724 1043 604 1043 401 c 0
 1043 163 885 9 606 -23 c 1
 606 -260 l 1
 496 -260 l 1
 496 -27 l 1
 452 -27 425 -21 391 -13 c 0
 171 31 48 139 48 291 c 0
 48 395 116 469 211 469 c 0
 298 469 365 411 365 331 c 0
 365 280 338 222 298 190 c 0
 288 180 285 177 285 169 c 0xea
 285 127 384 78 496 78 c 1
 496 530 l 1
 431 551 l 1
 190 625 86 733 86 912 c 0
 86 1074 173 1212 319 1282 c 0
 368 1307 405 1317 496 1328 c 1
 496 1522 l 1
 606 1522 l 1
 606 1330 l 1
 861 1330 1022 1208 1022 1058 c 0
 1022 959 954 887 857 887 c 0
 775 887 712 946 712 1022 c 0
 712 1056 724 1091 745 1125 c 0
 755 1138 756 1143 756 1153 c 0
 756 1191 703 1216 606 1226 c 1
 606 823 l 1xdc
496 857 m 1
 496 1226 l 1
 374 1205 314 1146 314 1043 c 0xd8
 314 954 365 896 471 864 c 2
 496 857 l 1
606 496 m 1
 606 84 l 1
 644 88 665 93 688 103 c 0
 760 131 806 203 806 283 c 0xca
 806 387 749 452 625 490 c 2
 606 496 l 1
EndSplineSet
Validated: 1
EndChar

StartChar: percent
Encoding: 6 37 6
Width: 1582
VWidth: 1900
GlyphClass: 2
Flags: W
HStem: 0 21G<353 461.472> 27 89<1099.59 1294.15> 598 90<244.726 442.686> 674 99<1284.73 1453.01> 1129 89<698.901 1012.33>
VStem: 32 198<702.872 946.601> 627 76<928.393 1145.08> 885 196<132.846 372.21> 1484 76<360.948 638.427>
LayerCount: 2
Fore
SplineSet
1237 1372 m 1xef80
 450 0 l 1
 353 0 l 1
 1016 1163 l 1
 936 1136 891 1129 823 1129 c 0
 775 1129 746 1133 697 1146 c 1
 701 1119 703 1104 703 1089 c 0
 703 979 650 842 568 745 c 0
 484 644 393 598 285 598 c 0
 139 598 32 701 32 842 c 0
 32 973 120 1145 234 1244 c 0
 310 1309 397 1345 479 1345 c 0
 557 1345 608 1319 657 1254 c 1
 708 1229 762 1218 832 1218 c 0
 973 1218 1066 1262 1150 1372 c 1
 1237 1372 l 1xef80
505 1250 m 1
 435 1225 412 1203 344 1081 c 0
 260 935 230 856 230 790 c 0
 230 729 270 688 327 688 c 0
 471 688 627 904 627 1104 c 0
 627 1131 624 1151 616 1178 c 1
 567 1195 537 1214 505 1250 c 1
1328 773 m 0xdf80
 1463 773 1560 675 1560 538 c 0
 1560 424 1503 279 1416 169 c 0
 1344 80 1243 27 1142 27 c 0
 994 27 885 127 885 266 c 0
 885 374 936 505 1016 606 c 1
 1105 714 1214 773 1328 773 c 0xdf80
1376 674 m 0
 1323 674 1275 635 1218 542 c 0
 1121 384 1081 287 1081 217 c 0
 1081 160 1125 116 1178 116 c 0
 1324 116 1484 332 1484 530 c 0
 1484 610 1437 674 1376 674 c 0
EndSplineSet
Validated: 1
EndChar

StartChar: ampersand
Encoding: 7 38 7
Width: 1618
VWidth: 1900
GlyphClass: 2
Flags: W
HStem: -42 169<439 741.98> -30 207<1153 1386.97> 673 102<996 1151.47 1354.94 1514> 1302 98<685.322 879.342>
VStem: 74 323<325.987 513.696> 384 266<994.097 1214.64> 931 209<984.834 1252.2> 1467 95<225.366 318.169>
LayerCount: 2
Fore
SplineSet
1514 775 m 1xb7
 1514 673 l 1
 1379 673 1336 638 1262 494 c 1
 1211 401 1195 374 1142 302 c 1
 1207 216 1268 177 1336 177 c 0
 1401 177 1444 232 1467 336 c 1
 1562 315 l 1
 1554 245 1537 196 1505 141 c 0
 1433 21 1345 -30 1212 -30 c 0x77
 1094 -30 996 13 912 97 c 1
 792 11 662 -42 510 -42 c 0
 368 -42 251 11 177 89 c 0
 111 159 74 247 74 340 c 0xbb
 74 482 154 607 300 694 c 0
 348 722 386 741 458 773 c 1
 403 887 384 956 384 1047 c 0
 384 1140 428 1239 496 1302 c 0
 570 1368 670 1400 794 1400 c 0
 1001 1400 1140 1291 1140 1129 c 0
 1140 1047 1100 969 1032 914 c 0
 971 866 924 840 808 792 c 1
 905 627 1028 440 1074 391 c 1
 1139 469 1165 527 1165 580 c 0
 1165 645 1116 673 996 673 c 1
 996 775 l 1
 1514 775 l 1xb7
504 678 m 1
 434 634 397 572 397 490 c 0
 397 439 413 382 441 325 c 0
 506 194 597 127 711 127 c 0xbb
 759 127 790 137 836 169 c 1
 695 340 586 509 504 678 c 1
754 882 m 1
 771 890 775 891 785 895 c 0
 880 943 931 1022 931 1119 c 0
 931 1223 869 1302 783 1302 c 0
 707 1302 650 1239 650 1159 c 0x37
 650 1087 678 1013 754 882 c 1
EndSplineSet
Validated: 1
EndChar

StartChar: quotesingle
Encoding: 8 39 8
Width: 457
VWidth: 1900
GlyphClass: 2
Flags: W
HStem: 720 680
VStem: 232 184<993.857 1239.5>
LayerCount: 2
Fore
SplineSet
95 720 m 1
 44 798 l 1
 162 878 232 971 232 1041 c 0
 232 1049 228 1053 224 1053 c 0
 222 1053 221 1055 217 1053 c 0
 211 1051 207 1049 201 1049 c 0
 110 1049 42 1119 42 1212 c 0
 42 1318 121 1400 224 1400 c 0
 338 1400 416 1307 416 1172 c 0
 416 1003 306 847 95 720 c 1
EndSplineSet
Validated: 1
EndChar

StartChar: parenleft
Encoding: 9 40 9
Width: 739
VWidth: 1900
GlyphClass: 2
Flags: W
VStem: 137 237<312.075 867.231>
LayerCount: 2
Fore
SplineSet
642 -129 m 1
 642 -224 l 1
 503 -152 418 -82 329 32 c 0
 204 192 137 388 137 589 c 0
 137 806 215 1013 357 1180 c 0
 443 1279 515 1334 642 1400 c 1
 642 1305 l 1
 539 1233 492 1174 448 1060 c 0
 399 936 374 773 374 587 c 0
 374 382 407 205 464 78 c 1
 508 -13 549 -64 642 -129 c 1
EndSplineSet
Validated: 1
EndChar

StartChar: parenright
Encoding: 10 41 10
Width: 739
VWidth: 1900
GlyphClass: 2
Flags: W
VStem: 363 237<308.769 863.925>
LayerCount: 2
Fore
SplineSet
95 1305 m 1
 95 1400 l 1
 234 1328 319 1258 408 1144 c 0
 533 984 600 788 600 587 c 0
 600 370 522 163 380 -4 c 0
 294 -103 222 -158 95 -224 c 1
 95 -129 l 1
 198 -57 245 2 289 116 c 0
 338 240 363 403 363 589 c 0
 363 794 331 971 274 1098 c 1
 230 1189 188 1240 95 1305 c 1
EndSplineSet
Validated: 1
EndChar

StartChar: asterisk
Encoding: 11 42 11
Width: 950
VWidth: 1900
GlyphClass: 2
Flags: W
HStem: 478 195<167.204 283.038 675.351 822> 789 194<126.291 281.887 669.323 822.929>
VStem: 384 182<326.885 537.133 922.672 1133.39> 452 50<537.133 688 772 922.672>
LayerCount: 2
Fore
SplineSet
452 688 m 1xd0
 422 670 l 2
 368 637 350 620 300 544 c 0
 272 500 236 478 194 478 c 0
 144 478 104 517 104 565 c 0
 104 605 128 641 166 658 c 0
 192 668 198 673 272 673 c 0
 320 673 356 688 396 711 c 2
 426 730 l 1
 396 747 l 2
 338 779 322 789 226 789 c 0
 152 789 104 837 104 896 c 0
 104 944 144 983 196 983 c 0
 220 983 250 972 272 953 c 0
 286 938 286 937 324 880 c 0
 352 840 378 814 422 789 c 1
 452 772 l 1
 452 808 l 2
 452 813 452 817 452 821 c 0xd0
 452 872 445 889 402 977 c 0
 390 1002 384 1027 384 1048 c 0xe0
 384 1103 426 1148 474 1148 c 0
 526 1148 568 1103 568 1046 c 0
 568 1019 566 1012 530 936 c 0
 508 895 501 861 501 818 c 0
 501 814 501 811 502 808 c 2
 502 772 l 1
 530 789 l 2
 586 824 598 836 652 916 c 0
 682 962 716 983 758 983 c 0
 806 983 846 945 846 896 c 0
 846 856 822 821 784 802 c 0
 762 792 756 793 680 785 c 1
 630 785 598 772 554 747 c 2
 524 730 l 1
 554 713 l 2
 614 681 630 671 724 671 c 0
 798 671 846 622 846 563 c 0
 846 515 810 478 762 478 c 0
 710 478 690 496 626 582 c 0
 600 620 568 645 530 670 c 2
 502 688 l 1
 502 652 l 2xd0
 502 591 502 576 546 483 c 0
 560 458 566 434 566 415 c 0
 566 358 526 312 474 312 c 0
 426 312 384 358 384 413 c 0xe0
 384 441 388 451 422 525 c 1
 444 569 452 603 452 652 c 2
 452 688 l 1xd0
EndSplineSet
Validated: 1
EndChar

StartChar: plus
Encoding: 12 43 12
Width: 1151
VWidth: 1900
GlyphClass: 2
Flags: W
HStem: 616 219<97 467 686 1054>
VStem: 467 219<246 616 835 1206>
LayerCount: 2
Fore
SplineSet
467 616 m 1
 97 616 l 1
 97 835 l 1
 467 835 l 1
 467 1206 l 1
 686 1206 l 1
 686 835 l 1
 1054 835 l 1
 1054 616 l 1
 686 616 l 1
 686 246 l 1
 467 246 l 1
 467 616 l 1
EndSplineSet
Validated: 1
EndChar

StartChar: comma
Encoding: 13 44 13
Width: 528
VWidth: 1900
GlyphClass: 2
Flags: W
HStem: -19 348<139.199 261.317>
VStem: 264 184<-78.6154 167.5>
LayerCount: 2
Fore
SplineSet
127 -353 m 1
 76 -276 l 1
 194 -194 264 -102 264 -30 c 0
 264 -22 262 -19 256 -19 c 2
 249 -19 l 1
 245 -21 242 -19 234 -19 c 0
 143 -19 74 49 74 142 c 0
 74 246 153 329 256 329 c 0
 370 329 448 236 448 99 c 0
 448 -70 338 -226 127 -353 c 1
EndSplineSet
Validated: 1
EndChar

StartChar: hyphen
Encoding: 14 45 14
Width: 632
VWidth: 1900
GlyphClass: 2
Flags: W
HStem: 425 247<80 552>
VStem: 80 472<425 672>
LayerCount: 2
Fore
SplineSet
80 672 m 1
 552 672 l 1
 552 425 l 1
 80 425 l 1
 80 672 l 1
EndSplineSet
Validated: 1
EndChar

StartChar: period
Encoding: 15 46 15
Width: 528
VWidth: 1900
GlyphClass: 2
Flags: W
HStem: -28 357<147.23 380.872>
VStem: 86 357<34.0435 267.2>
LayerCount: 2
Fore
SplineSet
264 329 m 0
 363 329 443 249 443 150 c 0
 443 51 363 -28 262 -28 c 0
 165 -28 86 53 86 150 c 0
 86 249 165 329 264 329 c 0
EndSplineSet
Validated: 1
EndChar

StartChar: slash
Encoding: 16 47 16
Width: 528
VWidth: 1900
GlyphClass: 2
Flags: W
VStem: -44 618
LayerCount: 2
Fore
SplineSet
433 1400 m 1
 574 1400 l 1
 97 -28 l 1
 -44 -28 l 1
 433 1400 l 1
EndSplineSet
Validated: 1
EndChar

StartChar: zero
Encoding: 17 48 17
Width: 1090
VWidth: 1900
GlyphClass: 2
Flags: W
HStem: -27 99<450.673 636.314> 1246 99<450.071 638.108>
VStem: 51 327<365.302 949.539> 707 330<362.07 959.709>
LayerCount: 2
Fore
SplineSet
545 1345 m 0
 672 1345 785 1288 874 1180 c 1
 986 1039 1037 874 1037 650 c 0
 1037 264 824 -27 545 -27 c 0
 260 -27 51 264 51 659 c 0
 51 1054 260 1345 545 1345 c 0
543 1246 m 0
 477 1246 431 1206 410 1130 c 0
 393 1065 378 853 378 659 c 0
 378 435 395 230 418 167 c 0
 441 106 484 72 543 72 c 0
 608 72 653 112 674 188 c 0
 691 253 707 462 707 656 c 0
 707 884 692 1088 667 1151 c 1
 646 1212 600 1246 543 1246 c 0
EndSplineSet
Validated: 1
EndChar

StartChar: one
Encoding: 18 49 18
Width: 1090
VWidth: 1900
GlyphClass: 2
Flags: W
HStem: 0 103<175 402.008 708.943 933> 1108 106<158 392.845>
VStem: 407 298<112.912 1100.08>
LayerCount: 2
Fore
SplineSet
705 1345 m 1
 705 274 l 2
 705 154 705 146 718 131 c 0
 733 110 775 103 872 103 c 2
 933 103 l 1
 933 0 l 1
 175 0 l 1
 175 103 l 1
 236 103 l 2
 337 103 376 110 393 131 c 0
 406 146 407 156 407 274 c 2
 407 948 l 2
 407 1106 407 1108 238 1108 c 1
 158 1108 l 1
 158 1214 l 1
 382 1214 520 1256 638 1345 c 1
 705 1345 l 1
EndSplineSet
Validated: 1
EndChar

StartChar: two
Encoding: 19 50 19
Width: 1090
VWidth: 1900
GlyphClass: 2
Flags: W
HStem: 0 285<332 841.12> 1237 108<332.622 610.345>
VStem: 78 196<894.5 1129.4> 680 323<816.365 1144.06> 906 103<440.147 505>
LayerCount: 2
Fore
SplineSet
906 505 m 1xe8
 1009 505 l 1
 1009 -8 l 1xe8
 952 -2 881 0 849 0 c 2
 135 0 l 2
 108 0 85 -2 36 -8 c 1
 36 82 l 1
 131 219 205 306 418 530 c 0
 619 745 680 857 680 1015 c 0
 680 1156 604 1237 471 1237 c 0
 376 1237 274 1173 274 1112 c 0
 274 1097 283 1085 304 1075 c 0
 391 1033 428 986 428 904 c 0
 428 805 365 743 266 743 c 0
 152 743 78 828 78 961 c 0
 78 1178 278 1345 536 1345 c 0
 804 1345 1003 1191 1003 988 c 0xf0
 1003 899 966 798 901 712 c 0
 846 642 786 599 522 428 c 0
 448 379 398 342 332 285 c 1
 699 285 l 1
 819 285 823 287 842 300 c 0
 857 310 868 334 885 410 c 2
 906 505 l 1xe8
EndSplineSet
Validated: 1
EndChar

StartChar: three
Encoding: 20 51 20
Width: 1090
VWidth: 1900
GlyphClass: 2
Flags: W
HStem: -27 99<316.19 584.885> 631 135<310.438 499.609> 642 103<375.07 604.065> 1246 99<346.491 598.071>
VStem: 46 247<148.206 349> 93 238<982.5 1192> 665 308<854.181 1168.4> 676 331<186.371 542.386>
LayerCount: 2
Fore
SplineSet
665 699 m 1xb6
 766 686 813 672 866 642 c 0
 953 591 1007 487 1007 367 c 0
 1007 245 950 129 863 68 c 0
 776 7 644 -27 505 -27 c 0
 231 -27 46 104 46 296 c 0
 46 402 116 477 217 477 c 0
 312 477 382 408 382 319 c 0
 382 266 369 241 312 186 c 0
 299 175 293 163 293 152 c 0
 293 112 376 72 456 72 c 0
 597 72 676 182 676 372 c 0
 676 551 618 642 500 642 c 0xb9
 492 642 462 637 405 631 c 0
 394 629 382 631 374 631 c 0
 334 631 306 661 306 703 c 0
 306 743 330 766 374 766 c 0xd9
 397 766 408 764 452 754 c 0
 482 748 504 745 519 745 c 0
 608 745 665 848 665 1011 c 0
 665 1159 595 1246 475 1246 c 0
 403 1246 331 1210 331 1174 c 0
 331 1166 334 1161 344 1151 c 0
 399 1100 420 1060 420 1009 c 0
 420 920 357 859 266 859 c 0
 167 859 93 933 93 1032 c 0
 93 1104 133 1184 194 1239 c 0
 274 1309 387 1345 524 1345 c 0
 794 1345 973 1210 973 1009 c 0
 973 863 883 760 716 712 c 0
 703 708 688 705 665 699 c 1xb6
EndSplineSet
Validated: 1
EndChar

StartChar: four
Encoding: 21 52 21
Width: 1090
VWidth: 1900
GlyphClass: 2
Flags: W
HStem: 0 103<370 545.057 861.724 1018> 344 127<175 549 847 1037>
VStem: 549 298<129.791 344 471 946>
LayerCount: 2
Fore
SplineSet
847 471 m 1
 1037 471 l 1
 1037 344 l 1
 847 344 l 1
 847 274 l 2
 847 154 848 146 861 129 c 0
 876 112 920 103 998 103 c 2
 1018 103 l 1
 1018 0 l 1
 370 0 l 1
 370 103 l 1
 391 103 l 2
 477 103 521 110 536 129 c 0
 549 146 549 154 549 274 c 2
 549 344 l 1
 36 344 l 1
 36 484 l 1
 728 1345 l 1
 859 1345 l 1
 859 1204 847 1098 847 1056 c 2
 847 471 l 1
549 471 m 1
 549 946 l 1
 175 471 l 1
 549 471 l 1
EndSplineSet
Validated: 1
EndChar

StartChar: five
Encoding: 22 53 22
Width: 1090
VWidth: 1900
GlyphClass: 2
Flags: W
HStem: -27 109<301.312 576.598> 745 129<333.997 593.79> 1018 295<296.969 762.817>
VStem: 59 218<135.57 346> 108 148<573.49 672.484> 678 338<243.3 635.188>
LayerCount: 2
Fore
SplineSet
298 1047 m 1xec
 270 802 l 1
 395 859 454 874 543 874 c 0
 817 874 1016 692 1016 445 c 0
 1016 166 804 -27 492 -27 c 0
 230 -27 59 97 59 287 c 0
 59 405 131 481 241 481 c 0
 338 481 403 418 403 325 c 0
 403 260 374 224 300 188 c 0
 283 178 277 173 277 162 c 0xf4
 277 122 359 82 445 82 c 0
 597 82 678 205 678 435 c 0
 678 640 606 745 464 745 c 0
 386 745 310 721 253 673 c 1
 255 662 256 650 256 642 c 0
 256 600 221 566 179 566 c 0
 139 566 108 596 108 636 c 0
 108 666 116 680 158 722 c 1
 158 1051 201 1193 201 1345 c 1
 319 1320 414 1313 572 1313 c 0
 720 1313 853 1325 916 1340 c 0
 927 1344 938 1345 946 1345 c 0
 956 1345 961 1335 961 1324 c 0
 961 1282 933 1213 897 1165 c 0
 825 1072 696 1018 538 1018 c 0
 464 1018 387 1028 298 1047 c 1xec
EndSplineSet
Validated: 1
EndChar

StartChar: six
Encoding: 23 54 23
Width: 1090
VWidth: 1900
GlyphClass: 2
Flags: W
HStem: -27 90<462.769 640.298> 669 142<477.809 773> 1246 99<521.871 712.578>
VStem: 55 340<297.015 901.852> 712 331<230.181 607.399> 716 291<1027 1219.83>
LayerCount: 2
Fore
SplineSet
384 686 m 1xf4
 464 777 539 811 661 811 c 0
 885 811 1043 652 1043 424 c 0xf8
 1043 164 839 -27 560 -27 c 0
 404 -27 277 32 184 146 c 0
 95 256 55 391 55 581 c 0
 55 807 106 983 218 1129 c 0
 328 1275 470 1345 650 1345 c 0
 868 1345 1007 1242 1007 1079 c 0
 1007 975 938 908 830 908 c 0
 731 908 663 968 663 1054 c 0
 663 1092 676 1135 701 1167 c 0
 714 1184 716 1192 716 1203 c 0
 716 1230 683 1246 635 1246 c 0
 506 1246 393 1100 393 830 c 0
 393 794 384 709 384 686 c 1xf4
562 669 m 0
 490 669 431 622 410 540 c 0
 400 496 395 435 395 369 c 0
 395 173 454 63 557 63 c 0
 658 63 712 183 712 403 c 0
 712 574 661 669 562 669 c 0
EndSplineSet
Validated: 1
EndChar

StartChar: seven
Encoding: 24 55 24
Width: 1090
VWidth: 1900
GlyphClass: 2
Flags: W
HStem: 1043 276<254.073 822.753>
VStem: 86 104<775.484 830.135> 355 363<34.0762 334.523>
LayerCount: 2
Fore
SplineSet
1037 1345 m 1
 1037 1265 l 1
 754 663 718 534 718 184 c 0
 718 47 650 -27 530 -27 c 0
 424 -27 355 48 355 160 c 0
 355 238 386 330 456 467 c 0
 466 486 545 613 697 849 c 1
 826 1043 l 1
 666 1043 584 1036 576 1036 c 0
 519 1036 422 1043 359 1043 c 0
 346 1043 335 1043 325 1043 c 0
 259 1043 245 1018 209 851 c 2
 190 766 l 1
 86 777 l 1
 150 1345 l 1
 338 1324 429 1319 604 1319 c 0
 800 1319 917 1326 1037 1345 c 1
EndSplineSet
Validated: 1
EndChar

StartChar: eight
Encoding: 25 56 25
Width: 1090
VWidth: 1900
GlyphClass: 2
Flags: W
HStem: -27 99<393.092 699.341> 1246 99<410.615 679.21>
VStem: 51 247<162.581 465.222> 93 247<865 1126.43> 752 238<905.502 1171.93> 802 235<217.8 415.771>
LayerCount: 2
Fore
SplineSet
766 781 m 1xd8
 950 707 1037 587 1037 408 c 0
 1037 148 830 -27 524 -27 c 0
 235 -27 51 105 51 310 c 0xe4
 51 420 103 508 198 557 c 0
 230 574 255 581 314 600 c 1
 164 680 93 790 93 940 c 0
 93 1185 284 1345 578 1345 c 0
 823 1345 990 1226 990 1051 c 0
 990 964 948 885 874 834 c 0
 847 815 819 802 766 781 c 1xd8
669 828 m 1
 673 832 l 1
 722 876 752 952 752 1030 c 0
 752 1163 672 1246 545 1246 c 0
 427 1246 340 1168 340 1064 c 0xd8
 340 980 398 902 484 870 c 0
 520 857 581 840 659 821 c 1
 663 823 663 822 665 826 c 1
 669 828 l 1
416 549 m 1
 327 475 298 418 298 315 c 0
 298 163 391 72 545 72 c 0
 693 72 802 165 802 294 c 0xe4
 802 391 756 442 636 484 c 0
 588 499 496 526 416 549 c 1
EndSplineSet
Validated: 1
EndChar

StartChar: nine
Encoding: 26 57 26
Width: 1090
VWidth: 1900
GlyphClass: 2
Flags: W
HStem: -27 99<378.314 571.642> 500 142<315.5 605.266> 1246 99<443.345 626.059>
VStem: 48 328<705.238 1091.26> 86 290<88.0309 272> 694 342<418.438 1008.11>
LayerCount: 2
Fore
SplineSet
701 625 m 1xec
 621 536 542 500 424 500 c 0
 207 500 48 665 48 889 c 0xf4
 48 1153 246 1345 522 1345 c 0
 682 1345 821 1275 918 1146 c 0
 998 1038 1036 906 1036 733 c 0
 1036 526 986 344 891 203 c 1
 792 53 635 -27 439 -27 c 0
 224 -27 86 69 86 217 c 0
 86 327 162 407 266 407 c 0
 361 407 426 344 426 253 c 0
 426 211 422 199 388 144 c 0
 380 133 376 121 376 110 c 0
 376 87 399 72 441 72 c 0
 593 72 697 205 697 477 c 0
 697 523 701 541 701 625 c 1xec
538 1246 m 0
 432 1246 376 1140 376 933 c 0
 376 838 387 770 408 724 c 0
 431 676 483 642 536 642 c 0
 633 642 694 749 694 916 c 0
 694 1003 677 1106 652 1161 c 0
 629 1216 587 1246 538 1246 c 0
EndSplineSet
Validated: 1
EndChar

StartChar: colon
Encoding: 27 58 27
Width: 528
VWidth: 1900
GlyphClass: 2
Flags: W
HStem: -28 355<169.473 401.872> 559 355<169.473 401.872>
VStem: 108 356<34.0435 265.527 621.043 852.527>
LayerCount: 2
Fore
SplineSet
285 327 m 0
 384 327 464 247 464 150 c 0
 464 51 384 -28 283 -28 c 0
 188 -28 108 53 108 150 c 0
 108 247 188 327 285 327 c 0
285 914 m 0
 384 914 464 834 464 737 c 0
 464 638 384 559 283 559 c 0
 188 559 108 640 108 737 c 0
 108 834 188 914 285 914 c 0
EndSplineSet
Validated: 1
EndChar

StartChar: semicolon
Encoding: 28 59 28
Width: 528
VWidth: 1900
GlyphClass: 2
Flags: W
HStem: -19 350<154.793 277.317> 559 355<160.473 392.443>
VStem: 89 375<30.4651 255.573 634.527 839.135> 279 185<-77.6505 169.5>
LayerCount: 2
Fore
SplineSet
142 -352 m 1xe0
 89 -276 l 1xe0
 207 -192 279 -102 279 -30 c 0xd0
 279 -22 278 -19 272 -19 c 2
 264 -19 l 1
 260 -21 257 -19 249 -19 c 0
 158 -19 89 49 89 142 c 0
 89 248 169 331 272 331 c 0
 386 331 464 238 464 101 c 0
 464 -68 353 -225 142 -352 c 1xe0
276 914 m 0
 375 914 454 834 454 737 c 0
 454 638 375 559 274 559 c 0
 179 559 99 640 99 737 c 0
 99 834 179 914 276 914 c 0
EndSplineSet
Validated: 1
EndChar

StartChar: less
Encoding: 29 60 29
Width: 1151
VWidth: 1900
GlyphClass: 2
Flags: W
LayerCount: 2
Fore
SplineSet
1060 768 m 1
 437 481 l 1
 1060 190 l 1
 1060 -48 l 1
 93 393 l 1
 93 564 l 1
 1060 1005 l 1
 1060 768 l 1
EndSplineSet
Validated: 1
EndChar

StartChar: equal
Encoding: 30 61 30
Width: 1151
VWidth: 1900
GlyphClass: 2
Flags: W
HStem: 240 218<97 1054> 631 219<97 1054>
LayerCount: 2
Fore
SplineSet
97 240 m 1
 97 458 l 1
 1054 458 l 1
 1054 240 l 1
 97 240 l 1
97 631 m 1
 97 850 l 1
 1054 850 l 1
 1054 631 l 1
 97 631 l 1
EndSplineSet
Validated: 1
EndChar

StartChar: greater
Encoding: 31 62 31
Width: 1151
VWidth: 1900
GlyphClass: 2
Flags: W
LayerCount: 2
Fore
SplineSet
91 768 m 1
 91 1005 l 1
 1058 564 l 1
 1058 393 l 1
 91 -48 l 1
 91 190 l 1
 714 481 l 1
 91 768 l 1
EndSplineSet
Validated: 1
EndChar

StartChar: question
Encoding: 32 63 32
Width: 950
VWidth: 1900
GlyphClass: 2
Flags: W
HStem: -28 357<317.8 551.872> 1292 108<294.829 511.022>
VStem: 44 247<1052.5 1244.63> 256 358<34.0435 267.2> 374 109<433 603.491> 570 334<897.739 1225.87>
LayerCount: 2
Fore
SplineSet
483 433 m 1xec
 380 433 l 1
 376 463 374 494 374 513 c 0
 374 599 390 637 494 823 c 0
 542 909 570 1005 570 1083 c 0
 570 1216 505 1292 391 1292 c 0
 332 1292 291 1271 291 1244 c 0
 291 1231 293 1230 327 1203 c 0
 367 1173 388 1130 388 1079 c 0
 388 990 321 927 224 927 c 0
 120 927 44 1001 44 1104 c 0
 44 1279 220 1400 471 1400 c 0
 737 1400 904 1269 904 1062 c 0
 904 971 866 883 800 826 c 0
 787 815 769 802 623 690 c 0
 505 599 483 566 483 433 c 1xec
435 329 m 0
 534 329 614 249 614 150 c 0
 614 51 534 -28 433 -28 c 0
 336 -28 256 53 256 150 c 0xd0
 256 249 336 329 435 329 c 0
EndSplineSet
Validated: 1
EndChar

StartChar: at
Encoding: 33 64 33
Width: 1419
VWidth: 1900
GlyphClass: 2
Flags: W
HStem: -28 115<527.58 962.146> 276 98<514.51 675.772> 281 116<868.5 1085.46> 990 99<678.062 848.727> 1284 116<512.728 956.018>
VStem: 46 121<455.927 931.151> 304 196<396.951 711.636> 1250 122<596.638 1001.09>
LayerCount: 2
Fore
SplineSet
1224 361 m 1xbf
 1355 361 l 1
 1327 291 1294 247 1233 186 c 0
 1089 40 927 -28 735 -28 c 0
 351 -28 46 289 46 688 c 0
 46 1083 353 1400 739 1400 c 0
 1091 1400 1372 1138 1372 809 c 0
 1372 533 1151 281 912 281 c 0xbf
 825 281 766 323 766 388 c 0
 766 394 768 405 770 418 c 1
 719 321 650 276 555 276 c 0xdf
 413 276 304 399 304 559 c 0
 304 679 353 819 433 927 c 0
 509 1030 620 1089 732 1089 c 0
 816 1089 860 1060 908 990 c 1
 931 1056 l 1
 1129 1056 l 1
 954 509 l 2
 946 481 940 456 940 439 c 0
 940 412 956 397 986 397 c 0
 1022 397 1066 418 1108 454 c 0
 1201 532 1250 652 1250 796 c 0
 1250 1079 1035 1284 737 1284 c 0
 410 1284 167 1031 167 695 c 0
 167 351 416 87 739 87 c 0
 942 87 1116 184 1224 361 c 1xbf
771 990 m 0
 712 990 659 944 608 851 c 0
 542 733 500 592 500 486 c 0
 500 414 532 374 587 374 c 0xdf
 648 374 703 429 747 532 c 0
 798 652 861 855 861 904 c 0
 861 950 820 990 771 990 c 0
EndSplineSet
Validated: 1
EndChar

StartChar: bracketleft
Encoding: 60 91 34
Width: 739
VWidth: 1900
GlyphClass: 2
Flags: W
HStem: -205 95<393 644> 1277 95<393 644>
VStem: 160 233<-110 1277>
LayerCount: 2
Fore
SplineSet
644 1372 m 1
 644 1277 l 1
 393 1277 l 1
 393 -110 l 1
 644 -110 l 1
 644 -205 l 1
 160 -205 l 1
 160 1372 l 1
 644 1372 l 1
EndSplineSet
Validated: 1
EndChar

StartChar: backslash
Encoding: 61 92 35
Width: 1151
VWidth: 1900
GlyphClass: 2
Flags: W
HStem: 0 21G<902.3 1054>
LayerCount: 2
Fore
SplineSet
236 1400 m 1
 1054 0 l 1
 914 0 l 1
 95 1400 l 1
 236 1400 l 1
EndSplineSet
Validated: 1
EndChar

StartChar: bracketright
Encoding: 62 93 36
Width: 739
VWidth: 1900
GlyphClass: 2
Flags: W
HStem: -205 95<59 310> 1277 95<59 310>
VStem: 310 233<-110 1277>
LayerCount: 2
Fore
SplineSet
59 -205 m 1
 59 -110 l 1
 310 -110 l 1
 310 1277 l 1
 59 1277 l 1
 59 1372 l 1
 543 1372 l 1
 543 -205 l 1
 59 -205 l 1
EndSplineSet
Validated: 1
EndChar

StartChar: asciicircum
Encoding: 63 94 37
Width: 1151
VWidth: 1900
GlyphClass: 2
Flags: W
LayerCount: 2
Fore
SplineSet
1053 604 m 1
 826 604 l 1
 578 1079 l 1
 325 604 l 1
 99 604 l 1
 496 1372 l 1
 657 1372 l 1
 1053 604 l 1
EndSplineSet
Validated: 1
EndChar

StartChar: dotnosp
Encoding: 96 775 38
Width: 0
VWidth: 2248
GlyphClass: 4
Flags: W
HStem: 1382 136<-63.4656 63.4656>
VStem: -68 136<1386.3 1513.81>
AnchorPoint: "m2b1" 0 0 mark 0
LayerCount: 2
Fore
SplineSet
0 1518 m 0
 38 1518 68 1487 68 1450 c 0
 68 1414 39 1382 0 1382 c 0
 -39 1382 -68 1414 -68 1450 c 0
 -68 1487 -38 1518 0 1518 c 0
EndSplineSet
Validated: 1
EndChar

StartChar: dieresisnosp
Encoding: 97 776 39
Width: 0
VWidth: 2248
GlyphClass: 4
Flags: W
HStem: 1382 136<-170.2 -42.6606 42.6606 170.2>
VStem: -175 137<1386.42 1513.35> 38 137<1386.42 1513.35>
AnchorPoint: "m2b1" 0 0 mark 0
LayerCount: 2
Fore
SplineSet
106 1518 m 0
 144 1518 175 1488 175 1451 c 0
 175 1414 145 1382 106 1382 c 0
 67 1382 38 1415 38 1451 c 0
 38 1487 68 1518 106 1518 c 0
-106 1518 m 0
 -68 1518 -38 1487 -38 1451 c 0
 -38 1415 -67 1382 -106 1382 c 0
 -145 1382 -175 1414 -175 1451 c 0
 -175 1488 -144 1518 -106 1518 c 0
EndSplineSet
Validated: 1
EndChar

StartChar: ringnosp
Encoding: 98 778 40
Width: 0
VWidth: 2248
GlyphClass: 4
Flags: W
HStem: 1285 62<-52.6888 52.383> 1478 60<-51.4525 51.5234>
VStem: -126 64<1355.26 1468.99> 62 64<1355.11 1469.38>
AnchorPoint: "m2b1" 0 0 mark 0
LayerCount: 2
Fore
SplineSet
-126 1413 m 0
 -126 1478 -73 1538 0 1538 c 0
 66 1538 126 1485 126 1413 c 0
 126 1344 70 1285 0 1285 c 0
 -71 1285 -126 1344 -126 1413 c 0
-0 1478 m 0
 -35 1478 -62 1451 -62 1413 c 0
 -62 1377 -37 1347 -0 1347 c 0
 33 1347 62 1372 62 1413 c 0
 62 1453 33 1478 -0 1478 c 0
EndSplineSet
Validated: 1
EndChar

StartChar: atnah
Encoding: 100 1425 42
Width: 0
VWidth: 2248
GlyphClass: 4
Flags: W
HStem: -313 191<-48.131 48.1764>
VStem: -164 91<-493.977 -320.394> -49 98<-243.273 -122.195> 73 91<-493.971 -320.394>
CounterMasks: 1 38
AnchorPoint: "m2m4" 165 0 mark 0
AnchorPoint: "m2m4" -245 0 basemark 0
AnchorPoint: "m2m3" -245 0 basemark 0
AnchorPoint: "m2m1" 165 0 mark 0
AnchorPoint: "m2bmback" 0 0 mark 0
AnchorPoint: "m2b5a" 0 0 mark 0
LayerCount: 2
Fore
SplineSet
0 -122 m 0
 20 -122 36 -133 49 -142 c 1
 49 -227 l 1
 85 -234 165 -263 165 -421 c 0
 165 -447 164 -451 164 -472 c 2
 164 -478 l 1
 152 -484 135 -494 118 -494 c 0
 104 -494 91 -487 73 -480 c 1
 73 -421 l 2
 73 -340 44 -313 0 -313 c 0
 -44 -313 -73 -340 -73 -421 c 2
 -73 -479 l 1
 -85 -486 -100 -494 -118 -494 c 0
 -135 -494 -149 -487 -164 -477 c 1
 -164 -472 l 2
 -164 -450 -164 -447 -164 -421 c 0
 -164 -263 -85 -234 -49 -227 c 1
 -49 -142 l 1
 -34 -129 -20 -122 0 -122 c 0
EndSplineSet
Validated: 1
Position2: "Single Positioning lookup 23 subtable" dx=200 dy=0 dh=0 dv=0
MultipleSubs2: "AddHairspaceAfterMark subtable" atnah hairspace
MultipleSubs2: "AddThinspaceAfterMark subtable" atnah thinspace
EndChar

StartChar: segolta
Encoding: 101 1426 43
Width: 0
VWidth: 2248
GlyphClass: 4
Flags: W
HStem: 1293 129<-151.398 -28.6025 28.6025 151.398> 1427 130<-61.5948 61.5948>
VStem: -155 130<1296.41 1418.9> -65 130<1430.41 1553.59> 25 130<1296.41 1418.9>
AnchorPoint: "m2m8" 155 0 mark 0
AnchorPoint: "m2m7" 155 0 mark 0
AnchorPoint: "m2mrafe" 350 0 mark 0
AnchorPoint: "m2b8b" 0 0 mark 0
LayerCount: 2
Fore
SplineSet
-155 1358 m 0xe0
 -155 1396 -124 1422 -90 1422 c 0
 -56 1422 -25 1396 -25 1358 c 0
 -25 1322 -54 1293 -90 1293 c 0
 -126 1293 -155 1322 -155 1358 c 0xe0
25 1358 m 0xc8
 25 1396 56 1422 90 1422 c 0
 124 1422 155 1396 155 1358 c 0
 155 1322 126 1293 90 1293 c 0
 54 1293 25 1322 25 1358 c 0xc8
-65 1492 m 0xd0
 -65 1528 -36 1557 0 1557 c 0
 36 1557 65 1528 65 1492 c 0
 65 1456 36 1427 0 1427 c 0
 -36 1427 -65 1456 -65 1492 c 0xd0
EndSplineSet
Validated: 1
MultipleSubs2: "AddHairspaceAfterMark subtable" segolta hairspace
MultipleSubs2: "AddThinspaceAfterMark subtable" segolta thinspace
Substitution2: "UpperMarksChanges subtable" segolta_on_right
EndChar

StartChar: shalshelet
Encoding: 102 1427 44
Width: 0
VWidth: 2248
GlyphClass: 4
Flags: W
HStem: 1290 70<4 111.995>
VStem: -116 228
AnchorPoint: "m2m7" 110 0 mark 0
AnchorPoint: "m2m7" -195 0 basemark 0
AnchorPoint: "m2m7n" 120 0 mark 0
AnchorPoint: "m2mrafe" 0 0 mark 0
AnchorPoint: "m2b9" 0 0 mark 0
AnchorPoint: "m2b8a" 0 0 mark 0
LayerCount: 2
Fore
SplineSet
-71 1392 m 2
 -100 1392 -149 1391 -86 1442 c 2
 -18 1498 l 1
 -22 1498 l 1
 -80 1498 l 2
 -100 1498 -146 1496 -98 1539 c 1
 44 1659 l 1
 54 1664 60 1667 71 1667 c 1
 77 1665 l 1
 80 1660 96 1646 72 1627 c 2
 3 1574 l 1
 10 1574 l 1
 61 1574 l 2
 87 1574 128 1576 81 1531 c 1
 14 1474 l 1
 5 1467 l 1
 10 1467 l 1
 18 1467 l 1
 46 1467 l 2
 91 1467 130 1465 68 1415 c 1
 16 1372 l 2
 15 1371 9 1365 4 1360 c 1
 10 1360 17 1360 20 1360 c 2
 72 1360 l 2
 105 1360 112 1362 112 1326 c 0
 112 1296 109 1290 81 1290 c 0
 77 1290 74 1290 70 1290 c 2
 -72 1290 l 1
 -83 1290 -116 1294 -116 1306 c 3
 -116 1308 -115 1310 -112 1313 c 1
 -106 1318 -93 1331 -80 1342 c 2
 -19 1392 l 1
 -25 1392 -31 1392 -32 1392 c 2
 -71 1392 l 2
EndSplineSet
Validated: 1
MultipleSubs2: "AddHairspaceAfterMark subtable" shalshelet hairspace
MultipleSubs2: "AddThinspaceAfterMark subtable" shalshelet thinspace
EndChar

StartChar: zaqefqatan
Encoding: 103 1428 45
Width: 0
VWidth: 2496
GlyphClass: 4
Flags: W
HStem: 1290 157<-71.2728 71.2728> 1481 157<-71.2728 71.2728>
VStem: -79 158<1297.7 1439.27 1488.7 1630.27>
AnchorPoint: "m2m7" 80 0 mark 0
AnchorPoint: "m2m7" -180 0 basemark 0
AnchorPoint: "m2m7n" 80 0 mark 0
AnchorPoint: "m2mrafe" 0 0 mark 0
AnchorPoint: "m2b9" 0 0 mark 0
AnchorPoint: "m2b8a" 0 0 mark 0
LayerCount: 2
Fore
SplineSet
-79 1368 m 0
 -79 1412 -44 1447 0 1447 c 0
 44 1447 79 1412 79 1368 c 0
 79 1325 44 1290 0 1290 c 0
 -44 1290 -79 1325 -79 1368 c 0
-79 1559 m 0
 -79 1603 -44 1638 0 1638 c 0
 44 1638 79 1603 79 1559 c 0
 79 1516 44 1481 0 1481 c 0
 -44 1481 -79 1516 -79 1559 c 0
EndSplineSet
Validated: 1
MultipleSubs2: "AddHairspaceAfterMark subtable" zaqefqatan hairspace
MultipleSubs2: "AddThinspaceAfterMark subtable" zaqefqatan thinspace
EndChar

StartChar: zaqefgadol
Encoding: 104 1429 46
Width: 0
VWidth: 2495
GlyphClass: 4
Flags: W
HStem: 1290 349<-175.963 -58> 1290 158<27.7272 168.222> 1481 158<27.7272 168.222>
VStem: -176 118<1290.22 1638.94> 20 156<1298.07 1439.93 1489.07 1630.93>
AnchorPoint: "m2m7" 175 0 mark 0
AnchorPoint: "m2m7" -285 0 basemark 0
AnchorPoint: "m2m7n" 175 0 mark 0
AnchorPoint: "m2mrafe" 0 0 mark 0
AnchorPoint: "m2b9" 0 0 mark 0
AnchorPoint: "m2b8a" 0 0 mark 0
LayerCount: 2
Fore
SplineSet
20 1369 m 0x58
 20 1412 55 1448 99 1448 c 0
 145 1448 176 1411 176 1369 c 0
 176 1327 145 1290 99 1290 c 0
 55 1290 20 1326 20 1369 c 0x58
20 1560 m 0
 20 1603 55 1639 99 1639 c 0
 145 1639 176 1602 176 1560 c 0
 176 1518 145 1481 99 1481 c 0x38
 55 1481 20 1517 20 1560 c 0
-176 1591 m 2
 -176 1638 -172 1639 -118 1639 c 0
 -106 1639 l 0
 -69 1639 -58 1637 -58 1599 c 0
 -58 1596 -58 1594 -58 1591 c 2
 -58 1333 l 2
 -58 1295 -65 1290 -118 1290 c 0x98
 -171 1290 -176 1294 -176 1340 c 2
 -176 1591 l 2
EndSplineSet
Validated: 1
MultipleSubs2: "AddHairspaceAfterMark subtable" zaqefgadol hairspace
MultipleSubs2: "AddThinspaceAfterMark subtable" zaqefgadol thinspace
EndChar

StartChar: tipeha
Encoding: 105 1430 47
Width: 0
VWidth: 2245
GlyphClass: 4
Flags: W
HStem: -498 95<41.8854 145.648>
VStem: -70 96<-381.758 -126.506>
AnchorPoint: "m2m4" 145 0 mark 0
AnchorPoint: "m2m4" -150 0 basemark 0
AnchorPoint: "m2m3" -150 0 basemark 0
AnchorPoint: "m2m1" 145 0 mark 0
AnchorPoint: "m2bmback" -52 0 mark 0
AnchorPoint: "m2b5a" -10 0 mark 0
LayerCount: 2
Fore
SplineSet
37 -139 m 1
 29 -198 26 -233 26 -264 c 0
 26 -380 48 -378 141 -403 c 1
 145 -415 146 -420 146 -445 c 0
 146 -477 132 -490 125 -498 c 1
 67 -486 -70 -457 -70 -291 c 0
 -70 -245 -64 -168 -58 -138 c 1
 -39 -130 -27 -125 -11 -125 c 0
 8 -125 24 -133 37 -139 c 1
EndSplineSet
Validated: 1
Position2: "Single Positioning lookup 23 subtable" dx=200 dy=0 dh=0 dv=0
MultipleSubs2: "AddHairspaceAfterMark subtable" tipeha hairspace
MultipleSubs2: "AddThinspaceAfterMark subtable" tipeha thinspace
EndChar

StartChar: revia
Encoding: 106 1431 48
Width: 0
VWidth: 2509
GlyphClass: 4
Flags: W
HStem: 1290 232<-47.8409 47.8409>
VStem: -105 210<1345.44 1461.99>
AnchorPoint: "m2m7" 105 0 mark 0
AnchorPoint: "m2m7" -185 0 basemark 0
AnchorPoint: "m2m7n" 205 0 mark 0
AnchorPoint: "m2b9" 0 0 mark 0
AnchorPoint: "m2b8a" 0 0 mark 0
LayerCount: 2
Fore
SplineSet
0 1290 m 0
 -20 1290 -35 1319 -59 1344 c 0
 -89 1375 -105 1387 -105 1400 c 0
 -105 1413 -91 1427 -61 1462 c 0
 -27 1502 -14 1522 0 1522 c 0
 14 1522 27 1502 61 1462 c 0
 91 1427 105 1413 105 1400 c 0
 105 1387 89 1375 59 1344 c 0
 35 1319 20 1290 0 1290 c 0
EndSplineSet
Validated: 1
MultipleSubs2: "AddHairspaceAfterMark subtable" revia hairspace
MultipleSubs2: "AddThinspaceAfterMark subtable" revia thinspace
EndChar

StartChar: zarqa
Encoding: 107 1432 49
Width: 0
VWidth: 2506
GlyphClass: 4
Flags: W
HStem: 1290 91<44.4614 122.022> 1458 88<-122.543 -44.1519>
VStem: -204 81<1341.11 1457.9> 123 80<1382.01 1496>
AnchorPoint: "m2m7" 205 0 mark 0
AnchorPoint: "m2m7" -285 0 basemark 0
AnchorPoint: "m2m7n" 205 0 mark 0
AnchorPoint: "m2mrafe" 0 0 mark 0
AnchorPoint: "m2b9" 0 0 mark 0
AnchorPoint: "m2b8a" 0 0 mark 0
LayerCount: 2
Fore
SplineSet
-121 1284 m 1
 -150 1301 -204 1336 -204 1413 c 0
 -204 1492 -151 1546 -88 1546 c 0
 -30 1546 4 1503 33 1446 c 2
 47 1419 l 2
 62 1390 72 1381 86 1381 c 0
 104 1381 123 1397 123 1424 c 0
 123 1453 92 1467 81 1472 c 1
 81 1478 l 2
 81 1523 109 1545 120 1553 c 1
 146 1539 203 1505 203 1426 c 0
 203 1344 147 1290 89 1290 c 0
 18 1290 -12 1351 -33 1393 c 2
 -46 1418 l 2
 -66 1457 -81 1458 -88 1458 c 0
 -105 1458 -123 1442 -123 1413 c 0
 -123 1384 -97 1371 -82 1365 c 1
 -82 1358 l 2
 -82 1314 -115 1289 -121 1284 c 1
EndSplineSet
Validated: 1
MultipleSubs2: "AddHairspaceAfterMark subtable" zarqa hairspace
MultipleSubs2: "AddThinspaceAfterMark subtable" zarqa thinspace
EndChar

StartChar: pashta
Encoding: 108 1433 50
Width: 0
VWidth: 2493
GlyphClass: 4
Flags: W
HStem: 1568 95<-156.648 -52.8854>
VStem: -37 96<1291.51 1546.63>
AnchorPoint: "m2m8" 60 0 mark 0
AnchorPoint: "m2m7" 60 0 mark 0
AnchorPoint: "m2mrafe" 300 0 mark 0
AnchorPoint: "m2b8b" 0 0 mark 0
LayerCount: 2
Fore
SplineSet
-48 1304 m 1
 -40 1363 -37 1397 -37 1428 c 0
 -37 1544 -59 1543 -152 1568 c 1
 -156 1580 -157 1585 -157 1610 c 0
 -157 1642 -143 1655 -136 1663 c 1
 -78 1651 59 1622 59 1456 c 0
 59 1410 53 1333 47 1303 c 1
 28 1295 16 1290 0 1290 c 0
 -19 1290 -35 1298 -48 1304 c 1
EndSplineSet
Validated: 1
MultipleSubs2: "AddHairspaceAfterMark subtable" pashta hairspace
MultipleSubs2: "AddThinspaceAfterMark subtable" pashta thinspace
Substitution2: "UpperMarksChanges subtable" qadma
EndChar

StartChar: yetiv
Encoding: 109 1434 51
Width: 0
VWidth: 2248
GlyphClass: 4
Flags: W
HStem: -462 332
VStem: -130 267
AnchorPoint: "m2m6d" -130 0 mark 0
AnchorPoint: "m2m6c" -130 0 mark 0
AnchorPoint: "m2m6b" -130 0 mark 0
AnchorPoint: "m2m6a" -130 0 mark 0
AnchorPoint: "m2m5" -130 0 mark 0
AnchorPoint: "m2m6e" -130 0 mark 0
AnchorPoint: "m2b5b" -80 0 mark 0
LayerCount: 2
Fore
SplineSet
89 -130 m 0
 107 -130 137 -183 137 -197 c 0
 138 -205 127 -212 110 -221 c 1
 27 -281 l 2
 11 -294 6 -298 4 -301 c 1
 7 -303 14 -308 27 -316 c 2
 105 -370 l 2
 126 -384 134 -400 134 -414 c 0
 134 -440 107 -462 87 -462 c 0
 84 -462 82 -463 80 -462 c 0
 76 -460 71 -456 58 -448 c 2
 -95 -338 l 1
 -127 -322 -147 -313 -130 -285 c 1
 -123 -276 -109 -266 -96 -257 c 2
 58 -148 l 1
 75 -134 83 -130 89 -130 c 0
EndSplineSet
Validated: 1
MultipleSubs2: "AddHairspaceAfterMark subtable" yetiv hairspace
MultipleSubs2: "AddThinspaceAfterMark subtable" yetiv thinspace
EndChar

StartChar: tevir
Encoding: 110 1435 52
Width: 0
VWidth: 2248
GlyphClass: 4
Flags: W
HStem: -495 95<-84.7181 17.8262> -323 109<-128.865 -20.0918>
VStem: -130 111<-321.91 -215.174> 34 96<-378.319 -123.506>
AnchorPoint: "m2m4" 130 0 mark 0
AnchorPoint: "m2m4" -210 0 basemark 0
AnchorPoint: "m2m3" -210 0 basemark 0
AnchorPoint: "m2m1" 130 0 mark 0
AnchorPoint: "m2bmback" 13 0 mark 0
AnchorPoint: "m2b5a" 0 0 mark 0
LayerCount: 2
Fore
SplineSet
-130 -269 m 0
 -130 -238 -105 -214 -74 -214 c 0
 -41 -214 -19 -240 -19 -269 c 0
 -19 -299 -43 -323 -74 -323 c 0
 -104 -323 -130 -301 -130 -269 c 0
-65 -495 m 1
 -77 -481 -85 -469 -85 -442 c 0
 -85 -417 -84 -412 -82 -400 c 1
 14 -374 34 -375 34 -261 c 0
 34 -229 31 -195 23 -136 c 1
 37 -130 52 -122 72 -122 c 0
 90 -122 109 -131 117 -135 c 1
 119 -150 130 -227 130 -288 c 0
 130 -454 -7 -483 -65 -495 c 1
EndSplineSet
Validated: 1
Position2: "Single Positioning lookup 23 subtable" dx=200 dy=0 dh=0 dv=0
MultipleSubs2: "AddHairspaceAfterMark subtable" tevir hairspace
MultipleSubs2: "AddThinspaceAfterMark subtable" tevir thinspace
EndChar

StartChar: gereshaccent
Encoding: 111 1436 53
Width: 0
VWidth: 2493
GlyphClass: 4
Flags: W
HStem: 1568 95<52.8854 156.648>
VStem: -59 96<1291.34 1546.63>
AnchorPoint: "m2m7" 155 0 mark 0
AnchorPoint: "m2m7" -140 0 basemark 0
AnchorPoint: "m2m7n" 155 0 mark 0
AnchorPoint: "m2mrafe" 0 0 mark 0
AnchorPoint: "m2b9" 0 0 mark 0
AnchorPoint: "m2b8a" 0 0 mark 0
LayerCount: 2
Fore
SplineSet
136 1663 m 1
 143 1655 157 1642 157 1610 c 0
 157 1585 156 1580 152 1568 c 1
 58 1543 37 1544 37 1428 c 0
 37 1396 40 1363 48 1304 c 1
 35 1298 19 1290 0 1290 c 0
 -19 1290 -34 1297 -47 1303 c 1
 -53 1333 -59 1410 -59 1456 c 0
 -59 1622 78 1651 136 1663 c 1
EndSplineSet
Validated: 1
MultipleSubs2: "AddHairspaceAfterMark subtable" gereshaccent hairspace
MultipleSubs2: "AddThinspaceAfterMark subtable" gereshaccent thinspace
EndChar

StartChar: gereshmuqdam
Encoding: 112 1437 54
Width: 0
VWidth: 2493
GlyphClass: 4
Flags: W
HStem: 1568 95<52.8854 156.648>
VStem: -59 96<1291.34 1546.63>
AnchorPoint: "m2m7n" -140 0 basemark 0
AnchorPoint: "m2mrafe" -300 0 mark 0
AnchorPoint: "m2b8c" -10 0 mark 0
LayerCount: 2
Fore
SplineSet
136 1663 m 1
 143 1655 157 1642 157 1610 c 0
 157 1585 156 1580 152 1568 c 1
 58 1543 37 1544 37 1428 c 0
 37 1396 40 1363 48 1304 c 1
 35 1298 19 1290 0 1290 c 0
 -19 1290 -34 1297 -47 1303 c 1
 -53 1333 -59 1410 -59 1456 c 0
 -59 1622 78 1651 136 1663 c 1
EndSplineSet
Validated: 1
MultipleSubs2: "AddHairspaceAfterMark subtable" gereshmuqdam hairspace
MultipleSubs2: "AddThinspaceAfterMark subtable" gereshmuqdam thinspace
EndChar

StartChar: gershayimaccent
Encoding: 113 1438 55
Width: 0
VWidth: 2493
GlyphClass: 4
Flags: W
HStem: 1569 95<-89.9319 9.69623 101.413 204.718>
VStem: -205 95<1292.2 1544.08> -10 95<1292.34 1547.52>
AnchorPoint: "m2m7" 205 0 mark 0
AnchorPoint: "m2m7" -285 0 basemark 0
AnchorPoint: "m2m7n" 205 0 mark 0
AnchorPoint: "m2mrafe" 0 0 mark 0
AnchorPoint: "m2b9" 0 0 mark 0
AnchorPoint: "m2b8a" 0 0 mark 0
LayerCount: 2
Fore
SplineSet
185 1664 m 1
 197 1650 205 1638 205 1611 c 0
 205 1586 204 1581 200 1569 c 1
 106 1544 85 1544 85 1429 c 0
 85 1397 88 1364 97 1305 c 1
 83 1299 68 1291 48 1291 c 0
 30 1291 16 1298 3 1304 c 1
 -3 1334 -10 1411 -10 1457 c 0
 -10 1623 125 1652 185 1664 c 1
-10 1664 m 1
 2 1650 10 1638 10 1611 c 0
 10 1606 11 1595 11 1588 c 0
 11 1578 9 1573 8 1569 c 1
 -87 1543 -110 1544 -110 1429 c 0
 -110 1379 -103 1330 -99 1305 c 1
 -118 1297 -130 1291 -147 1291 c 0
 -166 1291 -181 1298 -194 1304 c 1
 -196 1319 -205 1396 -205 1457 c 0
 -205 1623 -70 1652 -10 1664 c 1
EndSplineSet
Validated: 1
MultipleSubs2: "AddHairspaceAfterMark subtable" gershayimaccent hairspace
MultipleSubs2: "AddThinspaceAfterMark subtable" gershayimaccent thinspace
EndChar

StartChar: qarneypara
Encoding: 114 1439 56
Width: 0
VWidth: 2499
GlyphClass: 4
Flags: W
HStem: 1313 75<-184.488 -93.3294 94.1598 184.488> 1488 75<-186.036 -91.9281 91.9447 186.002>
VStem: -254 67<1390.56 1485.81> -91 73<1389.16 1486.68> 18 73<1389.57 1486.53> 187 67<1391.19 1485.5>
AnchorPoint: "m2m7" 255 0 mark 0
AnchorPoint: "m2m7" -335 0 basemark 0
AnchorPoint: "m2m7n" 255 0 mark 0
AnchorPoint: "m2mrafe" 0 0 mark 0
AnchorPoint: "m2b9" 0 0 mark 0
AnchorPoint: "m2b8a" 0 0 mark 0
LayerCount: 2
Fore
SplineSet
187 1442 m 0
 187 1467 172 1488 140 1488 c 0
 109 1488 91 1469 91 1442 c 0
 91 1420 100 1388 138 1388 c 0
 169 1388 187 1413 187 1442 c 0
-91 1442 m 0
 -91 1470 -108 1488 -139 1488 c 0
 -169 1488 -187 1469 -187 1442 c 0
 -187 1413 -169 1388 -138 1388 c 0
 -100 1388 -91 1420 -91 1442 c 0
-18 1441 m 0
 -18 1396 -45 1364 -45 1360 c 0
 -45 1360 -11 1317 0 1320 c 0
 10 1324 45 1357 46 1357 c 0
 46 1357 18 1393 18 1441 c 0
 18 1510 74 1563 138 1563 c 0
 202 1563 254 1511 254 1442 c 0
 254 1371 201 1313 136 1313 c 0
 131 1313 128 1313 124 1313 c 0
 92 1313 47 1236 0 1236 c 0
 -48 1236 -88 1313 -126 1313 c 0
 -129 1313 -132 1313 -136 1313 c 0
 -201 1313 -254 1370 -254 1440 c 0
 -254 1509 -202 1563 -138 1563 c 0
 -74 1563 -18 1510 -18 1441 c 0
EndSplineSet
Validated: 1
MultipleSubs2: "AddHairspaceAfterMark subtable" qarneypara hairspace
MultipleSubs2: "AddThinspaceAfterMark subtable" qarneypara thinspace
EndChar

StartChar: telishagedola
Encoding: 115 1440 57
Width: 0
VWidth: 2502
GlyphClass: 4
Flags: W
HStem: 1362 75<-62.5842 75.9167> 1577 73<-62.7028 76.8041>
VStem: -144 74<1445.82 1567.87> 84 74<1445.56 1568.76>
AnchorPoint: "m2m7n" -230 0 basemark 0
AnchorPoint: "m2mrafe" -300 0 mark 0
AnchorPoint: "m2b9" 0 0 mark 0
AnchorPoint: "m2b8c" -135 0 mark 0
LayerCount: 2
Fore
SplineSet
8 1362 m 0
 -6 1362 -25 1368 -34 1368 c 0
 -46 1368 -47 1363 -54 1349 c 2
 -78 1307 l 2
 -84 1298 -92 1280 -108 1280 c 0
 -114 1280 -119 1281 -135 1290 c 0
 -166 1307 -167 1316 -144 1349 c 2
 -118 1385 l 1
 -109 1397 -107 1406 -107 1408 c 0
 -107 1428 -144 1434 -144 1509 c 0
 -144 1586 -86 1650 8 1650 c 0
 106 1650 158 1583 158 1509 c 0
 158 1436 90 1362 8 1362 c 0
-70 1509 m 0
 -70 1468 -45 1437 8 1437 c 0
 58 1437 84 1468 84 1509 c 0
 84 1548 59 1577 8 1577 c 0
 -44 1577 -70 1548 -70 1509 c 0
EndSplineSet
Validated: 1
MultipleSubs2: "AddHairspaceAfterMark subtable" telishagedola hairspace
MultipleSubs2: "AddThinspaceAfterMark subtable" telishagedola thinspace
Substitution2: "UpperMarksChanges subtable" telishag_on_left
EndChar

StartChar: pazer
Encoding: 116 1441 58
Width: 0
VWidth: 2501
GlyphClass: 4
Flags: W
HStem: 1224 21G<-100.5 -80.5> 1315 91<-43 40.5493>
VStem: -143 100<1224.34 1315 1406 1585.85> 51 92<1411.57 1584.73>
AnchorPoint: "m2m7" 145 0 mark 0
AnchorPoint: "m2m7" -230 0 basemark 0
AnchorPoint: "m2m7n" 145 0 mark 0
AnchorPoint: "m2mrafe" 0 0 mark 0
AnchorPoint: "m2b9" 0 0 mark 0
AnchorPoint: "m2b8a" 0 0 mark 0
LayerCount: 2
Fore
SplineSet
39 1573 m 1
 51 1579 66 1586 84 1586 c 0
 102 1586 117 1580 130 1575 c 1
 137 1539 143 1532 143 1503 c 0
 143 1404 99 1315 -10 1315 c 0
 -18 1315 -27 1315 -38 1315 c 0
 -40 1315 -41 1315 -43 1315 c 1
 -43 1236 l 1
 -56 1231 -71 1224 -90 1224 c 0
 -111 1224 -128 1230 -143 1236 c 1
 -143 1575 l 1
 -129 1580 -113 1586 -93 1586 c 0
 -75 1586 -62 1582 -43 1575 c 1
 -43 1408 l 1
 -37 1407 -29 1406 -21 1406 c 0
 22 1406 51 1431 51 1503 c 2
 51 1510 l 2
 51 1535 47 1549 39 1573 c 1
EndSplineSet
Validated: 1
MultipleSubs2: "AddHairspaceAfterMark subtable" pazer hairspace
MultipleSubs2: "AddThinspaceAfterMark subtable" pazer thinspace
EndChar

StartChar: atnahhafukh
Encoding: 117 1442 59
Width: 0
VWidth: 2248
GlyphClass: 4
Flags: W
HStem: -494 191<-48.1764 48.131>
VStem: -164 91<-295.606 -122.029> -49 98<-493.805 -372.727> 73 91<-295.606 -122.023>
CounterMasks: 1 38
AnchorPoint: "m2m4" 165 0 mark 0
AnchorPoint: "m2m4" -245 0 basemark 0
AnchorPoint: "m2m3" -245 0 basemark 0
AnchorPoint: "m2m1" 165 0 mark 0
AnchorPoint: "m2bmback" 0 0 mark 0
AnchorPoint: "m2b5a" 0 0 mark 0
LayerCount: 2
Fore
SplineSet
0 -494 m 0
 -20 -494 -36 -483 -49 -474 c 1
 -49 -389 l 1
 -85 -382 -164 -353 -164 -195 c 0
 -164 -169 -164 -165 -164 -144 c 2
 -164 -138 l 1
 -152 -132 -135 -122 -118 -122 c 0
 -104 -122 -91 -129 -73 -136 c 1
 -73 -195 l 2
 -73 -276 -44 -303 0 -303 c 0
 44 -303 73 -276 73 -195 c 2
 73 -137 l 1
 85 -130 100 -122 118 -122 c 0
 135 -122 149 -129 164 -139 c 1
 164 -144 l 2
 164 -166 165 -169 165 -195 c 0
 165 -353 85 -382 49 -389 c 1
 49 -474 l 1
 34 -487 20 -494 0 -494 c 0
EndSplineSet
Validated: 1
Position2: "Single Positioning lookup 23 subtable" dx=200 dy=0 dh=0 dv=0
MultipleSubs2: "AddHairspaceAfterMark subtable" atnahhafukh hairspace
MultipleSubs2: "AddThinspaceAfterMark subtable" atnahhafukh thinspace
EndChar

StartChar: munah
Encoding: 118 1443 60
Width: 0
VWidth: 2248
GlyphClass: 4
Flags: W
HStem: -448 84<-108.933 30>
VStem: 30 79<-364 -128.002>
AnchorPoint: "m2m4" 110 0 mark 0
AnchorPoint: "m2m4" -190 0 basemark 0
AnchorPoint: "m2m3" -190 0 basemark 0
AnchorPoint: "m2m1" 110 0 mark 0
AnchorPoint: "m2bmback" 0 0 mark 0
AnchorPoint: "m2b5a" 0 0 mark 0
LayerCount: 2
Fore
SplineSet
109 -397 m 2
 109 -446 102 -448 49 -448 c 2
 -68 -448 l 2
 -105 -448 -109 -444 -109 -402 c 1
 -109 -402 -113 -364 -78 -364 c 0
 -75 -364 -72 -364 -68 -364 c 2
 5 -364 l 2
 30 -364 30 -365 30 -341 c 2
 30 -168 l 2
 30 -131 34 -128 70 -128 c 0
 101 -128 109 -129 109 -167 c 2
 109 -397 l 2
EndSplineSet
Validated: 1
Position2: "Single Positioning lookup 23 subtable" dx=200 dy=0 dh=0 dv=0
MultipleSubs2: "AddHairspaceAfterMark subtable" munah hairspace
MultipleSubs2: "AddThinspaceAfterMark subtable" munah thinspace
EndChar

StartChar: mahapakh
Encoding: 119 1444 61
Width: 0
VWidth: 2248
GlyphClass: 4
Flags: W
HStem: -462 332
VStem: -130 267
AnchorPoint: "m2m4" 135 0 mark 0
AnchorPoint: "m2m4" -210 0 basemark 0
AnchorPoint: "m2m3" -210 0 basemark 0
AnchorPoint: "m2m1" 140 0 mark 0
AnchorPoint: "m2bmback" 0 0 mark 0
AnchorPoint: "m2b5a" 0 0 mark 0
LayerCount: 2
Fore
SplineSet
89 -130 m 0
 107 -130 137 -183 137 -197 c 0
 138 -205 127 -212 110 -221 c 1
 27 -281 l 2
 11 -294 6 -298 4 -301 c 1
 7 -303 14 -308 27 -316 c 2
 105 -370 l 2
 126 -384 134 -400 134 -414 c 0
 134 -440 107 -462 87 -462 c 0
 84 -462 82 -463 80 -462 c 0
 76 -460 71 -456 58 -448 c 2
 -95 -338 l 1
 -127 -322 -147 -313 -130 -285 c 1
 -123 -276 -109 -266 -96 -257 c 2
 58 -148 l 1
 75 -134 83 -130 89 -130 c 0
EndSplineSet
Validated: 1
Position2: "Single Positioning lookup 23 subtable" dx=200 dy=0 dh=0 dv=0
MultipleSubs2: "AddHairspaceAfterMark subtable" mahapakh hairspace
MultipleSubs2: "AddThinspaceAfterMark subtable" mahapakh thinspace
EndChar

StartChar: merkha
Encoding: 120 1445 62
Width: 0
VWidth: 2248
GlyphClass: 4
Flags: W
HStem: -495 95<-145.648 -41.8854>
VStem: -26 96<-378.758 -123.344>
AnchorPoint: "m2m4" 70 0 mark 0
AnchorPoint: "m2m4" -225 0 basemark 0
AnchorPoint: "m2m3" -225 0 basemark 0
AnchorPoint: "m2m1" 70 0 mark 0
AnchorPoint: "m2bmback" 38 0 mark 0
AnchorPoint: "m2b5a" 10 0 mark 0
LayerCount: 2
Fore
SplineSet
-125 -495 m 1
 -132 -487 -146 -474 -146 -442 c 0
 -146 -417 -145 -412 -141 -400 c 1
 -47 -375 -26 -377 -26 -261 c 0
 -26 -229 -29 -195 -37 -136 c 1
 -24 -130 -8 -122 11 -122 c 0
 30 -122 45 -129 58 -135 c 1
 64 -165 70 -242 70 -288 c 0
 70 -454 -67 -483 -125 -495 c 1
EndSplineSet
Validated: 1
Position2: "Single Positioning lookup 23 subtable" dx=200 dy=0 dh=0 dv=0
MultipleSubs2: "AddHairspaceAfterMark subtable" merkha hairspace
MultipleSubs2: "AddThinspaceAfterMark subtable" merkha thinspace
EndChar

StartChar: merkhakefula
Encoding: 121 1446 63
Width: 0
VWidth: 2248
GlyphClass: 4
Flags: W
HStem: -495 95<-204.718 -101 -9.69623 93.9995>
VStem: -85 95<-378.649 -123.344> 110 95<-375.214 -123.195>
AnchorPoint: "m2m4" 205 0 mark 0
AnchorPoint: "m2m4" -285 0 basemark 0
AnchorPoint: "m2m3" -285 0 basemark 0
AnchorPoint: "m2m1" 205 0 mark 0
AnchorPoint: "m2bmback" 0 0 mark 0
AnchorPoint: "m2b5a" 0 0 mark 0
LayerCount: 2
Fore
SplineSet
-185 -495 m 1
 -197 -481 -205 -469 -205 -442 c 0
 -205 -417 -204 -412 -200 -400 c 1
 -106 -375 -85 -376 -85 -261 c 0
 -85 -229 -88 -195 -97 -136 c 1
 -83 -130 -68 -122 -48 -122 c 0
 -30 -122 -16 -129 -3 -135 c 1
 3 -165 10 -242 10 -288 c 0
 10 -454 -125 -483 -185 -495 c 1
10 -495 m 1
 -2 -481 -10 -469 -10 -442 c 0
 -10 -437 -11 -426 -11 -419 c 0
 -11 -409 -9 -404 -8 -400 c 1
 87 -374 110 -376 110 -261 c 0
 110 -211 103 -161 99 -136 c 1
 118 -128 130 -122 147 -122 c 0
 166 -122 181 -129 194 -135 c 1
 196 -150 205 -227 205 -288 c 0
 205 -454 70 -483 10 -495 c 1
EndSplineSet
Validated: 1
Position2: "Single Positioning lookup 23 subtable" dx=200 dy=0 dh=0 dv=0
MultipleSubs2: "AddHairspaceAfterMark subtable" merkhakefula hairspace
MultipleSubs2: "AddThinspaceAfterMark subtable" merkhakefula thinspace
EndChar

StartChar: darga
Encoding: 122 1447 64
Width: 0
VWidth: 2248
GlyphClass: 4
Flags: W
HStem: -477 81<-90.9234 13.9007>
VStem: 16 80<-381.582 -339.44>
AnchorPoint: "m2m4" 95 0 mark 0
AnchorPoint: "m2m4" -175 0 basemark 0
AnchorPoint: "m2m3" -175 0 basemark 0
AnchorPoint: "m2m1" 95 0 mark 0
AnchorPoint: "m2bmback" 0 0 mark 0
AnchorPoint: "m2b5a" 0 0 mark 0
LayerCount: 2
Fore
SplineSet
-85 -477 m 1
 -88 -464 -91 -450 -91 -432 c 0
 -91 -415 -88 -406 -85 -396 c 1
 -13 -379 16 -384 16 -349 c 1
 -5 -340 -96 -332 -96 -257 c 0
 -96 -151 -22 -137 71 -124 c 1
 76 -135 81 -147 81 -164 c 0
 81 -181 76 -195 72 -207 c 1
 65 -207 l 2
 35 -207 -14 -218 -19 -249 c 1
 4 -257 96 -266 96 -343 c 0
 96 -446 18 -463 -85 -477 c 1
EndSplineSet
Validated: 1
Position2: "Single Positioning lookup 23 subtable" dx=200 dy=0 dh=0 dv=0
MultipleSubs2: "AddHairspaceAfterMark subtable" darga hairspace
MultipleSubs2: "AddThinspaceAfterMark subtable" darga thinspace
EndChar

StartChar: qadma
Encoding: 123 1448 65
Width: 0
VWidth: 2495
GlyphClass: 4
Flags: W
HStem: 1567 96<-156.648 -53.7703>
VStem: -37 96<1291.14 1542.65>
AnchorPoint: "m2m7" 55 0 mark 0
AnchorPoint: "m2m7" -237 0 basemark 0
AnchorPoint: "m2m7n" 60 0 mark 0
AnchorPoint: "m2mrafe" 0 0 mark 0
AnchorPoint: "m2b9" 0 0 mark 0
AnchorPoint: "m2b8a" 0 0 mark 0
LayerCount: 2
Fore
SplineSet
-48 1301 m 1
 -41 1361 -37 1396 -37 1428 c 0
 -37 1541 -56 1541 -152 1567 c 1
 -154 1575 -157 1580 -157 1610 c 0
 -157 1642 -143 1655 -136 1663 c 1
 -80 1652 59 1621 59 1455 c 0
 59 1409 53 1331 47 1301 c 1
 34 1296 19 1290 0 1290 c 0
 -19 1290 -34 1296 -48 1301 c 1
EndSplineSet
Validated: 1
MultipleSubs2: "AddHairspaceAfterMark subtable" qadma hairspace
MultipleSubs2: "AddThinspaceAfterMark subtable" qadma thinspace
EndChar

StartChar: telishaqetana
Encoding: 124 1449 66
Width: 0
VWidth: 2502
GlyphClass: 4
Flags: W
HStem: 1372 75<-67.9167 70.5842> 1587 73<-68.8041 70.7028>
VStem: -150 74<1455.56 1578.76> 78 74<1455.82 1577.87>
AnchorPoint: "m2m8" 150 0 mark 0
AnchorPoint: "m2m7" 150 0 mark 0
AnchorPoint: "m2mrafe" 350 0 mark 0
AnchorPoint: "m2b8b" 50 0 mark 0
LayerCount: 2
Fore
SplineSet
0 1372 m 0
 -82 1372 -150 1446 -150 1519 c 0
 -150 1593 -98 1660 0 1660 c 0
 94 1660 152 1596 152 1519 c 0
 152 1444 115 1438 115 1418 c 0
 115 1416 117 1407 126 1395 c 1
 150 1359 l 2
 173 1326 174 1317 143 1300 c 0
 127 1291 122 1290 116 1290 c 0
 100 1290 92 1308 86 1317 c 2
 62 1359 l 2
 55 1373 54 1378 42 1378 c 0
 33 1378 14 1372 0 1372 c 0
78 1519 m 0
 78 1558 52 1587 0 1587 c 0
 -51 1587 -76 1558 -76 1519 c 0
 -76 1478 -50 1447 0 1447 c 0
 53 1447 78 1478 78 1519 c 0
EndSplineSet
Validated: 1
MultipleSubs2: "AddHairspaceAfterMark subtable" telishaqetana hairspace
MultipleSubs2: "AddThinspaceAfterMark subtable" telishaqetana thinspace
Substitution2: "UpperMarksChanges subtable" telishaq_on_right
EndChar

StartChar: yerahbenyomo
Encoding: 125 1450 67
Width: 0
VWidth: 2248
GlyphClass: 4
Flags: W
HStem: -494 191<-48.1764 48.131>
VStem: -164 91<-295.606 -122.029> -49 98<-493.805 -372.727> 73 91<-295.606 -122.023>
CounterMasks: 1 38
AnchorPoint: "m2m4" 165 0 mark 0
AnchorPoint: "m2m4" -245 0 basemark 0
AnchorPoint: "m2m3" -245 0 basemark 0
AnchorPoint: "m2m1" 165 0 mark 0
AnchorPoint: "m2bmback" 0 0 mark 0
AnchorPoint: "m2b5a" 0 0 mark 0
LayerCount: 2
Fore
SplineSet
0 -494 m 0
 -20 -494 -36 -483 -49 -474 c 1
 -49 -389 l 1
 -85 -382 -164 -353 -164 -195 c 0
 -164 -169 -164 -165 -164 -144 c 2
 -164 -138 l 1
 -152 -132 -135 -122 -118 -122 c 0
 -104 -122 -91 -129 -73 -136 c 1
 -73 -195 l 2
 -73 -276 -44 -303 0 -303 c 0
 44 -303 73 -276 73 -195 c 2
 73 -137 l 1
 85 -130 100 -122 118 -122 c 0
 135 -122 149 -129 164 -139 c 1
 164 -144 l 2
 164 -166 165 -169 165 -195 c 0
 165 -353 85 -382 49 -389 c 1
 49 -474 l 1
 34 -487 20 -494 0 -494 c 0
EndSplineSet
Validated: 1
Position2: "Single Positioning lookup 23 subtable" dx=200 dy=0 dh=0 dv=0
MultipleSubs2: "AddHairspaceAfterMark subtable" yerahbenyomo hairspace
MultipleSubs2: "AddThinspaceAfterMark subtable" yerahbenyomo thinspace
EndChar

StartChar: ole
Encoding: 126 1451 68
Width: 0
VWidth: 2497
GlyphClass: 4
Flags: W
HStem: 1289 333
VStem: -137 274
AnchorPoint: "m2m7" 135 0 mark 0
AnchorPoint: "m2m7" -215 0 basemark 0
AnchorPoint: "m2m7n" 140 0 mark 0
AnchorPoint: "m2mrafe" 0 0 mark 0
AnchorPoint: "m2b9" 0 0 mark 0
AnchorPoint: "m2b8a" 0 0 mark 0
LayerCount: 2
Fore
SplineSet
135 1357 m 0
 135 1340 111 1289 87 1289 c 0
 84 1289 82 1288 79 1289 c 0
 75 1291 70 1296 57 1306 c 2
 -96 1416 l 2
 -119 1432 -137 1449 -137 1462 c 0
 -137 1466 -135 1470 -131 1473 c 1
 -124 1481 -110 1490 -97 1498 c 2
 57 1605 l 1
 71 1616 81 1622 89 1622 c 0
 100 1622 108 1612 121 1596 c 0
 131 1583 137 1575 137 1568 c 0
 137 1558 128 1549 110 1532 c 1
 26 1474 l 2
 11 1464 5 1461 4 1459 c 1
 6 1455 13 1450 26 1439 c 1
 104 1384 l 1
 125 1372 135 1362 135 1357 c 0
EndSplineSet
Validated: 1
MultipleSubs2: "AddHairspaceAfterMark subtable" ole hairspace
MultipleSubs2: "AddThinspaceAfterMark subtable" ole thinspace
EndChar

StartChar: iluy
Encoding: 127 1452 69
Width: 0
VWidth: 2499
GlyphClass: 4
Flags: W
HStem: 1290 88<-108.977 30>
VStem: 30 79<1378 1612>
AnchorPoint: "m2m7" 110 0 mark 0
AnchorPoint: "m2m7" -190 0 basemark 0
AnchorPoint: "m2m7n" 110 0 mark 0
AnchorPoint: "m2mrafe" 0 0 mark 0
AnchorPoint: "m2b9" 0 0 mark 0
AnchorPoint: "m2b8a" 0 0 mark 0
LayerCount: 2
Fore
SplineSet
109 1342 m 2
 109 1294 102 1290 49 1290 c 2
 -68 1290 l 2
 -106 1290 -109 1296 -109 1338 c 0
 -109 1370 -111 1378 -68 1378 c 2
 5 1378 l 1
 31 1378 30 1374 30 1400 c 2
 30 1572 l 2
 30 1608 34 1612 70 1612 c 0
 101 1612 109 1612 109 1572 c 2
 109 1342 l 2
EndSplineSet
Validated: 1
MultipleSubs2: "AddHairspaceAfterMark subtable" iluy hairspace
MultipleSubs2: "AddThinspaceAfterMark subtable" iluy thinspace
EndChar

StartChar: dehi
Encoding: 128 1453 70
Width: 0
VWidth: 2248
GlyphClass: 4
Flags: W
HStem: -495 95<41.8854 145.648>
VStem: -70 96<-378.758 -123.506>
AnchorPoint: "m2m6d" -70 0 mark 0
AnchorPoint: "m2m6c" -70 0 mark 0
AnchorPoint: "m2m6b" -70 0 mark 0
AnchorPoint: "m2m6a" -70 0 mark 0
AnchorPoint: "m2m5" -70 0 mark 0
AnchorPoint: "m2m6e" -70 0 mark 0
AnchorPoint: "m2b5b" -10 0 mark 0
LayerCount: 2
Fore
SplineSet
37 -136 m 1
 29 -195 26 -230 26 -261 c 0
 26 -377 48 -375 141 -400 c 1
 145 -412 146 -417 146 -442 c 0
 146 -474 132 -487 125 -495 c 1
 67 -483 -70 -454 -70 -288 c 0
 -70 -242 -64 -165 -58 -135 c 1
 -39 -127 -27 -122 -11 -122 c 0
 8 -122 24 -130 37 -136 c 1
EndSplineSet
Validated: 1
MultipleSubs2: "AddHairspaceAfterMark subtable" dehi hairspace
MultipleSubs2: "AddThinspaceAfterMark subtable" dehi thinspace
EndChar

StartChar: tsinor
Encoding: 129 1454 71
Width: 0
VWidth: 2506
GlyphClass: 4
Flags: W
HStem: 1290 91<44.9551 122.068> 1460 86<-122.303 -45.9468>
VStem: -204 81<1340.8 1459.34> 123 81<1381.82 1497.13>
AnchorPoint: "m2m8" 205 0 mark 0
AnchorPoint: "m2m7" 195 0 mark 0
AnchorPoint: "m2m7n" 205 0 mark 0
AnchorPoint: "m2mrafe" 320 0 mark 0
AnchorPoint: "m2b8b" 0 0 mark 0
LayerCount: 2
Fore
SplineSet
-121 1284 m 1
 -150 1301 -204 1337 -204 1414 c 0
 -204 1493 -150 1546 -88 1546 c 0
 -30 1546 5 1503 34 1446 c 2
 48 1418 l 2
 62 1390 72 1381 86 1381 c 0
 104 1381 123 1397 123 1424 c 0
 123 1449 101 1462 82 1472 c 1
 82 1478 l 2
 82 1523 112 1545 123 1553 c 1
 149 1539 204 1505 204 1426 c 0
 204 1343 147 1290 89 1290 c 0
 19 1290 -12 1351 -32 1392 c 1
 -46 1418 l 2
 -66 1456 -80 1460 -88 1460 c 0
 -104 1460 -123 1443 -123 1414 c 0
 -123 1385 -95 1370 -82 1364 c 1
 -82 1358 l 2
 -82 1314 -109 1293 -121 1284 c 1
EndSplineSet
Validated: 1
MultipleSubs2: "AddHairspaceAfterMark subtable" tsinor hairspace
MultipleSubs2: "AddThinspaceAfterMark subtable" tsinor thinspace
Substitution2: "UpperMarksChanges subtable" zarqa
EndChar

StartChar: masoracircle
Encoding: 130 1455 72
Width: 0
VWidth: 2498
GlyphClass: 4
Flags: W
HStem: 1290 75<-68.2685 67.6581> 1537 76<-71.6637 71.09>
VStem: -161 77<1378.85 1523.94> 84 77<1379.15 1523.65>
AnchorPoint: "m2m7" 160 0 mark 0
AnchorPoint: "m2m7" -240 0 basemark 0
AnchorPoint: "m2m7n" 160 0 mark 0
AnchorPoint: "m2mrafe" 0 0 mark 0
AnchorPoint: "m2b9" 0 0 mark 0
AnchorPoint: "m2b8a" 0 0 mark 0
LayerCount: 2
Fore
SplineSet
0 1290 m 0
 -90 1290 -161 1365 -161 1453 c 0
 -161 1536 -93 1613 0 1613 c 0
 84 1613 161 1545 161 1453 c 0
 161 1365 89 1290 0 1290 c 0
0 1537 m 0
 -46 1537 -84 1506 -84 1453 c 0
 -84 1401 -47 1365 0 1365 c 0
 44 1365 84 1399 84 1453 c 0
 84 1506 43 1537 0 1537 c 0
EndSplineSet
Validated: 1
MultipleSubs2: "AddHairspaceAfterMark subtable" masoracircle hairspace
MultipleSubs2: "AddThinspaceAfterMark subtable" masoracircle thinspace
EndChar

StartChar: sheva
Encoding: 131 1456 73
Width: 0
VWidth: 2248
GlyphClass: 4
Flags: W
HStem: -472 156<-70.9316 70.9316> -281 156<-70.9316 70.9316>
VStem: -79 158<-464.222 -323.727 -273.222 -132.727>
AnchorPoint: "m2m5" 360 0 basemark 0
AnchorPoint: "m2m6e" 160 0 basemark 0
AnchorPoint: "m2m3" 80 0 mark 0
AnchorPoint: "m2m2" 80 0 mark 0
AnchorPoint: "m2m1" -160 0 basemark 0
AnchorPoint: "m2bv2left" 35 0 mark 0
AnchorPoint: "m2bvback" 0 0 mark 0
AnchorPoint: "m2bv2r" -150 0 mark 0
AnchorPoint: "VbWM" -70 0 mark 0
AnchorPoint: "VbNM" -70 0 mark 0
AnchorPoint: "m2b4a" 0 0 mark 0
LayerCount: 2
Fore
SplineSet
-79 -395 m 0
 -79 -351 -44 -316 0 -316 c 0
 44 -316 79 -351 79 -395 c 0
 79 -441 42 -472 0 -472 c 0
 -42 -472 -79 -441 -79 -395 c 0
-79 -204 m 0
 -79 -160 -44 -125 0 -125 c 0
 44 -125 79 -160 79 -204 c 0
 79 -250 42 -281 0 -281 c 0
 -42 -281 -79 -250 -79 -204 c 0
EndSplineSet
Validated: 1
Position2: "positionMoveVowelToLeft subtable" dx=-30 dy=0 dh=0 dv=0
MultipleSubs2: "AddHairspaceAfterMark subtable" sheva hairspace
MultipleSubs2: "AddThinspaceAfterMark subtable" sheva thinspace
Substitution2: "ShevaAndQamatsForFinalkaf subtable" sheva_for_finalkaf
EndChar

StartChar: hatafsegol
Encoding: 132 1457 74
Width: 0
VWidth: 2248
GlyphClass: 4
Flags: W
HStem: -472 156<143.705 284.636> -456 161<-176.976 -31.0242> -290 163<-283.4 -139.024 -69.3757 74.5517 148.308 280.189>
VStem: -292 162<-281.188 -136.024> -186 164<-446.976 -303.202> -78 162<-280.479 -137.156> 136 156<-464.488 -323.727 -273.488 -132.727>
AnchorPoint: "m2m5" 570 0 basemark 0
AnchorPoint: "m2m6e" 370 0 basemark 0
AnchorPoint: "m2m2" 290 0 mark 0
AnchorPoint: "m2m1" -370 0 basemark 0
AnchorPoint: "m2bv2r" -320 0 mark 0
AnchorPoint: "HbWM" -282 0 mark 0
AnchorPoint: "HbNM" -282 0 mark 0
AnchorPoint: "m2b4c" 0 0 mark 0
LayerCount: 2
Fore
SplineSet
-292 -209 m 0x32
 -292 -164 -258 -127 -212 -127 c 0
 -167 -127 -130 -164 -130 -209 c 0
 -130 -255 -167 -290 -212 -290 c 0
 -257 -290 -292 -254 -292 -209 c 0x32
-78 -209 m 0x26
 -78 -165 -47 -127 0 -127 c 0
 45 -127 84 -163 84 -209 c 0
 84 -255 45 -290 0 -290 c 0
 -46 -290 -78 -255 -78 -209 c 0x26
-186 -374 m 0x6a
 -186 -328 -149 -295 -104 -295 c 0
 -59 -295 -22 -328 -22 -374 c 0
 -22 -419 -59 -456 -104 -456 c 0
 -149 -456 -186 -419 -186 -374 c 0x6a
136 -395 m 0
 136 -351 171 -316 214 -316 c 0
 259 -316 292 -350 292 -395 c 0
 292 -438 260 -472 214 -472 c 0xa2
 171 -472 136 -438 136 -395 c 0
136 -204 m 0
 136 -160 171 -125 214 -125 c 0
 259 -125 292 -159 292 -204 c 0
 292 -247 260 -281 214 -281 c 0
 171 -281 136 -247 136 -204 c 0
EndSplineSet
Validated: 1
Position2: "positionMoveVowelToLeft subtable" dx=-70 dy=0 dh=0 dv=0
MultipleSubs2: "AddHairspaceAfterMark subtable" hatafsegol hairspace
MultipleSubs2: "AddThinspaceAfterMark subtable" hatafsegol thinspace
EndChar

StartChar: hatafpatah
Encoding: 133 1458 75
Width: 0
VWidth: 2248
GlyphClass: 4
Flags: W
HStem: -472 156<143.058 284.932> -281 156<143.058 284.932> -258 114<-291.911 83.6146>
VStem: 136 157<-464.222 -323.898 -273.222 -132.898>
AnchorPoint: "m2m5" 570 0 basemark 0
AnchorPoint: "m2m6e" 370 0 basemark 0
AnchorPoint: "m2m2" 290 0 mark 0
AnchorPoint: "m2m1" -370 0 basemark 0
AnchorPoint: "m2bv2r" -320 0 mark 0
AnchorPoint: "HbWM" -282 0 mark 0
AnchorPoint: "HbNM" -282 0 mark 0
AnchorPoint: "m2b4c" 0 0 mark 0
LayerCount: 2
Fore
SplineSet
37 -144 m 2xb0
 82 -144 84 -147 84 -196 c 0
 84 -240 80 -258 34 -258 c 2
 -246 -258 l 1
 -288 -258 -292 -244 -292 -207 c 0
 -292 -146 -292 -144 -245 -144 c 2
 37 -144 l 2xb0
136 -395 m 0
 136 -352 167 -316 214 -316 c 0
 258 -316 293 -351 293 -395 c 0
 293 -441 256 -472 214 -472 c 0
 172 -472 136 -441 136 -395 c 0
136 -204 m 0
 136 -161 167 -125 214 -125 c 0
 258 -125 293 -160 293 -204 c 0
 293 -250 256 -281 214 -281 c 0xd0
 172 -281 136 -250 136 -204 c 0
EndSplineSet
Validated: 1
Position2: "positionMoveVowelToLeft subtable" dx=-70 dy=0 dh=0 dv=0
MultipleSubs2: "AddHairspaceAfterMark subtable" hatafpatah hairspace
MultipleSubs2: "AddThinspaceAfterMark subtable" hatafpatah thinspace
EndChar

StartChar: hatafqamats
Encoding: 134 1459 76
Width: 0
VWidth: 2248
GlyphClass: 4
Flags: W
HStem: -470 155<143.534 284.466> -279 155<143.364 284.466> -255 113<-291.697 -140.999 -67 83.6146>
VStem: -183 158<-475.633 -270.968> -141 74<-367.991 -255.234> 136 156<-462.51 -322.077 -272 -131.534>
AnchorPoint: "m2m5" 570 0 basemark 0
AnchorPoint: "m2m6e" 370 0 basemark 0
AnchorPoint: "m2m2" 290 0 mark 0
AnchorPoint: "m2m1" -370 0 basemark 0
AnchorPoint: "m2bv2r" -320 0 mark 0
AnchorPoint: "HbWM" -282 0 mark 0
AnchorPoint: "HbNM" -282 0 mark 0
AnchorPoint: "m2b4c" 0 0 mark 0
LayerCount: 2
Fore
SplineSet
37 -142 m 2xac
 82 -142 84 -145 84 -193 c 0
 84 -238 80 -255 34 -255 c 2
 -65 -255 l 1
 -67 -260 -67 -265 -67 -269 c 0xac
 -67 -311 -25 -352 -25 -397 c 3
 -25 -443 -59 -485 -104 -485 c 0
 -145 -485 -183 -447 -183 -397 c 3xb4
 -183 -352 -141 -311 -141 -269 c 0
 -141 -265 -139 -260 -141 -255 c 1
 -242 -255 l 1
 -289 -255 -292 -238 -292 -193 c 0
 -292 -146 -290 -142 -245 -142 c 2
 37 -142 l 2xac
136 -394 m 0
 136 -351 167 -315 214 -315 c 0
 261 -315 292 -351 292 -394 c 0
 292 -436 258 -470 214 -470 c 0
 170 -470 136 -436 136 -394 c 0
136 -202 m 0
 136 -158 169 -124 214 -124 c 0
 258 -124 292 -157 292 -202 c 0
 292 -248 256 -279 214 -279 c 0xc4
 172 -279 136 -248 136 -202 c 0
EndSplineSet
Validated: 1
Position2: "positionMoveVowelToLeft subtable" dx=-70 dy=0 dh=0 dv=0
MultipleSubs2: "AddHairspaceAfterMark subtable" hatafqamats hairspace
MultipleSubs2: "AddThinspaceAfterMark subtable" hatafqamats thinspace
EndChar

StartChar: hiriq
Encoding: 135 1460 77
Width: 0
VWidth: 2248
GlyphClass: 4
Flags: W
HStem: -303 156<-70.9316 70.9316>
VStem: -79 158<-295.222 -154.727>
AnchorPoint: "m2m5" 360 0 basemark 0
AnchorPoint: "m2m6e" 160 0 basemark 0
AnchorPoint: "m2m3" 80 0 mark 0
AnchorPoint: "m2m2" 80 0 mark 0
AnchorPoint: "m2m1" -160 0 basemark 0
AnchorPoint: "m2bv2left" 35 0 mark 0
AnchorPoint: "m2bvback" 0 0 mark 0
AnchorPoint: "m2bv2r" -150 0 mark 0
AnchorPoint: "VbWM" -70 0 mark 0
AnchorPoint: "VbNM" -70 0 mark 0
AnchorPoint: "m2b4a" 0 0 mark 0
LayerCount: 2
Fore
SplineSet
-79 -226 m 0
 -79 -182 -44 -147 0 -147 c 0
 44 -147 79 -182 79 -226 c 0
 79 -272 42 -303 0 -303 c 0
 -42 -303 -79 -272 -79 -226 c 0
EndSplineSet
Validated: 1
Position2: "positionMoveVowelToLeft subtable" dx=-30 dy=0 dh=0 dv=0
MultipleSubs2: "AddHairspaceAfterMark subtable" hiriq hairspace
MultipleSubs2: "AddThinspaceAfterMark subtable" hiriq thinspace
Substitution2: "Single Substitution lookup 13 subtable" hiriqmem
Ligature2: "L2ccmpCgjZwjZwnjComatibility subtable" cgj hiriq
Ligature2: "L2ccmpCgjZwjZwnjComatibility subtable" zerojoin hiriq
LCarets2: 1 0 
EndChar

StartChar: tsere
Encoding: 136 1461 78
Width: 0
VWidth: 2248
GlyphClass: 4
Flags: W
HStem: -310 164<-179.374 -34.6262 34.6262 179.374>
VStem: -188 162<-300.976 -155.024> 26 162<-300.976 -155.024>
AnchorPoint: "m2m5" 470 0 basemark 0
AnchorPoint: "m2m6e" 270 0 basemark 0
AnchorPoint: "m2m3" 190 0 mark 0
AnchorPoint: "m2m2" 190 0 mark 0
AnchorPoint: "m2m1" -270 0 basemark 0
AnchorPoint: "m2bv2left" 90 0 mark 0
AnchorPoint: "m2bvback" 0 0 mark 0
AnchorPoint: "m2bv2r" -230 0 mark 0
AnchorPoint: "VbWM" -180 0 mark 0
AnchorPoint: "VbNM" -180 0 mark 0
AnchorPoint: "m2b4b" 0 0 mark 0
LayerCount: 2
Fore
SplineSet
-188 -228 m 0
 -188 -183 -153 -146 -107 -146 c 0
 -61 -146 -26 -183 -26 -228 c 0
 -26 -273 -61 -310 -107 -310 c 0
 -153 -310 -188 -273 -188 -228 c 0
26 -228 m 0
 26 -183 61 -146 107 -146 c 0
 153 -146 188 -183 188 -228 c 0
 188 -273 153 -310 107 -310 c 0
 61 -310 26 -273 26 -228 c 0
EndSplineSet
Validated: 1
Position2: "positionMoveVowelToLeft subtable" dx=-70 dy=0 dh=0 dv=0
MultipleSubs2: "AddHairspaceAfterMark subtable" tsere hairspace
MultipleSubs2: "AddThinspaceAfterMark subtable" tsere thinspace
EndChar

StartChar: segol
Encoding: 137 1462 79
Width: 0
VWidth: 2248
GlyphClass: 4
Flags: W
HStem: -455 161<-73.9497 73.9497> -289 163<-179.188 -34.8121 34.8121 179.188>
VStem: -188 162<-280.188 -135.024> -83 166<-445.045 -303.058> 26 162<-280.188 -135.024>
AnchorPoint: "m2m5" 470 0 basemark 0
AnchorPoint: "m2m6e" 270 0 basemark 0
AnchorPoint: "m2m2" 190 0 mark 0
AnchorPoint: "m2m1" -270 0 basemark 0
AnchorPoint: "m2bv2left" 90 0 mark 0
AnchorPoint: "m2bvback" 0 0 mark 0
AnchorPoint: "m2bv2r" -230 0 mark 0
AnchorPoint: "VbWM" -180 0 mark 0
AnchorPoint: "VbNM" -180 0 mark 0
AnchorPoint: "m2b4b" 0 0 mark 0
LayerCount: 2
Fore
SplineSet
-188 -208 m 0xe0
 -188 -163 -153 -126 -107 -126 c 0
 -61 -126 -26 -163 -26 -208 c 0
 -26 -253 -62 -289 -107 -289 c 0
 -152 -289 -188 -253 -188 -208 c 0xe0
26 -208 m 0xc8
 26 -163 61 -126 107 -126 c 0
 153 -126 188 -163 188 -208 c 0
 188 -253 152 -289 107 -289 c 0
 62 -289 26 -253 26 -208 c 0xc8
-83 -373 m 0xd0
 -83 -327 -46 -294 0 -294 c 0
 46 -294 83 -327 83 -373 c 0
 83 -418 46 -455 0 -455 c 0
 -46 -455 -83 -418 -83 -373 c 0xd0
EndSplineSet
Validated: 1
Position2: "positionMoveVowelToLeft subtable" dx=-70 dy=0 dh=0 dv=0
MultipleSubs2: "AddHairspaceAfterMark subtable" segol hairspace
MultipleSubs2: "AddThinspaceAfterMark subtable" segol thinspace
EndChar

StartChar: patah
Encoding: 138 1463 80
Width: 0
VWidth: 2248
GlyphClass: 4
Flags: W
HStem: -266 114<-168.93 168.716>
VStem: -169 338<-266 -152>
AnchorPoint: "m2m5" 470 0 basemark 0
AnchorPoint: "m2m6e" 270 0 basemark 0
AnchorPoint: "m2m3" 190 0 mark 0
AnchorPoint: "m2m2" 190 0 mark 0
AnchorPoint: "m2m1" -270 0 basemark 0
AnchorPoint: "m2bv2left" 90 0 mark 0
AnchorPoint: "m2bvback" 0 0 mark 0
AnchorPoint: "m2bv2r" -230 0 mark 0
AnchorPoint: "VbWM" -180 0 mark 0
AnchorPoint: "VbNM" -180 0 mark 0
AnchorPoint: "m2bpg" 0 0 mark 0
AnchorPoint: "m2b4b" 0 0 mark 0
LayerCount: 2
Fore
SplineSet
127 -152 m 2
 167 -152 169 -155 169 -204 c 0
 169 -248 166 -266 124 -266 c 2
 -128 -266 l 1
 -166 -266 -169 -252 -169 -215 c 0
 -169 -154 -169 -152 -127 -152 c 2
 127 -152 l 2
EndSplineSet
Validated: 1
Position2: "positionMoveVowelToLeft subtable" dx=-70 dy=0 dh=0 dv=0
MultipleSubs2: "AddHairspaceAfterMark subtable" patah hairspace
MultipleSubs2: "AddThinspaceAfterMark subtable" patah thinspace
EndChar

StartChar: qamats
Encoding: 139 1464 81
Width: 0
VWidth: 2248
GlyphClass: 4
Flags: W
HStem: -239 113<-168.773 -36.9986 37 168.716>
VStem: -79 158<-459.633 -254.968> -37 74<-351.991 -239.234>
AnchorPoint: "m2m5" 470 0 basemark 0
AnchorPoint: "m2m6e" 270 0 basemark 0
AnchorPoint: "m2m2" 190 0 mark 0
AnchorPoint: "m2m1" -270 0 basemark 0
AnchorPoint: "m2bv2left" 90 0 mark 0
AnchorPoint: "m2bvback" 0 0 mark 0
AnchorPoint: "m2bv2r" -230 0 mark 0
AnchorPoint: "VbWM" -180 0 mark 0
AnchorPoint: "VbNM" -180 0 mark 0
AnchorPoint: "m2b4b" 0 0 mark 0
LayerCount: 2
Fore
SplineSet
127 -126 m 2xa0
 167 -126 169 -129 169 -177 c 0
 169 -222 166 -239 124 -239 c 2
 39 -239 l 1
 37 -244 37 -249 37 -253 c 0xa0
 37 -295 79 -336 79 -381 c 3
 79 -427 45 -469 0 -469 c 0
 -41 -469 -79 -431 -79 -381 c 3xc0
 -79 -336 -37 -295 -37 -253 c 0
 -37 -249 -35 -244 -37 -239 c 1
 -124 -239 l 1
 -167 -239 -169 -222 -169 -177 c 0
 -169 -130 -167 -126 -127 -126 c 2
 127 -126 l 2xa0
EndSplineSet
Validated: 1
Position2: "positionMoveVowelToLeft subtable" dx=-70 dy=0 dh=0 dv=0
MultipleSubs2: "AddHairspaceAfterMark subtable" qamats
MultipleSubs2: "AddThinspaceAfterMark subtable" qamats
Substitution2: "ShevaAndQamatsForFinalkaf subtable" qamats_for_finalkaf
EndChar

StartChar: holam
Encoding: 140 1465 82
Width: 0
VWidth: 2248
GlyphClass: 4
Flags: W
HStem: 1252 170<-74.1846 74.1846>
VStem: -85 170<1262.25 1411.35>
AnchorPoint: "m2m8" -165 0 basemark 0
AnchorPoint: "m2b7d" 0 0 mark 0
AnchorPoint: "m2b7c" 0 0 mark 0
AnchorPoint: "m2b7b" 0 0 mark 0
AnchorPoint: "m2b7a" 0 0 mark 0
LayerCount: 2
Fore
SplineSet
-85 1337 m 0
 -85 1382 -49 1422 0 1422 c 0
 49 1422 85 1382 85 1337 c 0
 85 1290 48 1252 0 1252 c 0
 -48 1252 -85 1290 -85 1337 c 0
EndSplineSet
Validated: 1
EndChar

StartChar: qubuts
Encoding: 142 1467 84
Width: 0
VWidth: 2248
GlyphClass: 4
Flags: W
HStem: -496 155<130.727 273.273> -389 155<-13.2728 129.273> -277 155<-157.443 -14.5567>
VStem: -165 158<-269.681 -129.557> -21 158<-381.488 -241.023> 123 158<-488.681 -348.557>
AnchorPoint: "m2bv2r" -230 0 mark 0
AnchorPoint: "m2m5" 560 0 basemark 0
AnchorPoint: "m2m6e" 360 0 basemark 0
AnchorPoint: "m2m2" 270 0 mark 0
AnchorPoint: "m2m1" -245 0 basemark 0
AnchorPoint: "m2bv2left" 60 0 mark 0
AnchorPoint: "m2bvback" 0 0 mark 0
AnchorPoint: "VbWM" -155 0 mark 0
AnchorPoint: "VbNM" -155 0 mark 0
AnchorPoint: "m2b4b" -20 0 mark 0
LayerCount: 2
Fore
SplineSet
123 -420 m 0x84
 123 -375 157 -341 202 -341 c 0
 247 -341 281 -375 281 -420 c 0
 281 -463 246 -496 202 -496 c 0
 158 -496 123 -463 123 -420 c 0x84
-165 -201 m 0x30
 -165 -156 -131 -122 -86 -122 c 0
 -41 -122 -7 -156 -7 -201 c 0
 -7 -244 -40 -277 -86 -277 c 0
 -132 -277 -165 -244 -165 -201 c 0x30
-21 -312 m 0x48
 -21 -265 15 -234 58 -234 c 0
 101 -234 137 -265 137 -312 c 0
 137 -355 102 -389 58 -389 c 0
 14 -389 -21 -355 -21 -312 c 0x48
EndSplineSet
Validated: 1
Position2: "positionMoveVowelToLeft subtable" dx=-70 dy=0 dh=0 dv=0
MultipleSubs2: "AddHairspaceAfterMark subtable" qubuts hairspace
MultipleSubs2: "AddThinspaceAfterMark subtable" qubuts thinspace
EndChar

StartChar: dagesh
Encoding: 143 1468 85
Width: 0
VWidth: 2248
GlyphClass: 4
Flags: W
HStem: 455 173<-74.1846 74.1846>
VStem: -85 170<465.913 617.117>
AnchorPoint: "m2b2" 0 0 mark 0
LayerCount: 2
Fore
SplineSet
-85 542 m 0
 -85 587 -49 628 0 628 c 0
 49 628 85 587 85 542 c 0
 85 496 49 455 0 455 c 0
 -49 455 -85 496 -85 542 c 0
EndSplineSet
Validated: 1
EndChar

StartChar: meteg
Encoding: 144 1469 86
Width: 0
VWidth: 2248
GlyphClass: 4
Flags: W
HStem: -470 344<-58.9955 58.9955>
VStem: -59 118<-469.993 -126.007>
AnchorPoint: "m2m6c" 800 0 basemark 0
AnchorPoint: "m2m6b" 600 0 basemark 0
AnchorPoint: "m2m6a" 380 0 basemark 0
AnchorPoint: "m2m4" 60 0 mark 0
AnchorPoint: "m2m4" -140 0 basemark 0
AnchorPoint: "m2m2" -140 0 basemark 0
AnchorPoint: "m2m1" 60 0 mark 0
AnchorPoint: "m2bv2left" 25 0 mark 0
AnchorPoint: "m2bv2left" 35 0 mark 0
AnchorPoint: "m2bv2r" -150 0 mark 0
AnchorPoint: "m2b4a" 0 0 mark 0
AnchorPoint: "m2m6b" 35 0 mark 0
LayerCount: 2
Fore
SplineSet
-59 -172 m 2
 -59 -132 -57 -126 -13 -126 c 0
 -9 -126 -5 -126 0 -126 c 0
 4 -126 8 -126 11 -126 c 0
 53 -126 59 -128 59 -172 c 2
 59 -424 l 2
 59 -464 57 -470 13 -470 c 0
 9 -470 5 -470 0 -470 c 0
 -4 -470 -8 -470 -11 -470 c 0
 -53 -470 -59 -468 -59 -424 c 2
 -59 -172 l 2
EndSplineSet
Validated: 1
LCarets2: 1 0 
Position2: "Single Positioning lookup 29 subtable" dx=214 dy=0 dh=0 dv=0
Position2: "Single Positioning lookup 28 subtable" dx=360 dy=0 dh=0 dv=0
Position2: "Single Positioning lookup 27 subtable" dx=494 dy=0 dh=0 dv=0
Position2: "Single Positioning lookup 23 subtable" dx=200 dy=0 dh=0 dv=0
Position2: "positionMoveVowelToLeft subtable" dx=-30 dy=0 dh=0 dv=0
MultipleSubs2: "AddHairspaceAfterMark subtable" meteg hairspace
MultipleSubs2: "AddThinspaceAfterMark subtable" meteg thinspace
Ligature2: "L2ccmpCgjZwjZwnjComatibility subtable" cgj meteg
Ligature2: "L2ccmpCgjZwjZwnjComatibility subtable" meteg cgj
Ligature2: "L2ccmpCgjZwjZwnjComatibility subtable" zerononjoin meteg
EndChar

StartChar: makaf
Encoding: 145 1470 87
Width: 1029
VWidth: 2248
GlyphClass: 2
Flags: W
HStem: 899 208<202.979 829.292>
AnchorPoint: "m2b8a" 515 0 basechar 0
AnchorPoint: "m2b8b" 295 0 basechar 0
AnchorPoint: "m2b8c" 785 0 basechar 0
LayerCount: 2
Fore
SplineSet
194 899 m 2
 186 899 l 0
 153 899 131 902 131 925 c 0
 131 937 131 948 155 987 c 2
 180 1028 l 2
 228 1106 229 1107 325 1107 c 2
 822 1107 l 2
 878 1107 904 1105 904 1081 c 0
 904 1068 896 1054 876 1018 c 2
 853 979 l 1
 805 907 812 899 723 899 c 2
 194 899 l 2
EndSplineSet
Validated: 1
EndChar

StartChar: rafe
Encoding: 146 1471 88
Width: 0
VWidth: 2248
GlyphClass: 4
Flags: W
HStem: 1290 145<-186.344 189.531>
VStem: -214 428<1295.7 1428.02>
AnchorPoint: "m2mrafe" 0 200 basemark 0
AnchorPoint: "m2b3" 0 0 mark 0
LayerCount: 2
Fore
SplineSet
181 1435 m 2
 189 1435 214 1436 214 1414 c 0
 214 1407 211 1400 209 1397 c 2
 185 1318 l 1
 181 1306 170 1290 151 1290 c 2
 -180 1290 l 2
 -193 1290 -214 1292 -214 1313 c 0
 -214 1319 -212 1324 -209 1330 c 2
 -180 1408 l 2
 -174 1423 -169 1435 -151 1435 c 2
 181 1435 l 2
EndSplineSet
Validated: 1
EndChar

StartChar: paseq
Encoding: 147 1472 89
Width: 383
VWidth: 2248
GlyphClass: 2
Flags: W
VStem: 156 73<-22 1139>
LayerCount: 2
Fore
SplineSet
156 1139 m 1
 229 1139 l 1
 229 -22 l 1
 156 -22 l 1
 156 1139 l 1
EndSplineSet
Validated: 1
EndChar

StartChar: shindot
Encoding: 148 1473 90
Width: 0
VWidth: 2248
GlyphClass: 4
Flags: W
HStem: 1165 170<-74.1846 74.1846>
VStem: -85 170<1175.25 1324.35>
AnchorPoint: "m2b0" -435 0 mark 0
LayerCount: 2
Fore
SplineSet
-85 1250 m 0
 -85 1295 -49 1335 0 1335 c 0
 49 1335 85 1295 85 1250 c 0
 85 1203 48 1165 0 1165 c 0
 -48 1165 -85 1203 -85 1250 c 0
EndSplineSet
Validated: 1
EndChar

StartChar: sofpasuq
Encoding: 150 1475 92
Width: 593
VWidth: 2248
GlyphClass: 2
Flags: W
VStem: 129 343<187.316 288.653 876.768 979.706>
LayerCount: 2
Fore
SplineSet
302 62 m 0
 240 62 295 112 153 195 c 1
 138 202 129 214 129 226 c 0
 129 256 148 272 156 277 c 0
 197 305 237 329 261 377 c 1
 268 395 284 406 302 406 c 0
 319 406 334 396 341 379 c 0
 365 330 406 307 447 278 c 0
 463 267 472 248 472 230 c 0
 472 190 377 183 343 88 c 1
 335 71 319 62 302 62 c 0
302 758 m 0
 285 758 269 771 262 792 c 0
 228 879 129 866 129 935 c 0
 129 948 139 960 156 968 c 1
 198 998 237 1023 261 1077 c 0
 269 1095 285 1104 302 1104 c 0
 319 1104 334 1094 341 1077 c 0
 366 1025 406 1000 447 970 c 1
 470 959 473 945 473 937 c 0
 473 867 379 883 342 791 c 0
 335 770 319 758 302 758 c 0
EndSplineSet
Validated: 1
EndChar

StartChar: upperdot
Encoding: 151 1476 93
Width: 0
VWidth: 2248
GlyphClass: 4
Flags: W
HStem: 1400 232<-47.7899 47.8409>
VStem: -104 209<1455.62 1571.99>
AnchorPoint: "m2b1" 0 -110 mark 0
LayerCount: 2
Fore
SplineSet
59 1454 m 0
 35 1429 20 1400 0 1400 c 0
 -5 1400 -11 1402 -16 1406 c 0
 -26 1413 -41 1436 -59 1454 c 1
 -92 1489 -104 1491 -104 1510 c 0
 -104 1531 -88 1540 -61 1572 c 0
 -27 1613 -13 1632 0 1632 c 0
 14 1632 27 1612 61 1572 c 0
 91 1537 105 1522 105 1509 c 0
 105 1496 89 1485 59 1454 c 0
EndSplineSet
Validated: 1
EndChar

StartChar: lowerdot
Encoding: 152 1477 94
Width: 0
VWidth: 2248
GlyphClass: 4
Flags: W
HStem: -508 232<-47.7899 47.8409>
VStem: -104 209<-452.383 -336.01>
AnchorPoint: "m2b1" 0 75 mark 0
LayerCount: 2
Fore
SplineSet
59 -454 m 0
 35 -479 20 -508 0 -508 c 0
 -5 -508 -11 -506 -16 -502 c 0
 -26 -495 -41 -472 -59 -454 c 1
 -92 -419 -104 -417 -104 -398 c 0
 -104 -377 -88 -368 -61 -336 c 0
 -27 -295 -13 -276 0 -276 c 0
 14 -276 27 -296 61 -336 c 0
 91 -371 105 -386 105 -399 c 0
 105 -412 89 -423 59 -454 c 0
EndSplineSet
Validated: 1
EndChar

StartChar: nunhapukha
Encoding: 153 1478 95
Width: 759
VWidth: 2248
GlyphClass: 2
Flags: W
HStem: 0 314<307.198 581.185>
VStem: 184 99<314 685.531> 230 61<517.599 719.329>
AnchorPoint: "m2b8a" 345 0 basechar 0
AnchorPoint: "m2b8b" 235 0 basechar 0
AnchorPoint: "m2b8c" 480 0 basechar 0
AnchorPoint: "m2b1" 350 0 basechar 0
LayerCount: 2
Fore
SplineSet
293 469 m 3xa0
 293 390 283 351 283 332 c 0
 283 316 290 314 316 314 c 2
 421 314 l 2
 561 314 565 312 638 171 c 0
 676 98 696 56 696 32 c 0
 696 1 661 0 580 0 c 2
 463 0 l 2
 334 0 328 0 280 92 c 2
 188 268 l 2
 184 278 181 289 181 302 c 0
 181 319 184 336 184 356 c 0xc0
 184 522 230 599 230 718 c 1
 225 720 221 720 218 720 c 0
 197 720 165 704 142 704 c 0
 126 704 114 712 114 738 c 0
 114 751 118 767 118 780 c 0
 118 835 143 907 159 960 c 0
 190 1060 401 1098 456 1123 c 1
 487 1141 482 1202 506 1202 c 0
 509 1202 512 1201 516 1199 c 0
 557 1180 558 977 558 957 c 0
 558 955 l 3
 558 781 383 767 332 747 c 0
 295 733 291 732 291 659 c 0
 291 619 293 560 293 469 c 3xa0
EndSplineSet
Validated: 1
EndChar

StartChar: qamatsqatan
Encoding: 154 1479 96
Width: 0
VWidth: 2248
GlyphClass: 4
Flags: W
HStem: -229 113<-152.944 -41 39 152.913>
VStem: -79 154<-519.174 -229.484> -41 80<-436.795 -229>
AnchorPoint: "m2m5" 470 0 basemark 0
AnchorPoint: "m2m6e" 270 0 basemark 0
AnchorPoint: "m2m2" 190 0 mark 0
AnchorPoint: "m2m1" -270 0 basemark 0
AnchorPoint: "m2bv2left" 90 0 mark 0
AnchorPoint: "m2bvback" 0 0 mark 0
AnchorPoint: "m2bv2r" -230 0 mark 0
AnchorPoint: "VbWM" -180 0 mark 0
AnchorPoint: "VbNM" -180 0 mark 0
AnchorPoint: "m2b4b" 0 0 mark 0
LayerCount: 2
Fore
SplineSet
113 -116 m 2xa0
 149 -116 153 -120 153 -167 c 0
 153 -172 l 0
 153 -211 152 -229 114 -229 c 1
 39 -229 l 1
 39 -238 39 -255 39 -260 c 0xa0
 39 -405 75 -370 75 -440 c 0
 75 -483 46 -529 0 -529 c 0
 -45 -529 -79 -484 -79 -440 c 0xc0
 -79 -371 -41 -403 -41 -260 c 0
 -41 -249 -41 -236 -41 -229 c 1
 -114 -229 l 1
 -152 -229 -153 -213 -153 -174 c 0
 -153 -169 l 0
 -153 -122 -149 -118 -113 -118 c 2
 113 -116 l 2xa0
EndSplineSet
Validated: 1
Position2: "positionMoveVowelToLeft subtable" dx=-70 dy=0 dh=0 dv=0
MultipleSubs2: "AddHairspaceAfterMark subtable" qamatsqatan hairspace
MultipleSubs2: "AddThinspaceAfterMark subtable" qamatsqatan thinspace
EndChar

StartChar: alef
Encoding: 155 1488 97
Width: 1123
VWidth: 2248
GlyphClass: 2
Flags: W
HStem: 0 21G<164 371.5>
VStem: 127 171<309.5 509.587> 148 163<1013.97 1087.77> 230 279<81.5466 217.484>
AnchorPoint: "m2b10" -275 0 basechar 0
AnchorPoint: "m2b9" 700 0 basechar 0
AnchorPoint: "m2b8a" 545 0 basechar 0
AnchorPoint: "m2b8b" 270 0 basechar 0
AnchorPoint: "m2b8c" 870 0 basechar 0
AnchorPoint: "m2b7c" -220 0 basechar 0
AnchorPoint: "m2b7b" 305 0 basechar 0
AnchorPoint: "m2b7a" 205 0 basechar 0
AnchorPoint: "m2b5a" 595 0 basechar 0
AnchorPoint: "m2b5b" 885 0 basechar 0
AnchorPoint: "m2bv2r" 566 0 basechar 0
AnchorPoint: "HbWM" 390 0 basechar 0
AnchorPoint: "HbNM" 330 0 basechar 0
AnchorPoint: "VbWM" 550 0 basechar 0
AnchorPoint: "VbNM" 490 0 basechar 0
AnchorPoint: "m2b4a" 595 0 basechar 0
AnchorPoint: "m2b4b" 595 0 basechar 0
AnchorPoint: "m2b4c" 595 0 basechar 0
AnchorPoint: "m2b4d" 550 0 basechar 0
AnchorPoint: "m2b3" 545 0 basechar 0
AnchorPoint: "m2b1" 545 0 basechar 0
LayerCount: 2
Fore
SplineSet
148 922 m 27xa0
 148 1044 252 1205 283 1205 c 0
 296 1205 306 1187 311 1142 c 0xa0
 333 953 528 797 719 629 c 9
 789 725 l 25
 691 834 l 17
 667 864 656 897 656 930 c 0
 656 973 674 1018 699 1056 c 8
 740 1118 788 1210 811 1210 c 3
 824 1210 828 1202 828 1190 c 0
 828 1174 820 1150 820 1128 c 0
 820 1045 1024 961 1024 864 c 0
 1024 803 943 719 892 626 c 25
 839 686 l 25
 771 591 l 25
 912 452 l 17
 975 388 996 311 996 239 c 0
 996 102 917 -22 881 -22 c 0
 867 -22 854 -6 840 37 c 0
 753 292 543 355 398 519 c 9
 377 534 371 558 345 558 c 27
 309 558 298 504 298 479 c 3xc0
 298 369 509 380 509 171 c 3x90
 509 84 388 0 355 0 c 10
 176 0 l 18
 152 0 127 8 127 31 c 27xc0
 127 89 230 62 230 140 c 3x90
 230 185 127 259 127 360 c 0xc0
 127 482 197 559 294 622 c 1
 209 717 148 792 148 922 c 27xa0
EndSplineSet
Validated: 1
MultipleSubs2: "Addhairspacebeforeletter subtable" hairspace alef
MultipleSubs2: "Addthinspacebeforeletter subtable" thinspace alef
MultipleSubs2: "AddHairspaceAfterMark subtable" alef hairspace
MultipleSubs2: "AddThinspaceAfterMark subtable" alef thinspace
Substitution2: "jaltWideLetterAlternativesinHeb subtable" alef.wide
EndChar

StartChar: bet
Encoding: 156 1489 98
Width: 1015
VWidth: 2248
GlyphClass: 2
Flags: W
HStem: 0 296<180.578 709.887> 824 301<240.444 670.077>
VStem: 714 130<296.079 783.118>
AnchorPoint: "m2b10" -275 0 basechar 0
AnchorPoint: "m2b9" 665 0 basechar 0
AnchorPoint: "m2b8a" 500 0 basechar 0
AnchorPoint: "m2b8b" 170 0 basechar 0
AnchorPoint: "m2b8c" 790 0 basechar 0
AnchorPoint: "m2b7c" -220 0 basechar 0
AnchorPoint: "m2b7b" 230 0 basechar 0
AnchorPoint: "m2b7a" 125 0 basechar 0
AnchorPoint: "m2b5a" 510 0 basechar 0
AnchorPoint: "m2b5b" 790 0 basechar 0
AnchorPoint: "m2bv2r" 503 0 basechar 0
AnchorPoint: "VbWM" 460 0 basechar 0
AnchorPoint: "VbNM" 400 0 basechar 0
AnchorPoint: "m2b4a" 510 0 basechar 0
AnchorPoint: "m2b4b" 510 0 basechar 0
AnchorPoint: "m2b4c" 510 0 basechar 0
AnchorPoint: "m2b4d" 490 0 basechar 0
AnchorPoint: "m2b3" 500 0 basechar 0
AnchorPoint: "m2b1" 500 0 basechar 0
LayerCount: 2
Fore
SplineSet
935 209 m 10
 862 91 l 18
 805 0 811 0 705 0 c 10
 119 0 l 18
 70 0 46 1 46 19 c 0
 46 31 59 53 81 89 c 10
 150 202 l 17
 199 287 204 296 298 296 c 0
 305 296 313 296 321 296 c 2
 662 293 l 2
 714 293 714 294 714 354 c 10
 714 655 l 18
 714 730 696 821 546 821 c 10
 450 824 l 18
 281 829 175 848 175 988 c 10
 175 1089 l 18
 175 1113 176 1140 179 1165 c 0
 186 1213 222 1219 237 1169 c 0
 250 1126 252 1125 306 1125 c 2
 576 1125 l 2
 745 1125 844 1001 844 903 c 10
 844 329 l 18
 844 294 844 296 868 296 c 2
 924 296 l 2
 958 296 974 295 974 283 c 0
 974 272 960 250 935 209 c 10
EndSplineSet
Validated: 1
MultipleSubs2: "Addhairspacebeforeletter subtable" hairspace bet
MultipleSubs2: "Addthinspacebeforeletter subtable" thinspace bet
MultipleSubs2: "AddHairspaceAfterMark subtable" bet hairspace
MultipleSubs2: "AddThinspaceAfterMark subtable" bet thinspace
EndChar

StartChar: gimel
Encoding: 157 1490 99
Width: 700
VWidth: 2248
GlyphClass: 2
Flags: W
HStem: 0 296<190.209 359.431>
VStem: 229 329<809.6 1043.34> 427 125<298.452 755.063> 457 126<26.4964 180.906>
AnchorPoint: "m2b10" -275 0 basechar 0
AnchorPoint: "m2b9" 560 0 basechar 0
AnchorPoint: "m2b8a" 405 0 basechar 0
AnchorPoint: "m2b8b" 280 0 basechar 0
AnchorPoint: "m2b8c" 540 0 basechar 0
AnchorPoint: "m2b7d" 50 0 basechar 0
AnchorPoint: "m2b7c" -220 0 basechar 0
AnchorPoint: "m2b7b" 290 0 basechar 0
AnchorPoint: "m2b7a" 190 0 basechar 0
AnchorPoint: "m2b5a" 350 0 basechar 0
AnchorPoint: "m2b5b" 510 0 basechar 0
AnchorPoint: "m2bv2r" 322 0 basechar 0
AnchorPoint: "VbWM" 360 0 basechar 0
AnchorPoint: "VbNM" 300 0 basechar 0
AnchorPoint: "m2b4a" 350 0 basechar 0
AnchorPoint: "m2b4b" 350 0 basechar 0
AnchorPoint: "m2b4c" 350 0 basechar 0
AnchorPoint: "m2b4d" 350 0 basechar 0
AnchorPoint: "m2b3" 405 0 basechar 0
AnchorPoint: "m2b1" 405 0 basechar 0
LayerCount: 2
Fore
SplineSet
498 -4 m 0xc0
 485 -4 457 11 457 38 c 0x90
 457 97 454 111 454 164 c 0
 454 179 450 184 445 184 c 3
 439 184 431 174 424 160 c 2
 368 58 l 2
 336 0 338 0 277 0 c 1
 36 0 l 1
 178 233 l 2
 215 293 212 296 276 296 c 2
 344 296 l 2
 405 296 398 301 405 341 c 0
 425 467 427 548 427 663 c 0xa0
 427 732 419 739 352 771 c 0
 300 795 229 792 229 962 c 3
 229 1042 239 1203 270 1203 c 0
 288 1203 284 1145 318 1125 c 0
 363 1100 402 1100 445 1086 c 0
 499 1068 558 1014 558 955 c 0xc0
 558 793 552 667 552 544 c 0xa0
 552 296 583 192 583 118 c 0x90
 583 84 576 57 558 25 c 0
 548 8 507 -4 498 -4 c 0xc0
EndSplineSet
Validated: 1
MultipleSubs2: "Addhairspacebeforeletter subtable" hairspace gimel
MultipleSubs2: "Addthinspacebeforeletter subtable" thinspace gimel
MultipleSubs2: "AddHairspaceAfterMark subtable" gimel hairspace
MultipleSubs2: "AddThinspaceAfterMark subtable" gimel thinspace
EndChar

StartChar: dalet
Encoding: 158 1491 100
Width: 1079
VWidth: 2248
GlyphClass: 2
Flags: W
HStem: 0 21G<809.5 818.5> 823 302<173.897 736.764>
VStem: 108 860<874.533 1069.36> 728 162<17.6449 664.293> 737 124<249.678 817.541>
AnchorPoint: "m2b10" -275 0 basechar 0
AnchorPoint: "m2b9" 695 0 basechar 0
AnchorPoint: "m2b8a" 520 0 basechar 0
AnchorPoint: "m2b8b" 120 0 basechar 0
AnchorPoint: "m2b8c" 885 0 basechar 0
AnchorPoint: "m2b7c" -220 0 basechar 0
AnchorPoint: "m2b7b" 160 0 basechar 0
AnchorPoint: "m2b7a" 60 0 basechar 0
AnchorPoint: "m2b5a" 790 0 basechar 0
AnchorPoint: "m2b5b" 895 0 basechar 0
AnchorPoint: "m2bv2left" 799 0 basechar 0
AnchorPoint: "m2b4a" 830 0 basechar 0
AnchorPoint: "m2b4b" 830 0 basechar 0
AnchorPoint: "m2b4c" 780 0 basechar 0
AnchorPoint: "m2b4d" 560 0 basechar 0
AnchorPoint: "m2b3" 520 0 basechar 0
AnchorPoint: "m2b1" 520 0 basechar 0
LayerCount: 2
Fore
SplineSet
384 823 m 18xc8
 215 824 108 848 108 988 c 10
 108 1089 l 18
 108 1113 110 1140 113 1165 c 0
 120 1213 156 1219 171 1169 c 0
 184 1126 186 1125 240 1125 c 2
 778 1125 l 2
 891 1125 930 1076 944 1027 c 1
 957 946 l 2
 964 908 968 877 968 854 c 0xe0
 968 819 953 793 945 793 c 1
 938 792 929 796 919 808 c 0
 905 826 866 824 861 816 c 1
 861 708 l 2xc8
 861 522 864 329 890 161 c 1
 890 18 821 0 816 0 c 0
 803 0 728 17 728 64 c 0xd0
 728 187 737 544 737 693 c 2
 737 761 l 2
 737 815 734 823 679 823 c 10
 384 823 l 18xc8
EndSplineSet
Validated: 1
MultipleSubs2: "Addhairspacebeforeletter subtable" hairspace dalet
MultipleSubs2: "Addthinspacebeforeletter subtable" thinspace dalet
MultipleSubs2: "AddHairspaceAfterMark subtable" dalet hairspace
MultipleSubs2: "AddThinspaceAfterMark subtable" dalet thinspace
Substitution2: "jaltWideLetterAlternativesinHeb subtable" dalet.wide
EndChar

StartChar: he
Encoding: 159 1492 101
Width: 1141
VWidth: 2248
GlyphClass: 2
Flags: W
HStem: -12 33G<159 169.5 893.5 902.5> 821 304<198.897 819.828 946 986.425>
VStem: 133 887<873.637 1095.51> 152 166<91.5488 594.887> 812 161<15.7251 654.529> 820 126<240.459 820.807>
AnchorPoint: "m2b10" -275 0 basechar 0
AnchorPoint: "m2b9" 698.9 -0.212097 basechar 0
AnchorPoint: "m2b8a" 545 0 basechar 0
AnchorPoint: "m2b8b" 150 0 basechar 0
AnchorPoint: "m2b8c" 960 0 basechar 0
AnchorPoint: "m2b7c" -220 0 basechar 0
AnchorPoint: "m2b7b" 185 0 basechar 0
AnchorPoint: "m2b7a" 85 0 basechar 0
AnchorPoint: "m2b5a" 560 0 basechar 0
AnchorPoint: "m2b5b" 915 0 basechar 0
AnchorPoint: "m2bv2r" 529 0 basechar 0
AnchorPoint: "HbWM" 340 0 basechar 0
AnchorPoint: "HbNM" 280 0 basechar 0
AnchorPoint: "VbWM" 520 0 basechar 0
AnchorPoint: "VbNM" 460 0 basechar 0
AnchorPoint: "m2bpg" 1000 0 basechar 0
AnchorPoint: "m2b4a" 560 0 basechar 0
AnchorPoint: "m2b4b" 560 0 basechar 0
AnchorPoint: "m2b4c" 560 0 basechar 0
AnchorPoint: "m2b4d" 560 0 basechar 0
AnchorPoint: "m2b3" 540 0 basechar 0
AnchorPoint: "m2b1" 540 0 basechar 0
LayerCount: 2
Fore
SplineSet
409 821 m 2xc4
 240 821 133 848 133 988 c 10
 133 1089 l 18
 133 1113 135 1140 138 1165 c 0
 145 1213 181 1219 196 1169 c 0
 209 1126 211 1125 265 1125 c 2
 866 1125 l 2
 979 1125 986 1090 1000 1041 c 1
 1013 959 l 2
 1020 921 1020 890 1020 867 c 0xe0
 1020 832 1005 806 997 806 c 1
 990 805 988 821 970 821 c 0
 952 821 946 818 946 796 c 2
 946 707 l 2xc4
 946 521 947 328 973 160 c 1
 973 17 905 0 900 0 c 0
 887 0 812 17 812 64 c 0xc8
 812 187 820 544 820 693 c 2
 820 761 l 2
 820 815 817 821 762 821 c 2
 409 821 l 2xc4
318 572 m 10xd0
 318 214 l 18
 318 122 273 90 219 35 c 1
 190 4 174 -12 165 -12 c 0
 153 -12 152 16 152 76 c 10
 152 467 l 18
 152 550 152 549 206 605 c 0
 235 634 294 681 304 681 c 0
 318 681 318 646 318 572 c 10xd0
EndSplineSet
Validated: 1
MultipleSubs2: "Addhairspacebeforeletter subtable" hairspace he
MultipleSubs2: "Addthinspacebeforeletter subtable" thinspace he
MultipleSubs2: "AddHairspaceAfterMark subtable" he hairspace
MultipleSubs2: "AddThinspaceAfterMark subtable" he thinspace
Substitution2: "jaltWideLetterAlternativesinHeb subtable" he.wide
EndChar

StartChar: vav
Encoding: 160 1493 102
Width: 589
VWidth: 2248
GlyphClass: 2
Flags: W
HStem: -15 21G<375 385.5>
VStem: 112 335<809.861 1029.36> 296 152<-3.96484 545.193> 325 120<199.247 747.117>
AnchorPoint: "m2b10" -275 0 basechar 0
AnchorPoint: "m2b9" 450 0 basechar 0
AnchorPoint: "m2b8a" 249 6 basechar 0
AnchorPoint: "m2b8b" 155 0 basechar 0
AnchorPoint: "m2b8c" 455 0 basechar 0
AnchorPoint: "m2b7d" -65 0 basechar 0
AnchorPoint: "m2b7c" -220 0 basechar 0
AnchorPoint: "m2b7b" 175 0 basechar 0
AnchorPoint: "m2b7a" 75 0 basechar 0
AnchorPoint: "m2b5a" 375 0 basechar 0
AnchorPoint: "m2b5b" 480 0 basechar 0
AnchorPoint: "m2bv2left" 370 0 basechar 0
AnchorPoint: "VbWM" 319 6 basechar 0
AnchorPoint: "VbNM" 269 6 basechar 0
AnchorPoint: "m2b4a" 370 0 basechar 0
AnchorPoint: "m2b4b" 370 0 basechar 0
AnchorPoint: "m2b4c" 370 0 basechar 0
AnchorPoint: "m2b4d" 259 6 basechar 0
AnchorPoint: "m2b1" 249 6 basechar 0
LayerCount: 2
Fore
SplineSet
448 130 m 0xa0
 448 107 448 76 440 42 c 0
 437 31 429 21 422 14 c 0
 404 -6 390 -15 381 -15 c 0
 369 -15 296 -11 296 25 c 2
 296 56 l 1xa0
 305 166 325 537 325 652 c 0x90
 325 721 319 730 252 762 c 0
 200 786 112 783 112 953 c 3xc0
 112 1033 122 1194 153 1194 c 0
 171 1194 167 1136 201 1116 c 0
 246 1091 282 1091 325 1077 c 0x90
 379 1059 447 1007 447 948 c 0xc0
 447 786 445 656 445 533 c 0x90
 445 289 448 157 448 130 c 0xa0
EndSplineSet
Validated: 1
MultipleSubs2: "Addhairspacebeforeletter subtable" hairspace vav
MultipleSubs2: "Addthinspacebeforeletter subtable" thinspace vav
MultipleSubs2: "AddHairspaceAfterMark subtable" vav hairspace
MultipleSubs2: "AddThinspaceAfterMark subtable" vav thinspace
EndChar

StartChar: zayin
Encoding: 161 1494 103
Width: 572
VWidth: 2248
GlyphClass: 2
Flags: W
HStem: -20 21G<230.5 246>
VStem: 116 353<833.5 1007.55> 178 130<350.374 681.34> 196 146<4.67078 237.376>
AnchorPoint: "m2b10" -275 0 basechar 0
AnchorPoint: "m2b9" 475 0 basechar 0
AnchorPoint: "m2b8a" 320 0 basechar 0
AnchorPoint: "m2b8b" 205 0 basechar 0
AnchorPoint: "m2b8c" 395 0 basechar 0
AnchorPoint: "m2b7d" 5 0 basechar 0
AnchorPoint: "m2b7c" -220 0 basechar 0
AnchorPoint: "m2b7b" 245 0 basechar 0
AnchorPoint: "m2b7a" 145 0 basechar 0
AnchorPoint: "m2b5a" 240 0 basechar 0
AnchorPoint: "m2b5b" 395 0 basechar 0
AnchorPoint: "m2bv2left" 290 0 basechar 0
AnchorPoint: "VbWM" 250 0 basechar 0
AnchorPoint: "VbNM" 190 0 basechar 0
AnchorPoint: "m2b4a" 250 0 basechar 0
AnchorPoint: "m2b4b" 250 0 basechar 0
AnchorPoint: "m2b4c" 250 0 basechar 0
AnchorPoint: "m2b4d" 250 0 basechar 0
AnchorPoint: "m2b1" 320 0 basechar 0
LayerCount: 2
Fore
SplineSet
116 941 m 0xc0
 116 998 190 1213 223 1213 c 2
 225 1213 l 1
 241 1209 224 1152 251 1125 c 0
 306 1071 469 1028 469 920 c 0xc0
 469 910 466 897 463 886 c 2
 418 746 l 18
 408 715 403 701 390 701 c 0
 377 701 357 715 322 737 c 1
 311 691 308 647 308 606 c 0xa0
 308 573 310 542 310 514 c 0
 310 374 342 262 342 128 c 0
 342 72 319 28 281 -16 c 0
 275 -22 251 -20 241 -20 c 0
 220 -20 196 -8 196 8 c 1x90
 205 83 208 145 208 200 c 1
 178 488 l 1xa0
 178 602 232 704 263 768 c 1
 234 792 116 816 116 941 c 0xc0
EndSplineSet
Validated: 1
MultipleSubs2: "Addhairspacebeforeletter subtable" hairspace zayin
MultipleSubs2: "Addthinspacebeforeletter subtable" thinspace zayin
MultipleSubs2: "AddHairspaceAfterMark subtable" zayin hairspace
MultipleSubs2: "AddThinspaceAfterMark subtable" zayin thinspace
EndChar

StartChar: het
Encoding: 162 1495 104
Width: 1171
VWidth: 2248
GlyphClass: 2
Flags: W
HStem: 0 21G<924.5 933.5> 821 304<304.622 855.828 975 1015.43>
VStem: 116 934<870.768 1094.68> 174 151<30.8781 627.761> 174 124<171.279 808.716> 847 158<17.2611 654.529> 856 119<248.678 820.807>
AnchorPoint: "m2b10" -275 0 basechar 0
AnchorPoint: "m2b9" 745 0 basechar 0
AnchorPoint: "m2b8a" 575 0 basechar 0
AnchorPoint: "m2b8b" 120 0 basechar 0
AnchorPoint: "m2b8c" 960 0 basechar 0
AnchorPoint: "m2b7c" -220 0 basechar 0
AnchorPoint: "m2b7b" 165 0 basechar 0
AnchorPoint: "m2b7a" 65 0 basechar 0
AnchorPoint: "m2b5a" 560 0 basechar 0
AnchorPoint: "m2b5b" 930 0 basechar 0
AnchorPoint: "m2bv2r" 584 0 basechar 0
AnchorPoint: "HbWM" 440 0 basechar 0
AnchorPoint: "HbNM" 380 0 basechar 0
AnchorPoint: "VbWM" 560 0 basechar 0
AnchorPoint: "VbNM" 480 0 basechar 0
AnchorPoint: "m2bpg" 1000 0 basechar 0
AnchorPoint: "m2b4a" 560 0 basechar 0
AnchorPoint: "m2b4b" 560 0 basechar 0
AnchorPoint: "m2b4c" 600 0 basechar 0
AnchorPoint: "m2b4d" 600 0 basechar 0
AnchorPoint: "m2b2" 580 0 basechar 0
AnchorPoint: "m2b1" 575 0 basechar 0
LayerCount: 2
Fore
SplineSet
233 821 m 1xc8
 185 836 116 897 116 988 c 10
 116 1089 l 18
 116 1113 117 1140 120 1165 c 0
 127 1213 163 1219 178 1169 c 0
 191 1126 194 1125 248 1125 c 2
 895 1125 l 2
 1008 1125 1015 1090 1029 1041 c 1
 1042 959 l 2
 1049 921 1050 890 1050 867 c 0xe0
 1050 832 1035 806 1027 806 c 1
 1020 805 1017 821 999 821 c 0
 981 821 975 818 975 796 c 2
 975 707 l 2xc2
 975 521 979 328 1005 160 c 1
 1005 17 936 0 931 0 c 0
 918 0 847 17 847 64 c 0xc4
 847 187 856 544 856 693 c 2
 856 761 l 2
 856 815 853 821 798 821 c 2
 430 821 l 18
 383 821 347 821 310 821 c 1
 301 757 298 698 298 635 c 0xca
 298 480 323 362 323 191 c 0
 323 148 325 110 325 95 c 0
 325 80 290 40 261 10 c 0
 232 -21 204 -29 195 -29 c 0
 183 -29 174 -1 174 59 c 10xd0
 174 693 l 2
 174 756 175 775 233 821 c 1xc8
EndSplineSet
Validated: 1
MultipleSubs2: "Addhairspacebeforeletter subtable" hairspace het
MultipleSubs2: "Addthinspacebeforeletter subtable" thinspace het
MultipleSubs2: "AddHairspaceAfterMark subtable" het hairspace
MultipleSubs2: "AddThinspaceAfterMark subtable" het thinspace
EndChar

StartChar: tet
Encoding: 163 1496 105
Width: 1135
VWidth: 2248
GlyphClass: 2
Flags: W
HStem: 0 296<320.542 878.013> 821 299<672.5 818.292>
VStem: 118 375<857.237 1020.72> 164 123<318.5 699.334> 915 146<402.151 789.367>
AnchorPoint: "m2b10" -275 0 basechar 0
AnchorPoint: "m2b9" 715 0 basechar 0
AnchorPoint: "m2b8a" 545 0 basechar 0
AnchorPoint: "m2b8b" 155 0 basechar 0
AnchorPoint: "m2b8c" 930 0 basechar 0
AnchorPoint: "m2b7c" -220 0 basechar 0
AnchorPoint: "m2b7b" 190 0 basechar 0
AnchorPoint: "m2b7a" 90 0 basechar 0
AnchorPoint: "m2b5a" 560 0 basechar 0
AnchorPoint: "m2b5b" 840 0 basechar 0
AnchorPoint: "m2bv2r" 546 0 basechar 0
AnchorPoint: "VbWM" 510 0 basechar 0
AnchorPoint: "VbNM" 430 0 basechar 0
AnchorPoint: "m2b4a" 560 0 basechar 0
AnchorPoint: "m2b4b" 560 0 basechar 0
AnchorPoint: "m2b4c" 600 0 basechar 0
AnchorPoint: "m2b4d" 600 0 basechar 0
AnchorPoint: "m2b1" 540 0 basechar 0
LayerCount: 2
Fore
SplineSet
915 637 m 1xd8
 915 725 903 821 791 821 c 0
 670 821 704 651 632 483 c 1
 611 445 528 409 496 409 c 9
 641 1043 l 18
 653 1099 660 1120 685 1120 c 0
 695 1120 1061 1062 1061 688 c 0
 1061 506 985 294 927 87 c 1
 905 0 905 0 831 0 c 10
 282 0 l 18
 212 0 204 1 204 46 c 2
 204 106 l 2
 204 234 178 367 164 498 c 1xd8
 164 618 200 699 261 790 c 1
 146 846 118 905 118 971 c 0
 118 1047 139 1204 171 1204 c 0
 182 1204 192 1190 197 1168 c 1
 211 1126 230 1108 333 1078 c 1
 407 1048 493 1023 493 933 c 0xe8
 493 925 491 917 491 907 c 9
 452 724 l 25
 341 759 l 17
 299 709 287 656 287 590 c 0
 287 507 297 424 308 381 c 0
 328 305 340 296 398 296 c 10
 794 296 l 18
 862 296 863 296 895 382 c 0
 908 419 914 568 915 637 c 1xd8
EndSplineSet
Validated: 1
MultipleSubs2: "Addhairspacebeforeletter subtable" hairspace tet
MultipleSubs2: "Addthinspacebeforeletter subtable" thinspace tet
MultipleSubs2: "AddHairspaceAfterMark subtable" tet hairspace
MultipleSubs2: "AddThinspaceAfterMark subtable" tet thinspace
EndChar

StartChar: yod
Encoding: 164 1497 106
Width: 583
VWidth: 2248
GlyphClass: 2
Flags: W
HStem: 537 666
VStem: 125 331<825.172 1033.41> 336 120<549.916 777.77>
AnchorPoint: "m2b10" -275 0 basechar 0
AnchorPoint: "m2b9" 455 0 basechar 0
AnchorPoint: "m2b8a" 300 0 basechar 0
AnchorPoint: "m2b8b" 145 0 basechar 0
AnchorPoint: "m2b8c" 485 0 basechar 0
AnchorPoint: "m2b7d" -55 0 basechar 0
AnchorPoint: "m2b7c" -220 0 basechar 0
AnchorPoint: "m2b7b" 185 0 basechar 0
AnchorPoint: "m2b7a" 85 0 basechar 0
AnchorPoint: "m2b5a" 420 0 basechar 0
AnchorPoint: "m2b5b" 455 0 basechar 0
AnchorPoint: "m2bv2left" 390 0 basechar 0
AnchorPoint: "VbWM" 400 0 basechar 0
AnchorPoint: "VbNM" 350 0 basechar 0
AnchorPoint: "m2b4a" 420 0 basechar 0
AnchorPoint: "m2b4b" 420 0 basechar 0
AnchorPoint: "m2b4c" 300 0 basechar 0
AnchorPoint: "m2b4d" 300 0 basechar 0
AnchorPoint: "m2b1" 295 0 basechar 0
LayerCount: 2
Fore
SplineSet
336 611 m 0xa0
 329 736 340 768 270 785 c 1
 205 816 125 792 125 962 c 3xc0
 125 1042 134 1203 165 1203 c 0
 183 1203 180 1145 214 1125 c 0
 259 1100 298 1100 341 1086 c 0
 395 1068 453 1003 453 944 c 0
 453 782 456 688 456 565 c 0
 456 547 447 537 439 537 c 0
 430 537 340 539 336 611 c 0xa0
EndSplineSet
Validated: 1
MultipleSubs2: "Addhairspacebeforeletter subtable" hairspace yod
MultipleSubs2: "Addthinspacebeforeletter subtable" thinspace yod
MultipleSubs2: "AddHairspaceAfterMark subtable" yod hairspace
MultipleSubs2: "AddThinspaceAfterMark subtable" yod thinspace
EndChar

StartChar: finalkaf
Encoding: 165 1498 107
Width: 1013
VWidth: 2248
GlyphClass: 2
Flags: W
HStem: 826 299<169.444 694.764 820.004 859.424>
VStem: 104 790<875.219 1094.68> 692 176<-529.909 121> 695 125<224.199 820.943>
AnchorPoint: "m2b9" 630 0 basechar 0
AnchorPoint: "m2b8a" 465 0 basechar 0
AnchorPoint: "m2b8b" 115 0 basechar 0
AnchorPoint: "m2b8c" 855 0 basechar 0
AnchorPoint: "m2b7b" 155 0 basechar 0
AnchorPoint: "m2b7a" 55 0 basechar 0
AnchorPoint: "m2bmback" 435 0 basechar 0
AnchorPoint: "m2b5a" 400 0 basechar 0
AnchorPoint: "m2b5b" 980 0 basechar 0
AnchorPoint: "m2bvback" 435 0 basechar 0
AnchorPoint: "m2b6" 420 0 basechar 0
AnchorPoint: "m2b4a" 420 0 basechar 0
AnchorPoint: "m2b4b" 370 0 basechar 0
AnchorPoint: "m2b4c" 320 0 basechar 0
AnchorPoint: "m2b4d" 260 0 basechar 0
AnchorPoint: "m2b3" 460 0 basechar 0
AnchorPoint: "m2b1" 465 0 basechar 0
LayerCount: 2
Fore
SplineSet
379 826 m 17x90
 210 826 104 848 104 988 c 10
 104 1089 l 18
 104 1113 105 1140 108 1165 c 0
 115 1213 151 1219 166 1169 c 0
 179 1126 182 1125 236 1125 c 10
 739 1125 l 2
 852 1125 859 1090 873 1041 c 1
 887 959 l 2
 894 921 894 890 894 867 c 0xc0
 894 832 879 806 871 806 c 1
 864 805 862 821 844 821 c 0
 826 821 820 818 820 796 c 2
 820 705 l 2x90
 820 697 818 688 818 679 c 0
 818 458 843 -231 868 -392 c 1
 868 -535 784 -557 779 -557 c 0
 766 -557 692 -538 692 -491 c 0xa0
 692 -368 695 546 695 695 c 2
 695 763 l 2
 695 817 692 823 637 823 c 1
 379 826 l 17x90
EndSplineSet
Validated: 1
MultipleSubs2: "Addhairspacebeforeletter subtable" hairspace finalkaf
MultipleSubs2: "Addthinspacebeforeletter subtable" thinspace finalkaf
MultipleSubs2: "AddHairspaceAfterMark subtable" finalkaf hairspace
MultipleSubs2: "AddThinspaceAfterMark subtable" finalkaf thinspace
EndChar

StartChar: kaf
Encoding: 166 1499 108
Width: 1011
VWidth: 2248
GlyphClass: 2
Flags: W
HStem: 0 296<195.72 740.302> 824 301<194.444 714.209>
VStem: 752 136<298.489 786.118>
AnchorPoint: "m2b10" -275 0 basechar 0
AnchorPoint: "m2b9" 600 0 basechar 0
AnchorPoint: "m2b8a" 445 0 basechar 0
AnchorPoint: "m2b8b" 150 0 basechar 0
AnchorPoint: "m2b8c" 800 0 basechar 0
AnchorPoint: "m2b7c" -220 0 basechar 0
AnchorPoint: "m2b7b" 180 0 basechar 0
AnchorPoint: "m2b7a" 80 0 basechar 0
AnchorPoint: "m2b5a" 410 0 basechar 0
AnchorPoint: "m2b5b" 705 0 basechar 0
AnchorPoint: "m2bv2r" 415 0 basechar 0
AnchorPoint: "VbWM" 420 0 basechar 0
AnchorPoint: "VbNM" 360 0 basechar 0
AnchorPoint: "m2b4a" 410 0 basechar 0
AnchorPoint: "m2b4b" 410 0 basechar 0
AnchorPoint: "m2b4c" 410 0 basechar 0
AnchorPoint: "m2b4d" 410 0 basechar 0
AnchorPoint: "m2b3" 445 0 basechar 0
AnchorPoint: "m2b1" 445 0 basechar 0
LayerCount: 2
Fore
SplineSet
832 203 m 10
 766 91 l 17
 719 0 719 0 613 0 c 2
 133 0 l 2
 84 0 61 0 61 19 c 0
 61 31 74 53 96 89 c 10
 165 202 l 17
 218 294 218 296 335 296 c 1
 671 296 l 2
 750 296 752 304 752 382 c 2
 752 658 l 2
 752 733 733 824 584 824 c 9
 404 824 l 17
 235 824 129 848 129 988 c 10
 129 1089 l 18
 129 1113 130 1140 133 1165 c 0
 140 1213 176 1219 191 1169 c 0
 204 1126 207 1125 261 1125 c 2
 621 1125 l 2
 790 1125 888 1001 888 903 c 2
 888 364 l 2
 888 287 857 246 832 203 c 10
EndSplineSet
Validated: 1
MultipleSubs2: "Addhairspacebeforeletter subtable" hairspace kaf
MultipleSubs2: "Addthinspacebeforeletter subtable" thinspace kaf
MultipleSubs2: "AddHairspaceAfterMark subtable" kaf hairspace
MultipleSubs2: "AddThinspaceAfterMark subtable" kaf thinspace
Substitution2: "jaltWideLetterAlternativesinHeb subtable" kaf.wide
EndChar

StartChar: lamed
Encoding: 167 1500 109
Width: 961
VWidth: 2248
GlyphClass: 2
Flags: W
HStem: 821 304<234.789 669.249>
VStem: 105 104<1141.29 1469.41> 140 190<1531.92 1671.36> 416 165<40.375 180.091> 738 121<421.188 690>
AnchorPoint: "m2b10" -275 0 basechar 0
AnchorPoint: "m2b9" 635 0 basechar 0
AnchorPoint: "m2b8a" 550 0 basechar 0
AnchorPoint: "m2b8b" -120 0 basechar 0
AnchorPoint: "m2b8c" 780 0 basechar 0
AnchorPoint: "m2b7c" -220 0 basechar 0
AnchorPoint: "m2b7a" -60 0 basechar 0
AnchorPoint: "m2b5a" 450 0 basechar 0
AnchorPoint: "m2b5b" 780 0 basechar 0
AnchorPoint: "m2bv2r" 430 0 basechar 0
AnchorPoint: "VbWM" 410 0 basechar 0
AnchorPoint: "VbNM" 350 0 basechar 0
AnchorPoint: "m2b4a" 460 0 basechar 0
AnchorPoint: "m2b4b" 460 0 basechar 0
AnchorPoint: "m2b4c" 460 0 basechar 0
AnchorPoint: "m2b4d" 460 0 basechar 0
AnchorPoint: "m2b1" 520 0 basechar 0
LayerCount: 2
Fore
SplineSet
105 1380 m 18xd8
 105 1461 177 1465 177 1530 c 27
 177 1572 140 1551 140 1631 c 3
 140 1678 195 1769 210 1769 c 3
 232 1769 224 1738 236 1720 c 24
 270 1671 330 1659 330 1599 c 27xb8
 330 1514 209 1495 209 1418 c 10
 209 1289 l 18
 209 1210 238 1125 291 1125 c 10
 643 1125 l 18
 790 1125 823 1072 832 962 c 9
 857 460 l 18
 858 448 859 437 859 426 c 0
 859 396 850 372 809 334 c 9
 607 165 l 17
 589 145 581 122 581 100 c 0
 581 74 566 66 550 52 c 10
 438 -41 l 18
 429 -49 420 -40 420 -26 c 0
 420 -7 416 24 416 56 c 0
 416 64 416 72 416 81 c 0
 416 118 418 162 438 181 c 10
 709 433 l 18
 730 452 738 459 738 475 c 0
 738 487 736 504 728 531 c 9
 682 743 l 17
 666 798 649 821 568 821 c 10
 253 821 l 18
 190 821 105 862 105 987 c 10
 105 1380 l 18xd8
EndSplineSet
Validated: 1
MultipleSubs2: "Addhairspacebeforeletter subtable" hairspace lamed
MultipleSubs2: "Addthinspacebeforeletter subtable" thinspace lamed
MultipleSubs2: "AddHairspaceAfterMark subtable" lamed hairspace
MultipleSubs2: "AddThinspaceAfterMark subtable" lamed thinspace
Substitution2: "jaltWideLetterAlternativesinHeb subtable" lamed.wide
EndChar

StartChar: finalmem
Encoding: 168 1501 110
Width: 1165
VWidth: 2248
GlyphClass: 2
Flags: W
HStem: 0 296<283 886> 829 296<363.737 834.504>
VStem: 886 139<293 776.385>
AnchorPoint: "m2b9" 740 0 basechar 0
AnchorPoint: "m2b8a" 580 0 basechar 0
AnchorPoint: "m2b8b" 195 0 basechar 0
AnchorPoint: "m2b8c" 1010 0 basechar 0
AnchorPoint: "m2b7b" 215 0 basechar 0
AnchorPoint: "m2b7a" 115 0 basechar 0
AnchorPoint: "m2b5a" 565 0 basechar 0
AnchorPoint: "m2b5b" 975 0 basechar 0
AnchorPoint: "m2bv2r" 565 0 basechar 0
AnchorPoint: "m2b4a" 565 0 basechar 0
AnchorPoint: "m2b4b" 565 0 basechar 0
AnchorPoint: "m2b4c" 565 0 basechar 0
AnchorPoint: "m2b4d" 565 0 basechar 0
AnchorPoint: "m2b2" 565 0 basechar 0
AnchorPoint: "m2b1" 580 0 basechar 0
LayerCount: 2
Fore
SplineSet
489 824 m 2
 423 825 414 829 406 829 c 0
 375 829 311 710 299 555 c 2
 283 360 l 1
 283 337 l 2
 283 299 290 296 333 296 c 0
 340 296 347 296 355 296 c 2
 848 293 l 2
 878 293 886 296 886 329 c 2
 886 653 l 2
 886 729 853 819 724 821 c 2
 489 824 l 2
120 165 m 10
 151 557 l 18
 159 659 213 755 288 836 c 1
 210 854 165 897 165 989 c 10
 165 1090 l 18
 165 1114 166 1141 169 1166 c 0
 176 1214 213 1220 228 1170 c 0
 241 1127 243 1125 297 1125 c 2
 746 1125 l 2
 915 1125 1025 1001 1025 903 c 10
 1025 165 l 18
 1025 0 1023 0 902 0 c 10
 264 0 l 18
 147 0 116 0 116 90 c 0
 116 110 118 134 120 165 c 10
EndSplineSet
Validated: 1
MultipleSubs2: "Addhairspacebeforeletter subtable" hairspace finalmem
MultipleSubs2: "Addthinspacebeforeletter subtable" thinspace finalmem
MultipleSubs2: "AddHairspaceAfterMark subtable" finalmem hairspace
MultipleSubs2: "AddThinspaceAfterMark subtable" finalmem thinspace
Substitution2: "jaltWideLetterAlternativesinHeb subtable" finalmem.wide
EndChar

StartChar: mem
Encoding: 169 1502 111
Width: 1127
VWidth: 2248
GlyphClass: 2
Flags: W
HStem: 0 296<427.406 917.947> 795 57<519.242 538.503>
VStem: 147 373<853.781 992.165> 161 111<73.0164 358.749> 922 131<301.584 609.378>
AnchorPoint: "m2b10" -275 0 basechar 0
AnchorPoint: "m2b9" 695 0 basechar 0
AnchorPoint: "m2b8a" 545 0 basechar 0
AnchorPoint: "m2b8b" 155 0 basechar 0
AnchorPoint: "m2b8c" 930 0 basechar 0
AnchorPoint: "m2b7c" -220 0 basechar 0
AnchorPoint: "m2b7b" 275 0 basechar 0
AnchorPoint: "m2b7a" 175 0 basechar 0
AnchorPoint: "m2b5a" 555 0 basechar 0
AnchorPoint: "m2b5b" 855 0 basechar 0
AnchorPoint: "m2bv2r" 526 0 basechar 0
AnchorPoint: "VbWM" 560 0 basechar 0
AnchorPoint: "VbNM" 480 0 basechar 0
AnchorPoint: "m2b4a" 555 0 basechar 0
AnchorPoint: "m2b4b" 555 0 basechar 0
AnchorPoint: "m2b4c" 555 0 basechar 0
AnchorPoint: "m2b4d" 555 0 basechar 0
AnchorPoint: "m2b1" 525 0 basechar 0
LayerCount: 2
Fore
SplineSet
544 894 m 2xe8
 627 1103 l 1
 641 1145 649 1164 671 1164 c 0
 690 1164 719 1150 768 1125 c 1
 1028 966 1053 626 1053 350 c 0
 1053 291 1029 227 1016 194 c 1
 968 98 l 2
 918 0 918 0 812 0 c 10
 345 0 l 18
 291 0 267 0 267 14 c 0
 267 26 283 48 313 89 c 10
 388 195 l 17
 453 294 453 296 570 296 c 9
 838 296 l 18
 917 296 922 335 922 382 c 3
 922 609 819 795 607 795 c 3
 415 795 307 516 286 393 c 1
 269 213 l 1
 269 208 272 204 272 199 c 0
 272 92 204 47 164 11 c 0
 156 4 149 -4 140 -4 c 0
 133 -4 130 -3 130 4 c 0
 130 26 161 103 161 168 c 27xd8
 161 249 121 291 121 372 c 16
 121 527 189 589 288 706 c 0
 299 720 321 731 321 750 c 1
 292 774 147 816 147 941 c 0
 147 998 220 1213 253 1213 c 2
 255 1213 l 1
 271 1209 255 1152 282 1125 c 0
 337 1071 520 1017 520 909 c 0
 520 889 511 852 522 852 c 3
 527 852 540 883 544 894 c 2xe8
EndSplineSet
Validated: 1
MultipleSubs2: "Addhairspacebeforeletter subtable" hairspace mem
MultipleSubs2: "Addthinspacebeforeletter subtable" thinspace mem
MultipleSubs2: "AddHairspaceAfterMark subtable" mem hairspace
MultipleSubs2: "AddThinspaceAfterMark subtable" mem thinspace
EndChar

StartChar: finalnun
Encoding: 170 1503 112
Width: 594
VWidth: 2248
GlyphClass: 2
Flags: W
HStem: 822 303<169.437 330.556>
VStem: 104 376<857.062 1087.2> 216 155<-493.909 43.9458> 220 135<-353.375 652.173>
AnchorPoint: "m2b9" 445 0 basechar 0
AnchorPoint: "m2b8a" 290 0 basechar 0
AnchorPoint: "m2b8b" 125 0 basechar 0
AnchorPoint: "m2b8c" 430 0 basechar 0
AnchorPoint: "m2b7b" 155 0 basechar 0
AnchorPoint: "m2b7a" 55 0 basechar 0
AnchorPoint: "m2bmback" -15 0 basechar 0
AnchorPoint: "m2b5a" 0 0 basechar 0
AnchorPoint: "m2b5b" 475 0 basechar 0
AnchorPoint: "m2bvback" -35 0 basechar 0
AnchorPoint: "m2b4a" 25 0 basechar 0
AnchorPoint: "m2b4b" -100 0 basechar 0
AnchorPoint: "m2b4c" -150 0 basechar 0
AnchorPoint: "m2b4d" -220 0 basechar 0
AnchorPoint: "m2b2" 80 0 basechar 0
AnchorPoint: "m2b1" 290 0 basechar 0
LayerCount: 2
Fore
SplineSet
320 822 m 0x90
 169 822 104 846 104 988 c 10
 104 1089 l 18
 104 1113 106 1140 109 1165 c 0
 116 1213 152 1219 167 1169 c 0
 180 1126 182 1125 236 1125 c 0
 440 1125 480 1085 480 962 c 0xc0
 480 827 360 664 360 573 c 0
 360 456 355 246 355 52 c 0x90
 355 -120 359 -281 371 -357 c 1
 371 -500 287 -521 282 -521 c 0
 269 -521 216 -502 216 -455 c 0xa0
 216 -332 220 401 220 550 c 0
 220 591 281 672 333 787 c 1
 338 803 345 822 320 822 c 0x90
EndSplineSet
MultipleSubs2: "Addhairspacebeforeletter subtable" hairspace finalnun
MultipleSubs2: "Addthinspacebeforeletter subtable" thinspace finalnun
MultipleSubs2: "AddHairspaceAfterMark subtable" finalnun hairspace
MultipleSubs2: "AddThinspaceAfterMark subtable" finalnun thinspace
EndChar

StartChar: nun
Encoding: 171 1504 113
Width: 631
VWidth: 2248
GlyphClass: 2
Flags: W
HStem: 0 296<168.319 382.607>
VStem: 163 328<820.844 1042.36> 374 175<296.391 662.207>
AnchorPoint: "m2b10" -275 0 basechar 0
AnchorPoint: "m2b9" 490 0 basechar 0
AnchorPoint: "m2b8a" 335 0 basechar 0
AnchorPoint: "m2b8b" 190 0 basechar 0
AnchorPoint: "m2b8c" 480 0 basechar 0
AnchorPoint: "m2b7d" 15 0 basechar 0
AnchorPoint: "m2b7c" -220 0 basechar 0
AnchorPoint: "m2b7b" 225 0 basechar 0
AnchorPoint: "m2b7a" 125 0 basechar 0
AnchorPoint: "m2b5a" 260 0 basechar 0
AnchorPoint: "m2b5b" 405 0 basechar 0
AnchorPoint: "m2bv2left" 265 0 basechar 0
AnchorPoint: "m2bv2r" 265 0 basechar 0
AnchorPoint: "VbWM" 260 0 basechar 0
AnchorPoint: "VbNM" 200 0 basechar 0
AnchorPoint: "m2b4a" 260 0 basechar 0
AnchorPoint: "m2b4b" 260 0 basechar 0
AnchorPoint: "m2b4c" 260 0 basechar 0
AnchorPoint: "m2b4d" 260 0 basechar 0
AnchorPoint: "m2b1" 335 0 basechar 0
LayerCount: 2
Fore
SplineSet
374 464 m 19xa0
 374 523 378 573 378 620 c 0
 378 656 376 692 369 728 c 0
 366 743 335 753 302 765 c 1
 249 788 163 796 163 966 c 3
 163 1046 173 1207 204 1207 c 0
 222 1207 218 1149 252 1129 c 0
 297 1104 337 1104 380 1090 c 0
 434 1072 491 1007 491 948 c 0xc0
 491 786 504 596 545 352 c 1
 545 333 549 316 549 300 c 0
 549 289 547 278 542 267 c 10
 450 88 l 18
 405 0 403 0 276 0 c 10
 159 0 l 18
 85 0 52 0 52 27 c 0
 52 48 74 87 111 156 c 1
 181 294 202 294 294 296 c 9
 341 296 l 18
 379 296 383 297 383 344 c 0
 383 353 374 417 374 464 c 19xa0
EndSplineSet
Validated: 1
MultipleSubs2: "Addhairspacebeforeletter subtable" hairspace nun
MultipleSubs2: "Addthinspacebeforeletter subtable" thinspace nun
MultipleSubs2: "AddHairspaceAfterMark subtable" nun hairspace
MultipleSubs2: "AddThinspaceAfterMark subtable" nun thinspace
EndChar

StartChar: samekh
Encoding: 172 1505 114
Width: 1084
VWidth: 2248
GlyphClass: 2
Flags: W
HStem: 0 296<278.064 804.967> 821 304<330.713 783.692>
VStem: 138 137<296.013 708.762> 827 134<298.687 778.436>
AnchorPoint: "m2b10" -275 0 basechar 0
AnchorPoint: "m2b9" 715 7 basechar 0
AnchorPoint: "m2b8a" 520 0 basechar 0
AnchorPoint: "m2b8b" 120 0 basechar 0
AnchorPoint: "m2b8c" 885 7 basechar 0
AnchorPoint: "m2b7c" -220 0 basechar 0
AnchorPoint: "m2b7b" 205 0 basechar 0
AnchorPoint: "m2b7a" 105 0 basechar 0
AnchorPoint: "m2b5a" 530 0 basechar 0
AnchorPoint: "m2b5b" 840 0 basechar 0
AnchorPoint: "m2bv2r" 566 0 basechar 0
AnchorPoint: "VbWM" 530 0 basechar 0
AnchorPoint: "VbNM" 470 0 basechar 0
AnchorPoint: "m2b4a" 545 0 basechar 0
AnchorPoint: "m2b4b" 545 0 basechar 0
AnchorPoint: "m2b4c" 545 0 basechar 0
AnchorPoint: "m2b4d" 500 0 basechar 0
AnchorPoint: "m2b1" 550 0 basechar 0
LayerCount: 2
Fore
SplineSet
275 550 m 2
 275 359 l 2
 275 300 276 296 323 296 c 0
 330 296 338 296 347 296 c 1
 788 296 l 2
 824 296 827 297 827 332 c 2
 827 656 l 2
 827 732 793 821 663 821 c 2
 463 821 l 2
 436 821 412 821 388 821 c 0
 387 821 380 821 379 821 c 0
 344 821 275 708 275 550 c 2
669 0 m 2
 399 0 l 2
 237 0 138 62 138 165 c 10
 138 557 l 18
 138 659 200 755 275 836 c 1
 197 854 152 897 152 989 c 10
 152 1090 l 18
 152 1114 153 1141 156 1166 c 0
 163 1214 200 1220 215 1170 c 0
 228 1127 230 1125 284 1125 c 2
 682 1125 l 2
 851 1125 961 1001 961 903 c 2
 961 351 l 2
 961 270 924 222 878 145 c 1
 817 40 779 0 669 0 c 2
EndSplineSet
Validated: 1
MultipleSubs2: "Addhairspacebeforeletter subtable" hairspace samekh
MultipleSubs2: "Addthinspacebeforeletter subtable" thinspace samekh
MultipleSubs2: "AddHairspaceAfterMark subtable" samekh hairspace
MultipleSubs2: "AddThinspaceAfterMark subtable" samekh thinspace
EndChar

StartChar: ayin
Encoding: 173 1506 115
Width: 1072
VWidth: 2248
GlyphClass: 2
Flags: W
VStem: 112 374<818.315 1004.7> 203 121<480.991 738.982> 380 142<164.989 262.628>
AnchorPoint: "m2b10" -275 0 basechar 0
AnchorPoint: "m2b9" 675 0 basechar 0
AnchorPoint: "m2b8a" 515 0 basechar 0
AnchorPoint: "m2b8b" 200 0 basechar 0
AnchorPoint: "m2b8c" 905 0 basechar 0
AnchorPoint: "m2b7c" -220 0 basechar 0
AnchorPoint: "m2b7b" 240 0 basechar 0
AnchorPoint: "m2b7a" 140 0 basechar 0
AnchorPoint: "m2b5a" 855 0 basechar 0
AnchorPoint: "m2b5b" 920 0 basechar 0
AnchorPoint: "m2bv2r" 809 0 basechar 0
AnchorPoint: "HbWM" 760 0 basechar 0
AnchorPoint: "HbNM" 700 0 basechar 0
AnchorPoint: "VbWM" 900 0 basechar 0
AnchorPoint: "VbNM" 700 0 basechar 0
AnchorPoint: "m2bpg" 1000 0 basechar 0
AnchorPoint: "m2b4a" 800 0 basechar 0
AnchorPoint: "m2b4b" 855 0 basechar 0
AnchorPoint: "m2b4c" 950 0 basechar 0
AnchorPoint: "m2b4d" 1050 0 basechar 0
AnchorPoint: "m2b2" 555 0 basechar 0
AnchorPoint: "m2b1" 515 0 basechar 0
LayerCount: 2
Fore
SplineSet
324 612 m 3x40
 324 432 522 394 522 183 c 0
 522 161 513 127 561 165 c 1
 757 280 705 444 729 572 c 1
 736 601 747 658 747 673 c 0
 747 687 708 720 698 736 c 1
 638 853 l 17
 626 864 616 902 616 924 c 0
 616 959 628 1002 649 1035 c 10
 745 1189 l 17
 756 1204 767 1211 777 1211 c 0
 789 1211 798 1199 798 1183 c 0
 798 1168 792 1148 792 1133 c 0
 792 1123 793 1114 800 1109 c 10
 913 1014 l 17
 953 977 973 944 973 908 c 1
 973 863 947 804 895 693 c 0
 862 623 835 477 810 356 c 1
 798 298 797 254 797 205 c 2
 797 117 l 2
 797 -10 795 -10 689 -93 c 9
 333 -359 l 18
 255 -417 211 -449 186 -449 c 0
 154 -449 153 -397 153 -284 c 2
 153 -276 l 2
 153 -121 154 -123 265 -37 c 9
 327 18 l 17
 369 49 380 64 380 90 c 0
 380 269 203 454 203 576 c 2
 203 592 l 2x60
 203 628 208 670 234 759 c 1
 205 783 112 813 112 938 c 0
 112 995 186 1211 219 1211 c 2
 221 1211 l 1
 237 1207 222 1150 249 1123 c 0
 304 1069 486 1031 486 923 c 0x80
 486 913 483 902 481 891 c 2
 449 745 l 17
 439 714 434 700 421 700 c 0
 408 700 374 730 331 741 c 1
 322 704 326 700 324 673 c 0
 322 643 324 632 324 612 c 3x40
EndSplineSet
Validated: 1
MultipleSubs2: "Addhairspacebeforeletter subtable" hairspace ayin
MultipleSubs2: "Addthinspacebeforeletter subtable" thinspace ayin
MultipleSubs2: "AddHairspaceAfterMark subtable" ayin hairspace
MultipleSubs2: "AddThinspaceAfterMark subtable" ayin thinspace
Substitution2: "saltStylisticAlternativesinHebr subtable" ayin.alt
EndChar

StartChar: finalpe
Encoding: 174 1507 116
Width: 1074
VWidth: 2248
GlyphClass: 2
Flags: W
HStem: 412 297<277.004 475.456> 822 303<319.018 784.651>
VStem: 124 153<522 743> 825 112<446.229 783.757>
AnchorPoint: "m2b9" 665 0 basechar 0
AnchorPoint: "m2b8a" 515 0 basechar 0
AnchorPoint: "m2b8b" 155 0 basechar 0
AnchorPoint: "m2b8c" 910 0 basechar 0
AnchorPoint: "m2b7b" 195 0 basechar 0
AnchorPoint: "m2b7a" 95 0 basechar 0
AnchorPoint: "m2bmback" 543 0 basechar 0
AnchorPoint: "m2b5a" 545 0 basechar 0
AnchorPoint: "m2b5b" 1090 0 basechar 0
AnchorPoint: "m2bvback" 543 0 basechar 0
AnchorPoint: "m2b4a" 580 0 basechar 0
AnchorPoint: "m2b4b" 500 0 basechar 0
AnchorPoint: "m2b4c" 450 0 basechar 0
AnchorPoint: "m2b4d" 390 0 basechar 0
AnchorPoint: "m2b3" 515 0 basechar 0
AnchorPoint: "m2b1" 515 0 basechar 0
LayerCount: 2
Fore
SplineSet
937 896 m 1
 937 634 970 -302 993 -451 c 1
 993 -594 909 -616 904 -616 c 0
 891 -616 816 -600 816 -553 c 0
 816 -444 825 384 825 655 c 1
 825 730 806 822 657 822 c 2
 420 822 l 18
 398 822 375 822 362 822 c 0
 344 822 340 823 318 826 c 1
 305 815 277 759 277 727 c 0
 277 714 282 709 296 709 c 2
 398 709 l 18
 401 709 405 709 408 709 c 0
 457 709 484 687 484 628 c 9
 484 531 l 18
 484 448 468 412 415 412 c 9
 236 412 l 17
 209 390 185 344 160 296 c 0
 155 286 102 276 102 305 c 1
 102 342 148 387 184 429 c 1
 150 460 124 496 124 548 c 19
 124 667 239 828 246 842 c 1
 187 864 145 910 145 988 c 10
 145 1089 l 18
 145 1158 152 1204 177 1204 c 0
 189 1204 199 1193 207 1169 c 0
 220 1126 223 1125 277 1125 c 10
 657 1125 l 18
 826 1125 937 994 937 896 c 1
EndSplineSet
Validated: 1
MultipleSubs2: "Addhairspacebeforeletter subtable" hairspace finalpe
MultipleSubs2: "Addthinspacebeforeletter subtable" thinspace finalpe
MultipleSubs2: "AddHairspaceAfterMark subtable" finalpe hairspace
MultipleSubs2: "AddThinspaceAfterMark subtable" finalpe thinspace
EndChar

StartChar: pe
Encoding: 175 1508 117
Width: 997
VWidth: 2248
GlyphClass: 2
Flags: W
HStem: 0 296<213.72 776.302> 412 297<295.004 489.656> 821 304<336.984 724.386>
VStem: 138 157<525 744> 783 143<299.047 520.417>
AnchorPoint: "m2b10" -275 0 basechar 0
AnchorPoint: "m2b9" 625 0 basechar 0
AnchorPoint: "m2b8a" 470 0 basechar 0
AnchorPoint: "m2b8b" 160 0 basechar 0
AnchorPoint: "m2b8c" 750 0 basechar 0
AnchorPoint: "m2b7c" -220 0 basechar 0
AnchorPoint: "m2b7b" 210 0 basechar 0
AnchorPoint: "m2b7a" 110 0 basechar 0
AnchorPoint: "m2b5a" 480 0 basechar 0
AnchorPoint: "m2b5b" 735 0 basechar 0
AnchorPoint: "m2bv2r" 491 0 basechar 0
AnchorPoint: "VbWM" 460 0 basechar 0
AnchorPoint: "VbNM" 400 0 basechar 0
AnchorPoint: "m2b4a" 480 0 basechar 0
AnchorPoint: "m2b4b" 480 0 basechar 0
AnchorPoint: "m2b4c" 480 0 basechar 0
AnchorPoint: "m2b4d" 480 0 basechar 0
AnchorPoint: "m2b3" 470 0 basechar 0
AnchorPoint: "m2b1" 470 0 basechar 0
LayerCount: 2
Fore
SplineSet
259 842 m 1
 200 864 158 910 158 988 c 10
 158 1089 l 18
 158 1158 165 1204 190 1204 c 0
 202 1204 213 1193 221 1169 c 0
 234 1126 236 1125 290 1125 c 10
 599 1125 l 18
 779 1125 841 997 853 904 c 2
 925 364 l 2
 926 356 926 349 926 341 c 0
 926 280 892 241 869 203 c 10
 802 91 l 17
 755 0 755 0 649 0 c 2
 151 0 l 2
 102 0 78 1 78 19 c 0
 78 31 94 53 116 89 c 10
 183 202 l 17
 236 294 236 296 353 296 c 1
 700 296 l 2
 765 296 783 305 783 349 c 0
 783 358 783 369 783 382 c 1
 754 662 l 1
 754 742 742 824 603 824 c 0
 601 824 599 824 596 824 c 2
 460 821 l 18
 439 821 419 821 401 821 c 0
 378 821 357 821 336 824 c 1
 323 813 295 760 295 728 c 0
 295 715 300 706 314 706 c 2
 412 709 l 18
 413 709 415 709 416 709 c 0
 469 709 498 689 498 628 c 9
 498 531 l 18
 498 448 482 412 429 412 c 9
 237 412 l 17
 210 390 184 345 161 296 c 0
 156 284 107 288 107 317 c 1
 107 354 153 399 189 441 c 1
 155 472 138 502 138 548 c 19
 138 667 252 828 259 842 c 1
EndSplineSet
Validated: 1
MultipleSubs2: "Addhairspacebeforeletter subtable" hairspace pe
MultipleSubs2: "Addthinspacebeforeletter subtable" thinspace pe
MultipleSubs2: "AddHairspaceAfterMark subtable" pe hairspace
MultipleSubs2: "AddThinspaceAfterMark subtable" pe thinspace
EndChar

StartChar: finaltsadi
Encoding: 176 1509 118
Width: 961
VWidth: 2248
GlyphClass: 2
Flags: W
VStem: 171 142<-494.741 35.6366> 171 135<-353.22 264.359 393.014 581> 260 185<717 979> 537 318<848.922 1020.59>
AnchorPoint: "m2b9" 635 0 basechar 0
AnchorPoint: "m2b8a" 480 0 basechar 0
AnchorPoint: "m2b8b" 200 0 basechar 0
AnchorPoint: "m2b8c" 745 0 basechar 0
AnchorPoint: "m2b7b" 250 0 basechar 0
AnchorPoint: "m2b7a" 150 0 basechar 0
AnchorPoint: "m2b5a" 580 0 basechar 0
AnchorPoint: "m2b5b" 775 0 basechar 0
AnchorPoint: "m2bvback" 548 0 basechar 0
AnchorPoint: "m2bv2r" 548 0 basechar 0
AnchorPoint: "VbWM" 850 0 basechar 0
AnchorPoint: "VbNM" 710 0 basechar 0
AnchorPoint: "m2b4a" 490 0 basechar 0
AnchorPoint: "m2b4b" 580 0 basechar 0
AnchorPoint: "m2b4c" 650 0 basechar 0
AnchorPoint: "m2b4d" 740 0 basechar 0
AnchorPoint: "m2b2" 40 0 basechar 0
AnchorPoint: "m2b1" 480 0 basechar 0
LayerCount: 2
Fore
SplineSet
260 733 m 0x30
 260 797 120 813 120 941 c 0
 120 991 191 1204 229 1204 c 1
 245 1200 228 1143 255 1116 c 0
 310 1062 445 1033 445 925 c 0x30
 445 862 312 664 306 581 c 2
 297 447 l 2
 297 412 298 393 306 393 c 3
 314 393 330 415 362 464 c 10
 572 790 l 17
 601 832 603 832 579 851 c 0
 537 883 537 874 537 941 c 0
 537 991 608 1213 646 1213 c 1
 662 1209 645 1152 672 1125 c 1
 722 1049 855 1038 855 936 c 0
 855 926 852 915 849 904 c 2
 804 763 l 18
 796 737 784 728 770 728 c 0
 737 728 720 768 696 768 c 0
 685 768 674 759 654 728 c 10
 342 257 l 17
 306 209 306 211 306 126 c 2
 306 45 l 2x50
 306 -156 313 -277 313 -357 c 0
 313 -500 230 -521 225 -521 c 0
 205 -521 171 -512 171 -370 c 1x90
 171 501 l 1x50
 171 550 260 701 260 733 c 0x30
EndSplineSet
Validated: 1
MultipleSubs2: "Addhairspacebeforeletter subtable" hairspace finaltsadi
MultipleSubs2: "Addthinspacebeforeletter subtable" thinspace finaltsadi
MultipleSubs2: "AddHairspaceAfterMark subtable" finaltsadi hairspace
MultipleSubs2: "AddThinspaceAfterMark subtable" finaltsadi thinspace
EndChar

StartChar: tsadi
Encoding: 177 1510 119
Width: 1047
VWidth: 2248
GlyphClass: 2
Flags: W
HStem: 0 294<230.472 626.972> 821 305<680.589 900.046> 1203 20G<128.5 153>
VStem: 104 376<890.056 1052.56> 369 106<593.22 820.365> 627 35<1139.41 1211.8>
AnchorPoint: "m2b10" -275 0 basechar 0
AnchorPoint: "m2b9" 660 0 basechar 0
AnchorPoint: "m2b8a" 505 0 basechar 0
AnchorPoint: "m2b8b" 135 0 basechar 0
AnchorPoint: "m2b8c" 810 0 basechar 0
AnchorPoint: "m2b7c" -220 0 basechar 0
AnchorPoint: "m2b7b" 165 0 basechar 0
AnchorPoint: "m2b7a" 65 0 basechar 0
AnchorPoint: "m2b5a" 505 0 basechar 0
AnchorPoint: "m2b5b" 795 0 basechar 0
AnchorPoint: "m2bv2r" 484 0 basechar 0
AnchorPoint: "VbWM" 480 0 basechar 0
AnchorPoint: "VbNM" 420 0 basechar 0
AnchorPoint: "m2b4a" 545 0 basechar 0
AnchorPoint: "m2b4b" 545 0 basechar 0
AnchorPoint: "m2b4c" 545 0 basechar 0
AnchorPoint: "m2b4d" 500 0 basechar 0
AnchorPoint: "m2b1" 500 0 basechar 0
LayerCount: 2
Fore
SplineSet
552 578 m 0xec
 554 578 555 578 556 578 c 0
 569 578 569 581 575 650 c 9
 623 1177 l 17
 623 1219 653 1224 672 1203 c 1
 672 1128 675 1126 738 1126 c 9
 784 1126 l 1
 897 1126 906 1088 906 1041 c 1
 906 958 l 1
 908 942 915 889 915 866 c 0
 915 847 874 821 856 821 c 2
 728 821 l 2
 727 821 721 821 720 821 c 0
 686 821 684 809 677 750 c 10
 664 619 l 17
 664 590 662 569 662 553 c 0
 662 495 674 498 720 453 c 1
 828 362 924 294 924 178 c 1
 924 91 855 0 792 0 c 10
 234 0 l 18
 158 0 129 1 129 26 c 0
 129 41 140 66 159 106 c 9
 205 203 l 17
 247 294 245 294 364 294 c 10
 519 294 l 18
 589 294 627 295 627 333 c 0
 627 363 529 428 466 488 c 0
 434 519 369 551 369 600 c 0
 369 605 369 612 369 617 c 10
 369 757 l 17xec
 369 820 365 821 287 821 c 0
 280 821 l 1
 280 821 276 821 271 821 c 0
 244 821 104 882 104 981 c 3
 104 1061 113 1223 144 1223 c 0
 162 1223 159 1165 193 1145 c 0
 238 1120 311 1124 354 1110 c 0
 408 1092 480 1025 480 966 c 0xf4
 480 880 475 821 475 766 c 0
 475 718 480 687 494 629 c 0
 496 618 521 578 552 578 c 0xec
EndSplineSet
Validated: 1
MultipleSubs2: "Addhairspacebeforeletter subtable" hairspace tsadi
MultipleSubs2: "Addthinspacebeforeletter subtable" thinspace tsadi
MultipleSubs2: "AddHairspaceAfterMark subtable" tsadi hairspace
MultipleSubs2: "AddThinspaceAfterMark subtable" tsadi thinspace
EndChar

StartChar: qof
Encoding: 178 1511 120
Width: 1052
VWidth: 2248
GlyphClass: 2
Flags: W
HStem: 821 307<176 752.815>
VStem: 164 130<-196.372 492.354> 175 171<-487.938 -65.4308> 386 46<-33.4347 16.5154> 837 136<303.089 713.834>
AnchorPoint: "m2b10" -275 0 basechar 0
AnchorPoint: "m2b9" 605 0 basechar 0
AnchorPoint: "m2b8a" 470 0 basechar 0
AnchorPoint: "m2b8b" 160 0 basechar 0
AnchorPoint: "m2b8c" 750 0 basechar 0
AnchorPoint: "m2b7c" -220 0 basechar 0
AnchorPoint: "m2b7b" 165 0 basechar 0
AnchorPoint: "m2b7a" 65 0 basechar 0
AnchorPoint: "m2bmback" 580 0 basechar 0
AnchorPoint: "m2b5a" 605 0 basechar 0
AnchorPoint: "m2b5b" 850 0 basechar 0
AnchorPoint: "m2bvback" 580 0 basechar 0
AnchorPoint: "m2bv2r" 580 0 basechar 0
AnchorPoint: "VbWM" 850 0 basechar 0
AnchorPoint: "VbNM" 700 0 basechar 0
AnchorPoint: "m2b4a" 600 0 basechar 0
AnchorPoint: "m2b4b" 600 0 basechar 0
AnchorPoint: "m2b4c" 650 0 basechar 0
AnchorPoint: "m2b4d" 770 0 basechar 0
AnchorPoint: "m2b1" 450 0 basechar 0
LayerCount: 2
Fore
SplineSet
175 390 m 1xb8
 193 492 274 616 285 616 c 1
 292 616 294 605 294 583 c 0xd8
 294 533 281 423 281 269 c 0
 281 112 294 -90 346 -325 c 1
 346 -358 l 2xb8
 346 -438 341 -442 294 -498 c 0xd8
 273 -522 259 -536 248 -536 c 0
 233 -536 175 -492 175 -442 c 1
 175 -412 175 -384 175 -354 c 0xb8
 175 -155 164 28 164 185 c 0xd8
 164 260 166 329 175 390 c 1xb8
113 1089 m 18
 113 1158 120 1204 145 1204 c 0
 157 1204 167 1193 175 1169 c 0xb8
 187 1130 190 1128 232 1128 c 0
 245 1128 l 2
 738 1128 l 2
 740 1128 l 0
 834 1128 866 1060 889 982 c 8
 962 733 973 581 973 321 c 3
 973 286 946 223 896 192 c 24
 728 89 531 144 432 -10 c 0
 414 -37 400 -38 396 -38 c 0
 378 -38 384 -6 386 3 c 0
 415 101 402 191 512 228 c 0
 624 265 661 261 756 282 c 17
 813 295 837 375 837 464 c 0
 837 567 833 667 764 766 c 0
 733 812 664 821 514 821 c 10
 386 821 l 17
 190 821 113 848 113 988 c 10
 113 1089 l 18
EndSplineSet
Validated: 1
MultipleSubs2: "Addhairspacebeforeletter subtable" hairspace qof
MultipleSubs2: "Addthinspacebeforeletter subtable" thinspace qof
MultipleSubs2: "AddHairspaceAfterMark subtable" qof hairspace
MultipleSubs2: "AddThinspaceAfterMark subtable" qof thinspace
EndChar

StartChar: resh
Encoding: 179 1512 121
Width: 1061
VWidth: 2248
GlyphClass: 2
Flags: W
HStem: 821 304<173.897 760.453>
VStem: 800 133<-19.4043 782.927>
AnchorPoint: "m2b10" -275 0 basechar 0
AnchorPoint: "m2b9" 645 0 basechar 0
AnchorPoint: "m2b8a" 520 0 basechar 0
AnchorPoint: "m2b8b" 120 0 basechar 0
AnchorPoint: "m2b8c" 885 0 basechar 0
AnchorPoint: "m2b7c" -220 0 basechar 0
AnchorPoint: "m2b7b" 160 0 basechar 0
AnchorPoint: "m2b7a" 60 0 basechar 0
AnchorPoint: "m2b5a" 850 0 basechar 0
AnchorPoint: "m2b5b" 975 0 basechar 0
AnchorPoint: "m2bv2left" 859 0 basechar 0
AnchorPoint: "m2b4a" 880 0 basechar 0
AnchorPoint: "m2b4b" 880 0 basechar 0
AnchorPoint: "m2b4c" 785 0 basechar 0
AnchorPoint: "m2b4d" 735 0 basechar 0
AnchorPoint: "m2b1" 475 0 basechar 0
LayerCount: 2
Fore
SplineSet
928 18 m 1
 912 -13 892 -28 874 -28 c 0
 853 -28 808 -7 808 30 c 1
 808 140 800 245 800 354 c 2
 800 655 l 2
 800 736 782 821 632 821 c 1
 384 821 l 1
 215 821 108 849 108 989 c 10
 108 1090 l 18
 108 1114 110 1141 113 1166 c 0
 120 1214 156 1220 171 1170 c 0
 184 1127 186 1125 240 1125 c 2
 644 1125 l 2
 813 1125 933 1062 933 664 c 10
 933 90 l 18
 933 77 934 65 934 53 c 0
 934 42 932 30 928 18 c 1
EndSplineSet
Validated: 1
MultipleSubs2: "Addhairspacebeforeletter subtable" hairspace resh
MultipleSubs2: "Addthinspacebeforeletter subtable" thinspace resh
MultipleSubs2: "AddHairspaceAfterMark subtable" resh hairspace
MultipleSubs2: "AddThinspaceAfterMark subtable" resh thinspace
Substitution2: "jaltWideLetterAlternativesinHeb subtable" resh.wide
EndChar

StartChar: shin
Encoding: 180 1513 122
Width: 1403
VWidth: 2248
GlyphClass: 2
Flags: W
HStem: 0 296<380 443.25 557.344 865.784>
VStem: 159 120<451.543 700.727>
AnchorPoint: "m2b10" -275 0 basechar 0
AnchorPoint: "m2b9" 830 0 basechar 0
AnchorPoint: "m2b8a" 675 0 basechar 0
AnchorPoint: "m2b8b" 145 0 basechar 0
AnchorPoint: "m2b8c" 1170 0 basechar 0
AnchorPoint: "m2b7c" -220 0 basechar 0
AnchorPoint: "m2b7b" 245 0 basechar 0
AnchorPoint: "m2b7a" 145 0 basechar 0
AnchorPoint: "m2b5a" 525 0 basechar 0
AnchorPoint: "m2b5b" 990 0 basechar 0
AnchorPoint: "m2bv2r" 520 0 basechar 0
AnchorPoint: "VbWM" 510 0 basechar 0
AnchorPoint: "VbNM" 450 0 basechar 0
AnchorPoint: "m2b4a" 525 0 basechar 0
AnchorPoint: "m2b4b" 525 0 basechar 0
AnchorPoint: "m2b4c" 525 0 basechar 0
AnchorPoint: "m2b4d" 525 0 basechar 0
AnchorPoint: "m2b1" 675 0 basechar 0
LayerCount: 2
Fore
SplineSet
579 296 m 2
 838 296 l 2
 864 296 878 298 898 342 c 1
 1037 628 l 1
 1049 649 1055 667 1055 682 c 0
 1055 696 1050 709 1038 720 c 1
 966 853 l 18
 958 868 950 884 950 906 c 0
 950 941 962 983 983 1016 c 10
 1080 1170 l 17
 1091 1185 1102 1192 1112 1192 c 0
 1124 1192 1132 1181 1132 1165 c 0
 1132 1150 1126 1129 1126 1114 c 0
 1126 1104 1128 1095 1135 1090 c 10
 1248 996 l 17
 1288 959 1307 925 1307 889 c 0
 1307 859 1288 829 1266 788 c 2
 873 53 l 1
 832 1 833 0 790 0 c 2
 199 0 l 1
 199 30 221 61 221 92 c 0
 221 350 159 352 159 521 c 27
 159 631 195 687 250 788 c 9
 166 836 l 17
 141 852 118 878 118 911 c 0
 118 920 120 928 123 937 c 2
 195 1172 l 17
 203 1193 215 1202 225 1202 c 0
 238 1202 249 1189 249 1166 c 0
 249 1145 253 1116 269 1109 c 10
 386 1058 l 17
 444 1026 480 992 480 948 c 0
 480 911 428 786 391 717 c 1
 360 730 378 717 336 744 c 1
 309 687 279 661 279 602 c 0
 279 575 286 546 300 516 c 1
 380 296 l 1
 418 296 424 304 440 330 c 9
 648 775 l 25
 562 851 l 17
 543 870 527 893 527 920 c 0
 527 932 529 944 536 957 c 2
 648 1177 l 17
 659 1196 673 1202 682 1201 c 0
 696 1199 700 1186 700 1171 c 0
 710 1101 l 10
 823 1025 l 17
 869 988 898 952 898 914 c 0
 898 910 897 903 896 899 c 0
 887 863 828 760 780 699 c 1
 744 711 759 709 723 729 c 1
 552 328 l 2
 541 302 546 296 579 296 c 2
EndSplineSet
Validated: 1
MultipleSubs2: "Addhairspacebeforeletter subtable" hairspace shin
MultipleSubs2: "Addthinspacebeforeletter subtable" thinspace shin
MultipleSubs2: "AddHairspaceAfterMark subtable" shin hairspace
MultipleSubs2: "AddThinspaceAfterMark subtable" shin thinspace
EndChar

StartChar: tav
Encoding: 181 1514 123
Width: 1190
VWidth: 2248
GlyphClass: 2
Flags: W
HStem: 0 294<131.84 306.983> 821 304<363.899 895.969>
VStem: 230 125<458.499 824.927> 307 181<272 380.279> 934 128<-21.0739 782.927>
AnchorPoint: "m2b10" -275 0 basechar 0
AnchorPoint: "m2b9" 725 0 basechar 0
AnchorPoint: "m2b8a" 550 0 basechar 0
AnchorPoint: "m2b8b" 155 0 basechar 0
AnchorPoint: "m2b8c" 980 0 basechar 0
AnchorPoint: "m2b7c" -220 0 basechar 0
AnchorPoint: "m2b7b" 190 0 basechar 0
AnchorPoint: "m2b7a" 90 0 basechar 0
AnchorPoint: "m2b5a" 670 0 basechar 0
AnchorPoint: "m2b5b" 1010 0 basechar 0
AnchorPoint: "m2bv2r" 680 0 basechar 0
AnchorPoint: "VbWM" 630 0 basechar 0
AnchorPoint: "VbNM" 570 0 basechar 0
AnchorPoint: "m2b4a" 560 0 basechar 0
AnchorPoint: "m2b4b" 560 0 basechar 0
AnchorPoint: "m2b4c" 600 0 basechar 0
AnchorPoint: "m2b4d" 600 0 basechar 0
AnchorPoint: "m2b3" 550 0 basechar 0
AnchorPoint: "m2b1" 550 0 basechar 0
LayerCount: 2
Fore
SplineSet
307 313 m 0xd8
 307 351 230 424 230 622 c 0
 230 691 243 762 259 836 c 1
 183 856 140 899 140 989 c 10
 140 1090 l 18
 140 1114 141 1141 144 1166 c 0
 151 1214 187 1220 202 1170 c 0
 215 1127 217 1125 271 1125 c 2
 773 1125 l 2
 942 1125 1062 1062 1062 664 c 10
 1062 90 l 18
 1062 77 1063 65 1063 53 c 0
 1063 42 1061 30 1057 18 c 1
 1041 -13 1021 -28 1004 -28 c 0
 983 -28 941 -7 941 30 c 0
 941 140 934 245 934 354 c 2
 934 655 l 2
 934 736 915 821 766 821 c 1
 481 821 l 1
 476 821 471 821 465 821 c 0
 432 821 401 824 373 827 c 1
 361 768 355 717 355 672 c 0xe8
 355 435 488 360 488 281 c 0
 488 263 483 241 475 205 c 9
 445 82 l 17
 426 1 385 0 312 0 c 0
 311 0 309 0 307 0 c 10
 143 0 l 18
 101 0 84 0 84 32 c 0
 84 54 93 93 108 160 c 0
 140 294 138 294 224 294 c 0
 284 294 307 294 307 313 c 0xd8
EndSplineSet
Validated: 1
MultipleSubs2: "Addhairspacebeforeletter subtable" hairspace tav
MultipleSubs2: "Addthinspacebeforeletter subtable" thinspace tav
MultipleSubs2: "AddHairspaceAfterMark subtable" tav hairspace
MultipleSubs2: "AddThinspaceAfterMark subtable" tav thinspace
Substitution2: "jaltWideLetterAlternativesinHeb subtable" tav.wide
EndChar

StartChar: geresh
Encoding: 185 1523 127
Width: 378
VWidth: 58
GlyphClass: 2
Flags: W
HStem: 678 558<140.265 155>
LayerCount: 2
Fore
SplineSet
122 985 m 0
 96 1013 62 1045 62 1098 c 0
 62 1174 124 1236 200 1236 c 0
 277 1236 338 1174 338 1098 c 0
 338 1074 335 1056 330 1039 c 0
 294 914 220 785 164 692 c 2
 155 678 l 1
 40 678 l 1
 59 720 l 2
 91 790 139 858 139 956 c 0
 139 957 139 958 139 959 c 0
 139 962 139 964 135 969 c 0
 133 972 129 977 122 985 c 0
EndSplineSet
Validated: 1
EndChar

StartChar: zerononjoin
Encoding: 189 8204 131
Width: 0
GlyphClass: 2
Flags: MW
HStem: 1613 281
VStem: -141 281
LayerCount: 2
Fore
SplineSet
-108 1894 m 1
 0 1786 l 1
 106 1893 l 1
 140 1860 l 1
 33 1753 l 1
 140 1646 l 1
 106 1613 l 1
 0 1719 l 1
 -108 1613 l 1
 -141 1646 l 1
 -34 1753 l 1
 -141 1860 l 1
 -108 1894 l 1
EndSplineSet
Validated: 1
EndChar

StartChar: zerojoin
Encoding: 190 8205 132
Width: 0
GlyphClass: 2
Flags: MW
HStem: 1637 140<-203 -156 157 204> 1730 47<-156 157>
VStem: -203 47<1637 1730> 157 47<1637 1730>
LayerCount: 2
Fore
SplineSet
157 1637 m 1xb0
 157 1730 l 1
 -156 1730 l 1x70
 -156 1637 l 1
 -203 1637 l 1
 -203 1777 l 1
 204 1777 l 1
 204 1637 l 1
 157 1637 l 1xb0
EndSplineSet
Validated: 1
EndChar

StartChar: lrm
Encoding: 191 8206 133
Width: 0
GlyphClass: 2
Flags: MW
HStem: 1730 47<-154 104>
VStem: -154 349
LayerCount: 2
Fore
SplineSet
21 1860 m 1
 54 1894 l 1
 195 1753 l 1
 54 1612 l 1
 21 1646 l 1
 105 1730 l 1
 -154 1730 l 1
 -154 1777 l 1
 104 1777 l 1
 21 1860 l 1
EndSplineSet
Validated: 1
EndChar

StartChar: rlm
Encoding: 192 8207 134
Width: 0
GlyphClass: 2
Flags: MW
HStem: 1730 47<-103 155>
VStem: -194 349
LayerCount: 2
Fore
SplineSet
-20 1647 m 1
 -53 1613 l 1
 -194 1754 l 1
 -53 1895 l 1
 -20 1861 l 1
 -104 1777 l 1
 155 1777 l 1
 155 1730 l 1
 -103 1730 l 1
 -20 1647 l 1
EndSplineSet
Validated: 1
EndChar

StartChar: newshekel
Encoding: 199 8362 141
Width: 1415
VWidth: 2248
GlyphClass: 2
Flags: W
HStem: 0 266<481.021 710 826 871.989> 743 270<288.199 713.998 804 853.768>
VStem: 136 744<787.372 993.906> 180 128<31.7811 541.881> 180 102<154.072 736.968> 390 88<269.112 413.552> 444 40<707 722.391> 710 124<266.509 730.022> 714 90<329.998 730.734> 970 164<824 988> 1090 190<652 789>
LayerCount: 2
Fore
SplineSet
308 75 m 0xd0
 308 48 206 0 198 0 c 0
 186 0 180 22 180 67 c 10xd0
 180 626 l 18
 180 634 180 642 180 649 c 0xc8
 180 691 182 710 232 743 c 1
 190 754 136 840 136 909 c 10
 136 985 l 18
 136 1004 136 1023 140 1042 c 0
 146 1079 178 1084 192 1046 c 0
 204 1013 206 1013 254 1013 c 2
 740 1013 l 2
 842 1013 848 987 860 950 c 2
 874 916 l 2
 880 900 880 882 880 864 c 0xe0
 880 800 854 730 850 730 c 2
 850 730 804 761 804 722 c 2
 804 655 l 2xc080
 804 515 834 453 834 324 c 0
 834 300 830 281 826 265 c 1
 850 266 l 2
 874 266 886 268 904 302 c 2
 1078 608 l 1
 1084 625 1090 645 1090 659 c 0xc120
 1090 669 1086 680 1074 689 c 2
 984 780 l 18
 976 789 970 805 970 824 c 0xc040
 970 851 982 885 1000 904 c 10
 1090 993 l 17xc020
 1110 1017 1134 1012 1134 988 c 0xc040
 1134 968 1120 945 1136 932 c 10
 1226 857 l 17
 1266 825 1280 800 1280 778 c 0
 1280 751 1260 728 1242 699 c 2
 872 40 l 1
 836 1 836 0 796 0 c 2
 378 0 l 1
 388 19 390 45 390 69 c 1
 390 192 390 252 390 292 c 0xc420
 390 343 402 366 456 448 c 9
 396 478 l 17
 370 491 362 506 362 519 c 0
 362 536 372 551 380 567 c 2
 444 707 l 18
 456 732 484 731 484 704 c 0xc2
 484 691 486 672 498 669 c 10
 610 621 l 17
 656 600 676 585 676 559 c 0
 676 526 644 479 586 389 c 1
 562 402 542 410 514 418 c 1
 486 370 478 358 478 334 c 0
 478 303 492 289 494 287 c 1
 500 268 532 266 570 266 c 1
 584 266 594 266 604 266 c 2
 710 266 l 2xc5
 710 266 714 595 714 679 c 0
 714 698 l 1
 714 739 712 743 662 743 c 0
 482 743 472 740 294 740 c 1
 286 692 282 645 282 597 c 0xc880
 282 452 308 293 308 75 c 0xd0
EndSplineSet
Validated: 1
EndChar

StartChar: dottedcircle
Encoding: 201 9676 142
Width: 1244
GlyphClass: 2
Flags: W
HStem: -12 143<554.435 690.555> 48 143<320.435 456.555 788.435 924.555> 222 143<146.435 282.555 962.435 1098.55> 456 143<86.4348 222.555 1022.43 1158.55> 690 143<146.435 282.555 962.435 1098.55> 864 143<320.435 456.555 788.435 924.555> 924 143<554.435 690.555>
VStem: 83 143<459.435 595.555> 143 143<225.435 361.555 693.435 829.555> 317 143<51.4348 187.555 867.435 1003.55> 551 143<-8.56516 127.555 927.435 1063.55> 785 143<51.4348 187.555 867.435 1003.55> 959 143<225.435 361.555 693.435 829.555> 1019 143<459.435 595.555>
AnchorPoint: "m2b9" 770 0 basechar 0
AnchorPoint: "m2b8a" 622 0 basechar 0
AnchorPoint: "m2b8b" 150 0 basechar 0
AnchorPoint: "m2b8c" 1030 0 basechar 0
AnchorPoint: "m2b7a" 150 0 basechar 0
AnchorPoint: "m2b5a" 622 0 basechar 0
AnchorPoint: "m2b5b" 1000 0 basechar 0
AnchorPoint: "m2b4a" 622 0 basechar 0
AnchorPoint: "m2b4b" 622 0 basechar 0
AnchorPoint: "m2b4c" 622 0 basechar 0
AnchorPoint: "m2b4d" 622 0 basechar 0
AnchorPoint: "m2b3" 622 0 basechar 0
AnchorPoint: "m2b2" 622 0 basechar 0
AnchorPoint: "m2b1" 622 0 basechar 0
AnchorPoint: "m2b0" 620 0 basechar 0
LayerCount: 2
Fore
SplineSet
83 527 m 0x3970
 83 575 107 599 154 599 c 0
 202 599 226 575 226 527 c 0
 226 480 202 456 154 456 c 0
 107 456 83 480 83 527 c 0x3970
1019 527 m 0x3874
 1019 575 1043 599 1090 599 c 0
 1138 599 1162 575 1162 527 c 0
 1162 480 1138 456 1090 456 c 0
 1043 456 1019 480 1019 527 c 0x3874
551 995 m 0
 551 1043 575 1067 622 1067 c 0
 670 1067 694 1043 694 995 c 0
 694 948 670 924 622 924 c 0x3a70
 575 924 551 948 551 995 c 0
551 59 m 0
 551 107 575 131 622 131 c 0
 670 131 694 107 694 59 c 0
 694 12 670 -12 622 -12 c 0xb870
 575 -12 551 12 551 59 c 0
959 761 m 0x3878
 959 809 983 833 1030 833 c 0
 1078 833 1102 809 1102 761 c 0
 1102 714 1078 690 1030 690 c 0
 983 690 959 714 959 761 c 0x3878
959 293 m 0
 959 341 983 365 1030 365 c 0
 1078 365 1102 341 1102 293 c 0
 1102 246 1078 222 1030 222 c 0
 983 222 959 246 959 293 c 0
143 761 m 0x38f0
 143 809 167 833 214 833 c 0
 262 833 286 809 286 761 c 0
 286 714 262 690 214 690 c 0
 167 690 143 714 143 761 c 0x38f0
143 293 m 0
 143 341 167 365 214 365 c 0
 262 365 286 341 286 293 c 0
 286 246 262 222 214 222 c 0
 167 222 143 246 143 293 c 0
317 935 m 0
 317 983 341 1007 388 1007 c 0
 436 1007 460 983 460 935 c 0
 460 888 436 864 388 864 c 0x3c70
 341 864 317 888 317 935 c 0
785 935 m 0
 785 983 809 1007 856 1007 c 0
 904 1007 928 983 928 935 c 0
 928 888 904 864 856 864 c 0
 809 864 785 888 785 935 c 0
317 119 m 0
 317 167 341 191 388 191 c 0
 436 191 460 167 460 119 c 0
 460 72 436 48 388 48 c 0x7870
 341 48 317 72 317 119 c 0
785 119 m 0
 785 167 809 191 856 191 c 0
 904 191 928 167 928 119 c 0
 928 72 904 48 856 48 c 0
 809 48 785 72 785 119 c 0
EndSplineSet
Validated: 1
EndChar

StartChar: jsvarika
Encoding: 203 64286 143
Width: 0
VWidth: 2248
GlyphClass: 4
Flags: W
HStem: 1288 112<-106.625 106.625>
VStem: -212 120<1402.46 1450.41> 92 120<1402.46 1450.41>
AnchorPoint: "m2mrafe" 0 200 basemark 0
AnchorPoint: "m2b3" 0 0 mark 0
LayerCount: 2
Fore
SplineSet
0 1400 m 0
 63 1400 92 1406 92 1434 c 0
 92 1445 136 1452 158 1452 c 0
 184 1452 212 1446 212 1434 c 0
 212 1346 116 1288 0 1288 c 0
 -116 1288 -212 1346 -212 1434 c 0
 -212 1446 -184 1452 -158 1452 c 0
 -136 1452 -92 1445 -92 1434 c 0
 -92 1406 -63 1400 0 1400 c 0
EndSplineSet
Validated: 1
EndChar

StartChar: ayin.alt
Encoding: 205 64288 145
Width: 1082
VWidth: 2248
GlyphClass: 2
Flags: W
VStem: 144 374<818.193 997.547> 243 98<603.077 735.575> 346 105<316.01 476.899>
AnchorPoint: "m2b10" -275 0 basechar 0
AnchorPoint: "m2b9" 710 0 basechar 0
AnchorPoint: "m2b8a" 560 0 basechar 0
AnchorPoint: "m2b8b" 210 0 basechar 0
AnchorPoint: "m2b8c" 870 0 basechar 0
AnchorPoint: "m2b7c" -220 0 basechar 0
AnchorPoint: "m2b7b" 270 0 basechar 0
AnchorPoint: "m2b7a" 170 0 basechar 0
AnchorPoint: "m2b5a" 605 0 basechar 0
AnchorPoint: "m2b5b" 850 0 basechar 0
AnchorPoint: "m2bv2r" 515 0 basechar 0
AnchorPoint: "HbWM" 360 0 basechar 0
AnchorPoint: "HbNM" 300 0 basechar 0
AnchorPoint: "VbWM" 530 0 basechar 0
AnchorPoint: "VbNM" 470 0 basechar 0
AnchorPoint: "m2bpg" 950 0 basechar 0
AnchorPoint: "m2b4a" 515 0 basechar 0
AnchorPoint: "m2b4b" 515 0 basechar 0
AnchorPoint: "m2b4c" 515 0 basechar 0
AnchorPoint: "m2b4d" 480 0 basechar 0
AnchorPoint: "m2b2" 570 50 basechar 0
AnchorPoint: "m2b1" 560 0 basechar 0
LayerCount: 2
Fore
SplineSet
243 613 m 0x60
 243 627 243 637 243 646 c 0x60
 243 672 251 705 270 768 c 1
 241 792 144 806 144 931 c 0
 144 988 217 1203 250 1203 c 2
 252 1203 l 1
 268 1199 254 1142 281 1115 c 0
 336 1061 518 1023 518 915 c 0x80
 518 905 515 895 513 884 c 2
 481 738 l 17
 471 707 465 693 452 693 c 0
 439 693 393 727 350 738 c 1
 346 718 341 693 341 668 c 0
 341 647 344 625 351 602 c 0
 366 547 451 525 451 359 c 0
 451 330 453 316 471 316 c 0
 480 316 492 319 509 325 c 1
 729 386 672 390 789 672 c 1
 796 701 801 700 801 715 c 0
 801 729 760 753 748 764 c 1
 670 845 l 17
 658 856 648 895 648 917 c 0
 648 952 660 994 681 1027 c 10
 777 1181 l 17
 788 1196 799 1203 809 1203 c 0
 821 1203 830 1192 830 1176 c 0
 830 1161 823 1140 823 1125 c 0
 823 1115 825 1106 832 1101 c 10
 945 1007 l 17
 985 970 1004 935 1004 899 c 1
 1004 854 978 796 926 685 c 0
 893 615 815 345 790 224 c 1
 778 165 680 67 578 42 c 9
 115 -85 l 17
 82 -93 60 -98 46 -98 c 0
 32 -98 25 -92 25 -78 c 0
 25 -63 33 -37 45 4 c 9
 76 106 l 17
 105 208 103 205 170 228 c 9
 306 272 l 17
 331 279 342 295 342 314 c 0
 342 323 346 336 346 352 c 0
 346 360 345 369 342 379 c 1
 304 512 243 537 243 613 c 0x60
EndSplineSet
MultipleSubs2: "Addhairspacebeforeletter subtable" hairspace ayin.alt
MultipleSubs2: "Addthinspacebeforeletter subtable" thinspace ayin.alt
MultipleSubs2: "AddHairspaceAfterMark subtable" ayin.alt hairspace
MultipleSubs2: "AddThinspaceAfterMark subtable" ayin.alt thinspace
EndChar

StartChar: alef.wide
Encoding: 206 64289 146
Width: 1953
VWidth: 2248
GlyphClass: 2
Flags: W
HStem: 0 21G<79.5 100 1639.5 1690> 631 573<332.5 598> 1210 20G<1488 1524>
VStem: 103 266<305.5 486.833> 1202 329<933.5 1160>
AnchorPoint: "m2b10" -275 0 basechar 0
AnchorPoint: "m2b9" 1120 0 basechar 0
AnchorPoint: "m2b8a" 900 0 basechar 0
AnchorPoint: "m2b8b" 210 0 basechar 0
AnchorPoint: "m2b8c" 1665 0 basechar 0
AnchorPoint: "m2b7c" -220 0 basechar 0
AnchorPoint: "m2b7b" 300 0 basechar 0
AnchorPoint: "m2b7a" 220 0 basechar 0
AnchorPoint: "m2b5a" 1025 0 basechar 0
AnchorPoint: "m2b5b" 1650 0 basechar 0
AnchorPoint: "m2b4a" 1030 0 basechar 0
AnchorPoint: "m2b4b" 1030 0 basechar 0
AnchorPoint: "m2b4c" 1030 0 basechar 0
AnchorPoint: "m2b4d" 1030 0 basechar 0
AnchorPoint: "m2b3" 900 0 basechar 0
AnchorPoint: "m2b2" 1050 -450 basechar 0
AnchorPoint: "m2b1" 900 0 basechar 0
LayerCount: 2
Fore
SplineSet
138 990 m 27
 138 1111 302 1204 363 1204 c 4
 389 1204 375 1170 386 1125 c 0
 430 936 836 807 1218 639 c 9
 1379 811 l 25
 1272 855 l 17
 1224 885 1202 917 1202 950 c 0
 1202 993 1238 1038 1288 1076 c 8
 1372 1140 1465 1230 1511 1230 c 3
 1537 1230 1569 1212 1569 1200 c 0
 1569 1184 1531 1171 1531 1149 c 0
 1531 1066 1865 1034 1865 937 c 0
 1865 876 1704 792 1601 699 c 25
 1496 760 l 25
 1340 589 l 25
 1657 445 l 17
 1782 381 1826 264 1826 192 c 0
 1826 55 1726 0 1654 0 c 0
 1625 0 1621 56 1578 105 c 0
 1376 338 971 428 681 592 c 9
 640 607 620 631 576 631 c 3
 503 631 369 531 369 453 c 3
 369 343 702 353 702 144 c 3
 702 57 464 4 383 4 c 10
 150 4 l 17
 129 4 109 0 91 0 c 0
 68 0 52 7 52 30 c 11
 52 132 296 48 296 126 c 3
 296 171 103 255 103 356 c 0
 103 478 237 627 430 690 c 1
 261 785 138 827 138 990 c 27
EndSplineSet
Validated: 1
MultipleSubs2: "Addhairspacebeforeletter subtable" hairspace alef.wide
MultipleSubs2: "Addthinspacebeforeletter subtable" thinspace alef.wide
MultipleSubs2: "AddHairspaceAfterMark subtable" alef.wide hairspace
MultipleSubs2: "AddThinspaceAfterMark subtable" alef.wide thinspace
EndChar

StartChar: dalet.wide
Encoding: 207 64290 147
Width: 2021
VWidth: 2248
GlyphClass: 2
Flags: W
HStem: 0 21G<1772.5 1781.5> 823 303<169.897 1697.93>
VStem: 1698 155<18.0287 656.529> 1698 126<242.459 818.541>
AnchorPoint: "m2b10" -275 0 basechar 0
AnchorPoint: "m2b9" 1110 0 basechar 0
AnchorPoint: "m2b8a" 955 0 basechar 0
AnchorPoint: "m2b8b" 85 0 basechar 0
AnchorPoint: "m2b8c" 1725 0 basechar 0
AnchorPoint: "m2b7c" -220 0 basechar 0
AnchorPoint: "m2b7b" 170 0 basechar 0
AnchorPoint: "m2b7a" 55 0 basechar 0
AnchorPoint: "m2b5a" 1755 0 basechar 0
AnchorPoint: "m2b5b" 1935 0 basechar 0
AnchorPoint: "m2bv2left" 1750 0 basechar 0
AnchorPoint: "m2b4a" 1775 0 basechar 0
AnchorPoint: "m2b4b" 1775 0 basechar 0
AnchorPoint: "m2b4c" 1775 0 basechar 0
AnchorPoint: "m2b4d" 1600 0 basechar 0
AnchorPoint: "m2b3" 955 0 basechar 0
AnchorPoint: "m2b2" 990 0 basechar 0
AnchorPoint: "m2b1" 955 0 basechar 0
LayerCount: 2
Fore
SplineSet
380 823 m 18xd0
 211 823 104 848 104 988 c 10
 104 1089 l 18
 104 1113 106 1140 109 1165 c 0
 116 1213 152 1219 167 1169 c 0
 180 1126 182 1126 236 1126 c 1
 1741 1126 l 1
 1854 1126 1893 1078 1907 1029 c 1
 1920 947 l 2
 1927 909 1931 878 1931 855 c 0
 1931 820 1916 794 1908 794 c 1
 1901 793 1892 797 1882 809 c 0
 1868 827 1829 825 1824 817 c 1
 1824 709 l 2xd0
 1824 523 1827 330 1853 162 c 1
 1853 19 1784 0 1779 0 c 0
 1766 0 1698 18 1698 65 c 0xe0
 1698 188 1698 548 1698 697 c 0
 1698 724 1698 745 1698 756 c 0
 1698 761 1698 764 1698 765 c 1
 1698 819 1697 823 1642 823 c 10
 380 823 l 18xd0
EndSplineSet
MultipleSubs2: "Addhairspacebeforeletter subtable" hairspace dalet.wide
MultipleSubs2: "Addthinspacebeforeletter subtable" thinspace dalet.wide
MultipleSubs2: "AddHairspaceAfterMark subtable" dalet.wide hairspace
MultipleSubs2: "AddThinspaceAfterMark subtable" dalet.wide thinspace
EndChar

StartChar: he.wide
Encoding: 208 64291 148
Width: 2047
VWidth: 2248
GlyphClass: 2
Flags: W
HStem: -12 21G<143 153.5 1818.5 1827.5> 821 304<184.444 1748.88 1872 1911.42>
VStem: 136 166<91.5488 594.887> 1740 159<17.2611 654.529> 1749 123<248.678 820.871>
AnchorPoint: "m2b10" -275 0 basechar 0
AnchorPoint: "m2b9" 1170 0 basechar 0
AnchorPoint: "m2b8a" 1015 0 basechar 0
AnchorPoint: "m2b8b" 100 0 basechar 0
AnchorPoint: "m2b8c" 1785 0 basechar 0
AnchorPoint: "m2b7c" -220 0 basechar 0
AnchorPoint: "m2b7b" 175 0 basechar 0
AnchorPoint: "m2b7a" 70 0 basechar 0
AnchorPoint: "m2b5a" 1015 0 basechar 0
AnchorPoint: "m2b5b" 1785 0 basechar 0
AnchorPoint: "m2bpg" 1950 0 basechar 0
AnchorPoint: "m2b4a" 1015 0 basechar 0
AnchorPoint: "m2b4b" 1015 0 basechar 0
AnchorPoint: "m2b4c" 1015 0 basechar 0
AnchorPoint: "m2b4d" 1015 0 basechar 0
AnchorPoint: "m2b3" 1015 0 basechar 0
AnchorPoint: "m2b2" 1015 0 basechar 0
AnchorPoint: "m2b1" 1015 0 basechar 0
LayerCount: 2
Fore
SplineSet
302 572 m 10xe0
 302 214 l 18
 302 122 257 90 203 35 c 1
 174 4 158 -12 149 -12 c 0
 137 -12 136 16 136 76 c 10
 136 467 l 18
 136 550 136 549 190 605 c 0
 219 634 278 681 288 681 c 0
 302 681 302 646 302 572 c 10xe0
394 821 m 18
 225 821 119 848 119 988 c 10
 119 1089 l 18
 119 1113 120 1140 123 1165 c 0
 130 1213 166 1219 181 1169 c 0
 194 1126 196 1125 250 1125 c 1
 1791 1125 l 1
 1904 1125 1911 1090 1925 1041 c 1
 1938 959 l 2
 1945 921 1946 890 1946 867 c 0
 1946 832 1931 806 1923 806 c 1
 1916 805 1914 821 1896 821 c 0
 1878 821 1872 818 1872 796 c 2
 1872 707 l 1xe8
 1872 521 1873 328 1899 160 c 1
 1899 17 1830 0 1825 0 c 0
 1812 0 1740 20 1740 67 c 0xf0
 1740 190 1749 547 1749 696 c 0
 1749 723 1749 744 1749 755 c 0
 1749 760 1749 763 1749 764 c 1xe8
 1749 818 1746 821 1691 821 c 2
 394 821 l 18
EndSplineSet
MultipleSubs2: "Addhairspacebeforeletter subtable" hairspace he.wide
MultipleSubs2: "Addthinspacebeforeletter subtable" thinspace he.wide
MultipleSubs2: "AddHairspaceAfterMark subtable" he.wide hairspace
MultipleSubs2: "AddThinspaceAfterMark subtable" he.wide thinspace
EndChar

StartChar: kaf.wide
Encoding: 209 64292 149
Width: 2141
VWidth: 2248
GlyphClass: 2
Flags: W
HStem: 0 299<191.469 1888.42> 822 303<188.25 1875.8>
VStem: 1911 126<298.489 787.118>
AnchorPoint: "m2b10" -275 0 basechar 0
AnchorPoint: "m2b9" 1170 0 basechar 0
AnchorPoint: "m2b8a" 1015 0 basechar 0
AnchorPoint: "m2b8b" 110 0 basechar 0
AnchorPoint: "m2b8c" 1830 0 basechar 0
AnchorPoint: "m2b7c" -220 0 basechar 0
AnchorPoint: "m2b7b" 200 0 basechar 0
AnchorPoint: "m2b7a" 75 0 basechar 0
AnchorPoint: "m2b5a" 1015 0 basechar 0
AnchorPoint: "m2b5b" 1800 0 basechar 0
AnchorPoint: "m2b4a" 1015 0 basechar 0
AnchorPoint: "m2b4b" 1015 0 basechar 0
AnchorPoint: "m2b4c" 1015 0 basechar 0
AnchorPoint: "m2b4d" 1015 0 basechar 0
AnchorPoint: "m2b3" 1015 0 basechar 0
AnchorPoint: "m2b2" 1015 0 basechar 0
AnchorPoint: "m2b1" 1031 0 basechar 0
LayerCount: 2
Fore
SplineSet
1981 203 m 10
 1914 91 l 17
 1867 0 1868 0 1762 0 c 2
 127 0 l 1
 78 0 55 0 55 19 c 1
 55 31 68 53 90 89 c 10
 159 202 l 17
 212 294 212 299 329 299 c 2
 1830 297 l 2
 1909 297 1911 304 1911 382 c 2
 1911 659 l 2
 1911 734 1892 825 1743 825 c 10
 398 827 l 18
 393 827 386 822 381 822 c 0
 222 822 123 853 123 988 c 10
 123 1089 l 18
 123 1113 124 1140 127 1165 c 0
 134 1213 171 1219 186 1169 c 0
 199 1126 201 1125 255 1125 c 1
 1769 1125 l 1
 1938 1125 2037 1001 2037 903 c 2
 2037 364 l 2
 2037 287 2006 246 1981 203 c 10
EndSplineSet
Validated: 1
MultipleSubs2: "Addhairspacebeforeletter subtable" hairspace kaf.wide
MultipleSubs2: "Addthinspacebeforeletter subtable" thinspace kaf.wide
MultipleSubs2: "AddHairspaceAfterMark subtable" kaf.wide hairspace
MultipleSubs2: "AddThinspaceAfterMark subtable" kaf.wide thinspace
EndChar

StartChar: lamed.wide
Encoding: 210 64293 150
Width: 1713
VWidth: 2248
GlyphClass: 2
Flags: W
HStem: 820 304<196.772 1401.2>
VStem: 102 69<1154.11 1475.28> 205 87<1518.81 1604> 1471 188<446.875 595.962>
AnchorPoint: "m2b10" -275 0 basechar 0
AnchorPoint: "m2b9" 1100 0 basechar 0
AnchorPoint: "m2b8a" 845 0 basechar 0
AnchorPoint: "m2b8b" -55 0 basechar 0
AnchorPoint: "m2b8c" 1470 0 basechar 0
AnchorPoint: "m2b7c" -220 0 basechar 0
AnchorPoint: "m2b7a" -60 0 basechar 0
AnchorPoint: "m2b5a" 920 0 basechar 0
AnchorPoint: "m2b5b" 1545 0 basechar 0
AnchorPoint: "m2b4a" 920 0 basechar 0
AnchorPoint: "m2b4b" 920 0 basechar 0
AnchorPoint: "m2b4c" 920 0 basechar 0
AnchorPoint: "m2b4d" 920 0 basechar 0
AnchorPoint: "m2b2" 845 0 basechar 0
AnchorPoint: "m2b1" 845 0 basechar 0
LayerCount: 2
Fore
SplineSet
102 1414 m 18
 102 1495 205 1484 205 1551 c 27
 205 1603 137 1585 137 1665 c 3
 137 1712 190 1766 205 1766 c 3
 227 1766 222 1736 232 1717 c 24
 256 1670 292 1649 292 1596 c 27
 292 1511 171 1492 171 1415 c 10
 171 1285 l 18
 171 1206 201 1124 254 1124 c 10
 1396 1124 l 18
 1543 1124 1563 1066 1586 960 c 9
 1652 507 l 17
 1652 495 1659 442 1659 431 c 0
 1659 401 1613 363 1563 333 c 9
 1127 136 l 18
 1097 122 1071 122 1071 101 c 0
 1071 75 1003 35 987 20 c 9
 880 -61 l 18
 871 -68 855 -50 855 -36 c 0
 855 7 858 167 914 195 c 10
 1443 455 l 17
 1469 466 1471 480 1471 496 c 0
 1471 508 1468 525 1461 552 c 10
 1420 736 l 17
 1404 791 1368 820 1287 820 c 10
 248 820 l 18
 185 820 102 863 102 982 c 10
 102 1414 l 18
EndSplineSet
Validated: 1
MultipleSubs2: "Addhairspacebeforeletter subtable" hairspace lamed.wide
MultipleSubs2: "Addthinspacebeforeletter subtable" thinspace lamed.wide
MultipleSubs2: "AddHairspaceAfterMark subtable" lamed.wide hairspace
MultipleSubs2: "AddThinspaceAfterMark subtable" lamed.wide thinspace
EndChar

StartChar: finalmem.wide
Encoding: 211 64294 151
Width: 2074
VWidth: 2248
GlyphClass: 2
Flags: W
HStem: 0 291<276 1817> 821 305<355.737 1769.25>
VStem: 1817 136<291.002 776.402>
AnchorPoint: "m2b9" 1145 0 basechar 0
AnchorPoint: "m2b8a" 990 0 basechar 0
AnchorPoint: "m2b8b" 165 0 basechar 0
AnchorPoint: "m2b8c" 1800 0 basechar 0
AnchorPoint: "m2b7b" 180 0 basechar 0
AnchorPoint: "m2b7a" 100 0 basechar 0
AnchorPoint: "m2b5a" 990 0 basechar 0
AnchorPoint: "m2b5b" 1845 0 basechar 0
AnchorPoint: "m2b4a" 990 0 basechar 0
AnchorPoint: "m2b4b" 990 0 basechar 0
AnchorPoint: "m2b4c" 990 0 basechar 0
AnchorPoint: "m2b4d" 990 0 basechar 0
AnchorPoint: "m2b2" 990 0 basechar 0
AnchorPoint: "m2b1" 990 0 basechar 0
LayerCount: 2
Fore
SplineSet
481 821 m 2
 415 821 406 821 398 821 c 0
 367 821 303 703 291 548 c 2
 276 352 l 2
 276 343 276 336 276 329 c 0
 276 291 282 289 325 289 c 0
 332 289 339 291 347 291 c 2
 1777 291 l 2
 1808 291 1817 294 1817 327 c 2
 1817 651 l 2
 1817 727 1783 821 1653 821 c 2
 481 821 l 2
104 160 m 10
 135 552 l 18
 143 654 197 751 272 832 c 1
 194 850 149 893 149 985 c 10
 149 1086 l 18
 149 1110 151 1136 154 1161 c 0
 161 1209 197 1216 212 1166 c 0
 223 1129 226 1126 262 1126 c 0
 267 1126 273 1126 281 1126 c 2
 1674 1126 l 2
 1843 1126 1953 1002 1953 904 c 10
 1953 166 l 18
 1953 1 1951 0 1830 0 c 10
 248 0 l 18
 237 0 228 0 218 0 c 0
 125 0 100 4 100 86 c 0
 100 106 102 129 104 160 c 10
EndSplineSet
MultipleSubs2: "Addhairspacebeforeletter subtable" hairspace finalmem.wide
MultipleSubs2: "Addthinspacebeforeletter subtable" thinspace finalmem.wide
MultipleSubs2: "AddHairspaceAfterMark subtable" finalmem.wide hairspace
MultipleSubs2: "AddThinspaceAfterMark subtable" finalmem.wide thinspace
EndChar

StartChar: resh.wide
Encoding: 212 64295 152
Width: 2017
VWidth: 2248
GlyphClass: 2
Flags: W
HStem: 822 304<169.897 1734.45>
VStem: 1772 135<-19.4125 783.927>
AnchorPoint: "m2b10" -275 0 basechar 0
AnchorPoint: "m2b9" 1110 0 basechar 0
AnchorPoint: "m2b8a" 960 0 basechar 0
AnchorPoint: "m2b8b" 120 0 basechar 0
AnchorPoint: "m2b8c" 1815 0 basechar 0
AnchorPoint: "m2b7c" -220 0 basechar 0
AnchorPoint: "m2b7b" 215 0 basechar 0
AnchorPoint: "m2b7a" 55 0 basechar 0
AnchorPoint: "m2b5a" 1800 0 basechar 0
AnchorPoint: "m2b5b" 1950 0 basechar 0
AnchorPoint: "m2bv2left" 1870 0 basechar 0
AnchorPoint: "m2b4a" 1815 0 basechar 0
AnchorPoint: "m2b4b" 1815 0 basechar 0
AnchorPoint: "m2b4c" 1815 0 basechar 0
AnchorPoint: "m2b4d" 1690 0 basechar 0
AnchorPoint: "m2b2" 960 0 basechar 0
AnchorPoint: "m2b1" 960 0 basechar 0
LayerCount: 2
Fore
SplineSet
1902 19 m 1
 1887 -12 1864 -26 1844 -26 c 0
 1820 -26 1779 -7 1779 31 c 1
 1779 141 1772 246 1772 355 c 2
 1772 656 l 2
 1772 737 1754 822 1605 822 c 1
 380 822 l 1
 211 822 104 849 104 989 c 10
 104 1090 l 18
 104 1114 106 1141 109 1166 c 0
 116 1214 152 1220 167 1170 c 0
 180 1127 182 1126 236 1126 c 2
 1618 1126 l 2
 1787 1126 1907 1063 1907 665 c 10
 1907 91 l 18
 1907 78 1908 66 1908 54 c 0
 1908 43 1906 31 1902 19 c 1
EndSplineSet
MultipleSubs2: "Addhairspacebeforeletter subtable" hairspace resh.wide
MultipleSubs2: "Addthinspacebeforeletter subtable" thinspace resh.wide
MultipleSubs2: "AddHairspaceAfterMark subtable" resh.wide hairspace
MultipleSubs2: "AddThinspaceAfterMark subtable" resh.wide thinspace
EndChar

StartChar: tav.wide
Encoding: 213 64296 153
Width: 1984
VWidth: 2248
GlyphClass: 2
Flags: W
HStem: 0 293<115.595 290.982> 820 306<343.106 1720.7>
VStem: 213 120<462.785 821.2> 291 181<270 374.443> 1749 125<-22.0469 783.927>
AnchorPoint: "m2b10" -275 0 basechar 0
AnchorPoint: "m2b9" 1110 0 basechar 0
AnchorPoint: "m2b8a" 960 0 basechar 0
AnchorPoint: "m2b8b" 120 0 basechar 0
AnchorPoint: "m2b8c" 1815 0 basechar 0
AnchorPoint: "m2b7c" -220 0 basechar 0
AnchorPoint: "m2b7b" 176 0 basechar 0
AnchorPoint: "m2b7a" 75 0 basechar 0
AnchorPoint: "m2b5a" 1015 0 basechar 0
AnchorPoint: "m2b5b" 1800 0 basechar 0
AnchorPoint: "m2b4a" 1050 0 basechar 0
AnchorPoint: "m2b4b" 1050 0 basechar 0
AnchorPoint: "m2b4c" 1050 0 basechar 0
AnchorPoint: "m2b4d" 1050 0 basechar 0
AnchorPoint: "m2b3" 960 0 basechar 0
AnchorPoint: "m2b2" 960 0 basechar 0
AnchorPoint: "m2b1" 960 0 basechar 0
LayerCount: 2
Fore
SplineSet
291 312 m 0xd8
 291 350 213 423 213 621 c 0
 213 690 227 761 243 835 c 1
 167 855 123 898 123 988 c 10
 123 1089 l 18
 123 1113 124 1140 127 1165 c 0
 134 1213 171 1219 186 1169 c 0
 199 1126 201 1126 255 1126 c 2
 1585 1126 l 2
 1754 1126 1874 1063 1874 665 c 10
 1874 91 l 18
 1874 78 1875 66 1875 54 c 0
 1875 43 1873 31 1869 19 c 1
 1853 -12 1831 -27 1812 -27 c 0
 1789 -27 1755 1 1755 38 c 0
 1755 148 1749 253 1749 362 c 2
 1749 663 l 2
 1749 744 1730 828 1584 828 c 0
 1581 828 l 2
 459 820 l 2
 446 820 433 820 421 820 c 0
 396 820 373 821 352 824 c 1
 340 765 333 714 333 669 c 0xe8
 333 432 472 358 472 279 c 0
 472 261 468 239 460 203 c 9
 429 80 l 17
 410 1 412 -0 347 -0 c 0
 345 -0 344 0 342 0 c 0
 340 0 293 0 291 0 c 10
 126 0 l 18
 124 0 121 -0 119 -0 c 0
 82 -0 67 1 67 31 c 0
 67 53 76 92 91 159 c 0
 123 293 121 293 207 293 c 0
 267 293 291 293 291 312 c 0xd8
EndSplineSet
MultipleSubs2: "Addhairspacebeforeletter subtable" hairspace tav.wide
MultipleSubs2: "Addthinspacebeforeletter subtable" thinspace tav.wide
MultipleSubs2: "AddHairspaceAfterMark subtable" tav.wide hairspace
MultipleSubs2: "AddThinspaceAfterMark subtable" tav.wide thinspace
EndChar

StartChar: hebrewplussign
Encoding: 214 64297 154
Width: 778
VWidth: 2494
GlyphClass: 2
Flags: W
HStem: 493 119<132.026 357 427 647>
VStem: 357 70<612 822.988>
LayerCount: 2
Fore
SplineSet
357 612 m 9
 357 819 l 17
 367 822 380 823 394 823 c 0
 406 823 418 822 427 821 c 1
 427 612 l 1
 627 612 l 1
 647 612 647 608 647 585 c 9
 647 514 l 17
 647 493 633 493 620 493 c 1
 150 493 l 1
 130 493 132 493 132 519 c 9
 132 589 l 17
 132 607 132 612 151 612 c 1
 357 612 l 9
EndSplineSet
Validated: 1
EndChar

StartChar: aleflamed
Encoding: 247 64335 187
Width: 1085
VWidth: 2248
GlyphClass: 3
Flags: W
VStem: 125 104<1089.88 1408.41> 160 190<1470.92 1610.36>
AnchorPoint: "m2b8a" 580 0 basechar 0
AnchorPoint: "m2b8b" -120 0 basechar 0
AnchorPoint: "m2b8c" 870 0 basechar 0
AnchorPoint: "m2b7a" -60 0 basechar 0
AnchorPoint: "m2b5a" 580 0 basechar 0
AnchorPoint: "m2b5b" 950 0 basechar 0
AnchorPoint: "m2b4a" 580 0 basechar 0
AnchorPoint: "m2b4b" 580 0 basechar 0
AnchorPoint: "m2b4c" 620 0 basechar 0
AnchorPoint: "m2b4d" 580 0 basechar 0
AnchorPoint: "m2b1" 510 0 basechar 0
LayerCount: 2
Fore
SplineSet
241 1142 m 1x80
 370 908 454 829 650 662 c 9
 720 759 l 25
 655 833 l 17
 631 863 620 896 620 929 c 0
 620 972 638 1017 663 1055 c 8
 704 1117 752 1209 775 1209 c 3
 788 1209 792 1201 792 1189 c 0
 792 1173 784 1149 784 1127 c 0
 784 1044 988 960 988 863 c 0
 988 802 907 718 856 625 c 25
 803 685 l 25
 735 589 l 25
 876 451 l 17
 939 387 960 310 960 238 c 0
 960 101 881 -23 845 -23 c 0
 831 -23 818 -7 804 36 c 0
 717 291 415 458 270 622 c 1
 180 708 125 786 125 926 c 10
 125 1319 l 18x80
 125 1400 197 1404 197 1469 c 27
 197 1511 160 1490 160 1570 c 3
 160 1617 215 1708 230 1708 c 3
 257 1708 244 1677 256 1659 c 24
 290 1610 350 1598 350 1538 c 27x40
 350 1453 229 1434 229 1357 c 10
 229 1228 l 18
 229 1177 231 1161 241 1142 c 1x80
EndSplineSet
Validated: 1
MultipleSubs2: "Addhairspacebeforeletter subtable" hairspace aleflamed
MultipleSubs2: "Addthinspacebeforeletter subtable" thinspace aleflamed
Ligature2: "B6ccmpAlefLamedLigature subtable" alef zerojoin lamed
LCarets2: 2 4 0 
EndChar

StartChar: hatafsegol_meteg
Encoding: 248 -1 188
Width: 0
VWidth: 2248
Flags: W
HStem: -463 156<233.068 374.932> -443 161<-268.95 -121.05> -277 163<-374.188 -229.812 -160.188 -15.8121 234.863 373.137>
VStem: -383 162<-268.188 -123.024> -278 166<-433.045 -291.058> -169 162<-268.188 -123.024> 52 118<-469.993 -126.007> 225 158<-454.798 -314.342 -264.222 -123.727>
AnchorPoint: "m2m6d" 465 1 basemark 0
AnchorPoint: "m2m1" -460 0 basemark 0
AnchorPoint: "m2b4d" 0 0 mark 0
LayerCount: 2
Fore
SplineSet
-383 -196 m 0x33
 -383 -151 -348 -114 -302 -114 c 0
 -256 -114 -221 -151 -221 -196 c 0
 -221 -241 -257 -277 -302 -277 c 0
 -347 -277 -383 -241 -383 -196 c 0x33
-169 -196 m 0x27
 -169 -151 -134 -114 -88 -114 c 0
 -42 -114 -7 -151 -7 -196 c 0
 -7 -241 -43 -277 -88 -277 c 0
 -133 -277 -169 -241 -169 -196 c 0x27
-278 -361 m 0x6b
 -278 -315 -241 -282 -195 -282 c 0
 -149 -282 -112 -315 -112 -361 c 0
 -112 -406 -149 -443 -195 -443 c 0
 -241 -443 -278 -406 -278 -361 c 0x6b
225 -384 m 0
 225 -340 260 -307 304 -307 c 0
 348 -307 383 -340 383 -384 c 0
 383 -430 346 -463 304 -463 c 0xa3
 262 -463 225 -430 225 -384 c 0
225 -195 m 0
 225 -151 260 -116 304 -116 c 0
 348 -116 383 -151 383 -195 c 0
 383 -241 346 -272 304 -272 c 0
 262 -272 225 -241 225 -195 c 0
52 -172 m 2
 52 -132 54 -126 98 -126 c 0
 102 -126 106 -126 111 -126 c 0
 115 -126 119 -126 122 -126 c 0
 164 -126 170 -128 170 -172 c 2
 170 -424 l 2
 170 -464 168 -470 124 -470 c 0
 120 -470 116 -470 111 -470 c 0
 107 -470 103 -470 100 -470 c 0
 58 -470 52 -468 52 -424 c 2
 52 -172 l 2
EndSplineSet
Validated: 1
MultipleSubs2: "AddHairspaceAfterMark subtable" hatafsegol_meteg hairspace
MultipleSubs2: "AddThinspaceAfterMark subtable" hatafsegol_meteg thinspace
Ligature2: "B1ccmpHatafMeteg subtable" hatafsegol zerojoin meteg
LCarets2: 2 0 0 
EndChar

StartChar: hatafpatah_meteg
Encoding: 249 -1 189
Width: 0
VWidth: 2248
Flags: W
HStem: -463 156<233.068 374.932> -272 156<233.068 374.932> -241 114<-382.911 -7.38541>
VStem: 52 118<-469.993 -126.007> 225 158<-454.798 -314.342 -264.222 -123.727>
AnchorPoint: "m2m6d" 465 1 basemark 0
AnchorPoint: "m2m1" -460 0 basemark 0
AnchorPoint: "m2b4d" 0 0 mark 0
LayerCount: 2
Fore
SplineSet
-54 -127 m 2xb8
 -9 -127 -7 -130 -7 -179 c 0
 -7 -223 -11 -241 -57 -241 c 2
 -337 -241 l 1
 -379 -241 -383 -227 -383 -190 c 0
 -383 -129 -383 -127 -336 -127 c 2
 -54 -127 l 2xb8
225 -384 m 0
 225 -340 260 -307 304 -307 c 0
 348 -307 383 -340 383 -384 c 0
 383 -430 346 -463 304 -463 c 0
 262 -463 225 -430 225 -384 c 0
225 -195 m 0
 225 -151 260 -116 304 -116 c 0
 348 -116 383 -151 383 -195 c 0
 383 -241 346 -272 304 -272 c 0xd8
 262 -272 225 -241 225 -195 c 0
52 -172 m 2
 52 -132 54 -126 98 -126 c 0
 102 -126 106 -126 111 -126 c 0
 115 -126 119 -126 122 -126 c 0
 164 -126 170 -128 170 -172 c 2
 170 -424 l 2
 170 -464 168 -470 124 -470 c 0
 120 -470 116 -470 111 -470 c 0
 107 -470 103 -470 100 -470 c 0
 58 -470 52 -468 52 -424 c 2
 52 -172 l 2
EndSplineSet
Validated: 1
MultipleSubs2: "AddHairspaceAfterMark subtable" hatafpatah_meteg hairspace
MultipleSubs2: "AddThinspaceAfterMark subtable" hatafpatah_meteg thinspace
Ligature2: "B1ccmpHatafMeteg subtable" hatafpatah zerojoin meteg
LCarets2: 2 0 0 
EndChar

StartChar: hatafqamats_meteg
Encoding: 250 -1 190
Width: 0
VWidth: 2248
Flags: W
HStem: -463 156<233.068 374.932> -272 156<233.068 374.932> -241 113<-382.759 -231.999 -158 -7.38541>
VStem: -274 158<-461.845 -256.969> -232 74<-354.868 -241.234> 52 118<-469.993 -126.007> 225 158<-454.798 -314.342 -264.222 -123.727>
AnchorPoint: "m2m6d" 465 1 basemark 0
AnchorPoint: "m2m1" -460 0 basemark 0
AnchorPoint: "m2b4d" 0 0 mark 0
LayerCount: 2
Fore
SplineSet
-54 -128 m 2xae
 -9 -128 -7 -131 -7 -179 c 0
 -7 -224 -11 -241 -57 -241 c 2
 -156 -241 l 1
 -158 -246 -158 -251 -158 -255 c 0xae
 -158 -297 -116 -339 -116 -384 c 3
 -116 -430 -150 -471 -195 -471 c 0
 -236 -471 -274 -434 -274 -384 c 3xb6
 -274 -339 -232 -297 -232 -255 c 0
 -232 -251 -230 -246 -232 -241 c 1
 -333 -241 l 1
 -381 -241 -383 -224 -383 -179 c 0
 -383 -132 -381 -128 -336 -128 c 2
 -54 -128 l 2xae
225 -384 m 0
 225 -340 260 -307 304 -307 c 0
 348 -307 383 -340 383 -384 c 0
 383 -430 346 -463 304 -463 c 0
 262 -463 225 -430 225 -384 c 0
225 -195 m 0
 225 -151 260 -116 304 -116 c 0
 348 -116 383 -151 383 -195 c 0
 383 -241 346 -272 304 -272 c 0xc6
 262 -272 225 -241 225 -195 c 0
52 -172 m 2
 52 -132 54 -126 98 -126 c 0
 102 -126 106 -126 111 -126 c 0
 115 -126 119 -126 122 -126 c 0
 164 -126 170 -128 170 -172 c 2
 170 -424 l 2
 170 -464 168 -470 124 -470 c 0
 120 -470 116 -470 111 -470 c 0
 107 -470 103 -470 100 -470 c 0
 58 -470 52 -468 52 -424 c 2
 52 -172 l 2
EndSplineSet
Validated: 1
MultipleSubs2: "AddHairspaceAfterMark subtable" hatafqamats_meteg hairspace
MultipleSubs2: "AddThinspaceAfterMark subtable" hatafqamats_meteg thinspace
Ligature2: "B1ccmpHatafMeteg subtable" hatafqamats zerojoin meteg
LCarets2: 2 0 0 
EndChar

StartChar: underscore
Encoding: 64 95 191
Width: 950
VWidth: 1900
Flags: W
HStem: -281 171<0 950>
LayerCount: 2
Fore
SplineSet
0 -110 m 1
 950 -110 l 1
 950 -281 l 1
 0 -281 l 1
 0 -110 l 1
EndSplineSet
Validated: 1
EndChar

StartChar: grave
Encoding: 65 96 192
Width: 457
VWidth: 1900
Flags: W
HStem: 737 348<227.343 350.801>
VStem: 42 184<898.5 1144.55>
LayerCount: 2
Fore
SplineSet
363 1419 m 1
 414 1341 l 1
 296 1259 226 1168 226 1096 c 0
 226 1088 230 1085 234 1085 c 0
 236 1085 237 1085 241 1087 c 0
 247 1089 250 1089 256 1089 c 0
 347 1089 416 1018 416 925 c 0
 416 819 337 737 234 737 c 0
 120 737 42 830 42 967 c 0
 42 1136 152 1292 363 1419 c 1
EndSplineSet
Validated: 1
EndChar

StartChar: braceleft
Encoding: 92 123 193
Width: 739
VWidth: 1900
Flags: W
HStem: -205 87<558.638 652> 1284 88<556.59 652>
VStem: 304 234<-68.7066 467.324 668.504 1267.65>
LayerCount: 2
Fore
SplineSet
160 542 m 1
 160 625 l 1
 240 644 268 663 289 712 c 0
 302 744 304 764 304 878 c 2
 304 1087 l 2
 304 1212 323 1280 372 1320 c 1
 406 1350 483 1372 553 1372 c 2
 652 1372 l 1
 652 1284 l 1
 566 1284 538 1240 538 1151 c 2
 538 1045 l 1
 538 821 l 2
 538 675 494 621 344 583 c 1
 494 545 538 492 538 346 c 2
 538 122 l 2
 538 -41 538 -42 555 -70 c 0
 574 -100 599 -112 652 -118 c 1
 652 -205 l 1
 553 -205 l 2
 483 -205 406 -184 372 -154 c 1
 323 -114 304 -45 304 80 c 2
 304 289 l 2
 304 414 302 433 281 469 c 0
 258 507 232 523 160 542 c 1
EndSplineSet
Validated: 1
EndChar

StartChar: bar
Encoding: 93 124 194
Width: 1151
VWidth: 1900
Flags: W
HStem: 0 21G<462 688>
VStem: 462 226<0 1372>
LayerCount: 2
Fore
SplineSet
688 1372 m 1
 688 0 l 1
 462 0 l 1
 462 1372 l 1
 688 1372 l 1
EndSplineSet
Validated: 1
EndChar

StartChar: braceright
Encoding: 94 125 195
Width: 739
VWidth: 1900
Flags: W
HStem: -205 87<59 154.361> 1284 88<59 157.106>
VStem: 177 233<-68.7066 498.043 698.677 1264.68>
LayerCount: 2
Fore
SplineSet
551 625 m 1
 551 542 l 1
 473 523 445 503 426 454 c 0
 413 420 410 403 410 289 c 2
 410 80 l 2
 410 -45 391 -114 342 -154 c 1
 308 -184 232 -205 162 -205 c 2
 59 -205 l 1
 59 -118 l 1
 114 -112 139 -100 158 -70 c 0
 177 -42 177 -41 177 122 c 2
 177 346 l 2
 177 492 220 545 370 583 c 1
 220 621 177 675 177 821 c 2
 177 1045 l 1
 177 1151 l 2
 177 1240 146 1284 59 1284 c 1
 59 1372 l 1
 162 1372 l 2
 232 1372 308 1350 342 1320 c 1
 391 1280 410 1212 410 1087 c 2
 410 878 l 2
 410 754 412 733 433 697 c 0
 454 659 481 642 551 625 c 1
EndSplineSet
Validated: 1
EndChar

StartChar: asciitilde
Encoding: 95 126 196
Width: 1151
VWidth: 1900
Flags: W
HStem: 304 217<617.466 852.446> 420 216<298.534 534.157>
LayerCount: 2
Fore
SplineSet
256 321 m 1x40
 97 420 l 1
 173 562 266 636 370 636 c 0x40
 414 636 456 625 542 593 c 2
 642 557 l 1
 724 525 740 521 768 521 c 0
 812 521 842 543 895 619 c 1
 1054 519 l 1
 976 377 885 304 781 304 c 0x80
 737 304 696 314 610 348 c 1
 509 384 l 1
 427 416 412 420 384 420 c 0
 340 420 309 397 256 321 c 1x40
EndSplineSet
Validated: 1
EndChar

StartChar: Euro
Encoding: 200 8364 197
Width: 1024
Flags: MW
HStem: -18 110<537.453 825.068> 408 79<59 181 376 737> 617 79<59 181 362 787> 1086 71<529.432 754.827>
VStem: 181 175<487 617 696 828.043> 193 183<281.617 408> 757 206<923.833 1075.76>
LayerCount: 2
Fore
SplineSet
960 108 m 1xf6
 881 38 749 -18 617 -18 c 0
 560 -18 503 -8 450 17 c 0
 306 84 224 229 193 408 c 1xf6
 59 408 l 1
 59 487 l 1
 181 487 l 1
 181 497 181 507 181 518 c 2
 181 548 l 1
 181 617 l 1xfa
 59 617 l 1
 59 696 l 1
 193 696 l 1xf6
 225 895 312 1049 472 1122 c 0
 524 1146 589 1157 655 1157 c 0
 768 1157 882 1124 932 1065 c 0
 952 1041 963 1012 963 976 c 0
 963 924 925 890 876 890 c 0
 799 890 757 967 757 1057 c 1
 724 1076 685 1086 646 1086 c 0
 606 1086 566 1076 534 1055 c 0
 429 989 380 852 362 696 c 1
 787 696 l 1
 787 617 l 1
 356 617 l 1
 356 586 l 2xfa
 356 552 358 519 362 487 c 1
 737 487 l 1
 737 408 l 1
 376 408 l 1
 419 242 499 92 698 92 c 0
 795 92 868 122 945 160 c 1
 950 153 955 144 960 134 c 1
 960 108 l 1xf6
EndSplineSet
Validated: 1
EndChar

StartChar: A
Encoding: 34 65 202
Width: 1442
VWidth: 1900
Flags: W
HStem: 0 104<-34 86.0219 355.626 515 811 953.982 1339.25 1478> 414 128<435 811>
LayerCount: 2
Fore
SplineSet
667 1400 m 1
 811 1400 l 1
 1300 222 l 2
 1340 125 1370 103 1478 103 c 1
 1478 0 l 1
 811 0 l 1
 811 104 l 1
 844 104 l 1
 930 104 954 116 954 150 c 0
 954 165 946 194 931 228 c 2
 859 414 l 1
 386 414 l 1
 355 342 l 2
 330 287 325 266 325 234 c 0
 325 147 378 103 515 103 c 1
 515 0 l 1
 -34 0 l 1
 -34 103 l 1
 78 103 149 188 236 393 c 2
 667 1400 l 1
627 996 m 1
 435 542 l 1
 811 542 l 1
 627 996 l 1
EndSplineSet
Validated: 1
EndChar

StartChar: B
Encoding: 35 66 203
Width: 1478
VWidth: 1900
Flags: W
HStem: 0 103<32 226.057 575.604 926.292> 652 104<572 881.62> 1269 103<32 216.186 595.897 904.27>
VStem: 230 342<113.063 652 756 1242.21> 992 344<883.639 1183.01> 1036 362<214.957 519.159>
LayerCount: 2
Fore
SplineSet
32 1372 m 1xf4
 766 1372 l 2
 992 1372 1082 1357 1186 1296 c 1
 1279 1245 1336 1144 1336 1036 c 0xf8
 1336 922 1275 830 1161 775 c 0
 1108 750 1054 737 961 722 c 1
 1060 709 1117 693 1182 663 c 0
 1323 600 1398 492 1398 359 c 0
 1398 232 1319 112 1197 57 c 1
 1100 15 1000 0 802 0 c 2
 32 0 l 1
 32 103 l 1
 61 103 l 2
 160 103 200 110 217 131 c 0
 230 146 230 154 230 274 c 2
 230 1098 l 2
 230 1220 230 1226 217 1243 c 0
 200 1262 160 1269 61 1269 c 2
 32 1269 l 1
 32 1372 l 1xf4
572 756 m 1
 665 756 l 2
 783 756 848 771 899 813 c 0
 960 861 992 935 992 1028 c 0
 992 1186 902 1269 735 1269 c 2
 678 1269 l 2
 642 1269 614 1261 595 1244 c 0
 576 1229 572 1214 572 1159 c 2
 572 756 l 1
572 652 m 1
 572 224 l 2
 572 161 572 156 578 141 c 0
 589 114 622 103 688 103 c 2
 745 103 l 2
 836 103 898 120 946 160 c 0
 1001 206 1036 289 1036 380 c 0xf4
 1036 479 996 562 931 606 c 0
 878 640 823 652 703 652 c 2
 572 652 l 1
EndSplineSet
Validated: 1
EndChar

StartChar: C
Encoding: 36 67 204
Width: 1478
VWidth: 1900
Flags: W
HStem: -28 117<654.596 1019.82> 1302 98<653.958 986.56>
VStem: 76 378<401.645 931.565> 1244 82<849 961.713> 1256 118<357.431 478.523>
LayerCount: 2
Fore
SplineSet
1326 1393 m 1xf0
 1326 849 l 1
 1244 838 l 1xf0
 1158 1155 1020 1302 809 1302 c 0
 575 1302 454 1096 454 703 c 0
 454 285 576 89 834 89 c 0
 1052 89 1205 240 1256 504 c 1
 1374 475 l 1xe8
 1302 135 1107 -28 771 -28 c 0
 549 -28 387 36 256 180 c 0
 134 315 76 471 76 669 c 0
 76 1095 376 1400 794 1400 c 0
 929 1400 1017 1378 1142 1302 c 1
 1244 1393 l 1
 1326 1393 l 1xf0
EndSplineSet
Validated: 1
EndChar

StartChar: D
Encoding: 37 68 205
Width: 1582
VWidth: 1900
Flags: W
HStem: 0 103<36 229.31 585.516 926.243> 1269 103<36 229.31 585.019 927.655>
VStem: 234 342<113.114 1259.02> 1129 378<419.844 975.644>
LayerCount: 2
Fore
SplineSet
234 274 m 2
 234 1098 l 2
 234 1218 233 1226 220 1241 c 0
 203 1262 164 1269 65 1269 c 2
 36 1269 l 1
 36 1372 l 1
 712 1372 l 2
 980 1372 1121 1345 1235 1269 c 0
 1414 1153 1507 956 1507 701 c 0
 1507 441 1413 234 1244 116 c 0
 1126 34 974 0 735 0 c 2
 36 0 l 1
 36 103 l 1
 65 103 l 2
 164 103 203 110 220 131 c 0
 233 146 234 154 234 274 c 2
690 103 m 2
 730 103 l 2
 857 103 969 150 1026 232 c 1
 1089 318 1129 502 1129 705 c 0
 1129 1085 1001 1269 737 1269 c 2
 690 1269 l 2
 599 1269 576 1246 576 1155 c 2
 576 226 l 2
 576 125 597 103 690 103 c 2
EndSplineSet
Validated: 1
EndChar

StartChar: E
Encoding: 38 69 206
Width: 1442
VWidth: 1900
Flags: W
HStem: 0 103<30 224.057 601.08 995.135> 657 105<570 749.247> 1269 103<30 224.057 587.626 991.075>
VStem: 228 342<130.077 657 762 1248.23> 864 103<388 533.643 886.104 1032> 1218 87<878 1002.79> 1243 100<389.123 511>
LayerCount: 2
Fore
SplineSet
1305 1372 m 1xfc
 1305 878 l 1
 1218 878 l 1xfc
 1190 977 1148 1072 1108 1129 c 0
 1043 1218 928 1269 787 1269 c 2
 733 1269 l 2
 655 1269 610 1255 589 1227 c 0
 574 1204 570 1184 570 1106 c 2
 570 762 l 1
 602 762 l 2
 750 762 843 857 864 1032 c 1
 967 1032 l 1
 967 388 l 1
 864 388 l 1
 843 563 750 657 602 657 c 2
 570 657 l 1
 570 236 l 2
 570 173 575 152 600 129 c 0
 623 106 648 103 741 103 c 2
 798 103 l 2
 1028 103 1163 226 1243 511 c 1
 1343 511 l 1
 1343 0 l 1xfa
 30 0 l 1
 30 103 l 1
 59 103 l 2
 158 103 198 110 215 131 c 0
 228 146 228 154 228 274 c 2
 228 1098 l 2
 228 1218 228 1226 215 1241 c 0
 198 1262 158 1269 59 1269 c 2
 30 1269 l 1
 30 1372 l 1
 1305 1372 l 1xfc
EndSplineSet
Validated: 1
EndChar

StartChar: F
Encoding: 39 70 207
Width: 1371
VWidth: 1900
Flags: W
HStem: 0 103<42 235.057 585.69 802> 657 105<581 762.118> 1269 103<42 235.057 598.626 985.075>
VStem: 239 342<112.912 657 762 1248.23> 876 102<388 533.643 885.215 1032> 1212 88<878 1004.27>
LayerCount: 2
Fore
SplineSet
1300 1372 m 1
 1300 878 l 1
 1212 878 l 1
 1184 979 1142 1074 1102 1129 c 0
 1037 1218 922 1269 781 1269 c 2
 745 1269 l 2
 667 1269 621 1255 600 1227 c 0
 585 1204 581 1184 581 1106 c 2
 581 762 l 1
 614 762 l 2
 764 762 855 855 876 1032 c 1
 978 1032 l 1
 978 388 l 1
 876 388 l 1
 855 563 764 657 614 657 c 2
 581 657 l 1
 581 274 l 2
 581 154 582 146 595 131 c 0
 612 110 651 103 752 103 c 2
 802 103 l 1
 802 0 l 1
 42 0 l 1
 42 103 l 1
 70 103 l 2
 169 103 209 110 226 131 c 0
 239 146 239 154 239 274 c 2
 239 1098 l 2
 239 1218 239 1226 226 1241 c 0
 209 1262 169 1269 70 1269 c 2
 42 1269 l 1
 42 1372 l 1
 1300 1372 l 1
EndSplineSet
Validated: 1
EndChar

StartChar: G
Encoding: 40 71 208
Width: 1582
VWidth: 1900
Flags: W
HStem: -28 98<641.356 947.64> 536 102<878 1063.11 1396.81 1552> 1302 98<667.803 1014.94>
VStem: 74 380<397.279 939.578> 1072 311<192.998 508.301> 1282 84<847 984.897>
LayerCount: 2
Fore
SplineSet
1366 1393 m 1xf4
 1366 847 l 1
 1282 847 l 1xf4
 1219 1136 1054 1302 830 1302 c 0
 718 1302 617 1248 562 1159 c 0
 492 1045 454 877 454 676 c 0
 454 497 481 344 532 234 c 0
 580 131 674 70 790 70 c 0
 959 70 1072 186 1072 365 c 2
 1072 391 l 2
 1072 530 1064 536 899 536 c 2
 878 536 l 1
 878 638 l 1
 1552 638 l 1
 1552 536 l 1
 1444 536 1413 528 1396 509 c 0
 1383 494 1383 485 1383 365 c 2
 1383 -28 l 1xf8
 1282 -28 l 1
 1189 160 l 1
 1134 103 1104 77 1056 49 c 0
 969 0 853 -28 737 -28 c 0
 344 -28 74 255 74 665 c 0
 74 874 133 1033 262 1170 c 1
 403 1322 590 1400 808 1400 c 0
 945 1400 1037 1374 1170 1298 c 1
 1282 1393 l 1
 1366 1393 l 1xf4
EndSplineSet
Validated: 1
EndChar

StartChar: H
Encoding: 41 72 209
Width: 1653
VWidth: 1900
Flags: W
HStem: 0 103<38 231.31 581.943 777 876 1069.31 1419.94 1615> 644 114<578 1074> 1269 103<38 231.31 581.943 777 876 1069.01 1419.94 1615>
VStem: 236 342<112.912 644 758 1259.09> 1074 342<112.912 644 758 1259.09>
LayerCount: 2
Fore
SplineSet
1074 644 m 1
 578 644 l 1
 578 274 l 2
 578 152 578 146 591 131 c 0
 608 110 650 103 749 103 c 2
 777 103 l 1
 777 0 l 1
 38 0 l 1
 38 103 l 1
 66 103 l 2
 165 103 205 110 222 131 c 0
 235 146 236 154 236 274 c 2
 236 1096 l 2
 236 1218 235 1226 222 1241 c 0
 205 1262 165 1269 66 1269 c 2
 38 1269 l 1
 38 1372 l 1
 777 1372 l 1
 777 1269 l 1
 749 1269 l 2
 650 1269 608 1262 591 1241 c 0
 578 1226 578 1218 578 1096 c 2
 578 758 l 1
 1074 758 l 1
 1074 1096 l 2
 1074 1216 1073 1226 1060 1241 c 0
 1043 1262 1003 1269 904 1269 c 2
 876 1269 l 1
 876 1372 l 1
 1615 1372 l 1
 1615 1269 l 1
 1586 1269 l 2
 1487 1269 1446 1262 1429 1241 c 0
 1416 1226 1416 1218 1416 1096 c 2
 1416 274 l 2
 1416 152 1416 146 1429 131 c 0
 1446 110 1487 103 1586 103 c 2
 1615 103 l 1
 1615 0 l 1
 876 0 l 1
 876 103 l 1
 904 103 l 2
 1003 103 1043 110 1060 131 c 0
 1073 146 1074 154 1074 274 c 2
 1074 644 l 1
EndSplineSet
Validated: 1
EndChar

StartChar: I
Encoding: 42 73 210
Width: 843
VWidth: 1900
Flags: W
HStem: 0 103<53 247.057 596.943 792> 1269 103<53 247.057 596.943 792>
VStem: 251 342<112.912 1259.09>
LayerCount: 2
Fore
SplineSet
251 274 m 2
 251 1098 l 2
 251 1218 251 1226 238 1241 c 0
 221 1262 181 1269 82 1269 c 2
 53 1269 l 1
 53 1372 l 1
 792 1372 l 1
 792 1269 l 1
 764 1269 l 2
 665 1269 623 1262 606 1241 c 0
 593 1226 593 1220 593 1098 c 2
 593 274 l 2
 593 152 593 146 606 131 c 0
 623 110 665 103 764 103 c 2
 792 103 l 1
 792 0 l 1
 53 0 l 1
 53 103 l 1
 82 103 l 2
 181 103 221 110 238 131 c 0
 251 146 251 154 251 274 c 2
EndSplineSet
Validated: 1
EndChar

StartChar: J
Encoding: 43 74 211
Width: 1231
VWidth: 1900
Flags: W
HStem: -28 115<226.141 544.39> 255 372<162.424 370.063> 1269 103<475 668.31 1018.94 1214>
VStem: 8 152<165.023 427.5> 673 342<247.229 1259.09>
LayerCount: 2
Fore
SplineSet
1015 1098 m 2
 1015 532 l 2
 1015 306 967 182 847 87 c 0
 750 9 623 -28 467 -28 c 0
 182 -28 8 114 8 346 c 0
 8 509 106 627 243 627 c 0
 357 627 439 545 439 433 c 0
 439 330 365 255 264 255 c 0
 249 255 235 256 218 260 c 0
 208 262 202 264 196 264 c 0
 175 264 160 249 160 228 c 0
 160 154 266 87 384 87 c 0
 483 87 573 132 621 200 c 0
 659 257 673 329 673 466 c 2
 673 1098 l 2
 673 1220 672 1226 659 1241 c 0
 642 1262 603 1269 504 1269 c 2
 475 1269 l 1
 475 1372 l 1
 1214 1372 l 1
 1214 1269 l 1
 1186 1269 l 2
 1087 1269 1045 1262 1028 1241 c 0
 1015 1226 1015 1220 1015 1098 c 2
EndSplineSet
Validated: 1
EndChar

StartChar: K
Encoding: 44 75 212
Width: 1548
VWidth: 1900
Flags: W
HStem: 0 103<28 222.057 571.943 768 863 1015.97 1426.31 1554> 1269 103<28 222.057 571.943 768 863 1045.77 1336.24 1503>
VStem: 226 342<112.912 475 654 1259.09>
LayerCount: 2
Fore
SplineSet
728 642 m 1
 568 475 l 1
 568 274 l 2
 568 154 568 146 581 131 c 0
 598 110 640 103 739 103 c 2
 768 103 l 1
 768 0 l 1
 28 0 l 1
 28 103 l 1
 57 103 l 2
 156 103 196 110 213 131 c 0
 226 146 226 154 226 274 c 2
 226 1098 l 2
 226 1218 226 1226 213 1241 c 0
 196 1262 156 1269 57 1269 c 2
 28 1269 l 1
 28 1372 l 1
 768 1372 l 1
 768 1269 l 1
 739 1269 l 2
 640 1269 598 1262 581 1241 c 0
 568 1226 568 1218 568 1098 c 2
 568 654 l 1
 988 1098 l 2
 1022 1136 1051 1182 1051 1203 c 0
 1051 1247 1001 1269 908 1269 c 2
 863 1269 l 1
 863 1372 l 1
 1503 1372 l 1
 1503 1269 l 1
 1378 1269 1282 1207 1117 1045 c 1
 960 880 l 1
 1355 249 l 2
 1442 112 1450 103 1554 103 c 1
 1554 0 l 1
 863 0 l 1
 863 103 l 1
 887 103 l 2
 974 103 1016 116 1016 146 c 0
 1016 163 1009 180 994 207 c 2
 728 642 l 1
EndSplineSet
Validated: 1
EndChar

StartChar: L
Encoding: 45 76 213
Width: 1371
VWidth: 1900
Flags: W
HStem: 0 103<36 229.31 607.08 983.769> 1269 103<36 229.31 579.943 788>
VStem: 234 342<130.077 1259.09> 1231 101<381.512 511>
LayerCount: 2
Fore
SplineSet
1231 511 m 1
 1332 511 l 1
 1332 0 l 1
 36 0 l 1
 36 103 l 1
 65 103 l 2
 164 103 203 110 220 131 c 0
 233 146 234 154 234 276 c 2
 234 1098 l 2
 234 1218 233 1226 220 1241 c 0
 203 1262 164 1269 65 1269 c 2
 36 1269 l 1
 36 1372 l 1
 788 1372 l 1
 788 1269 l 1
 747 1269 l 2
 646 1269 606 1262 589 1241 c 0
 576 1226 576 1218 576 1098 c 2
 576 236 l 2
 576 173 581 152 606 129 c 0
 629 106 654 103 747 103 c 2
 787 103 l 2
 922 103 1030 152 1108 245 c 0
 1159 308 1193 380 1231 511 c 1
EndSplineSet
Validated: 1
EndChar

StartChar: M
Encoding: 46 77 214
Width: 1863
VWidth: 1900
Flags: W
HStem: 0 103<17 165.566 406.47 559 1108 1295.31 1646.22 1834> 1269 103<30 218.057 1646.22 1834>
VStem: 222 128<159.964 1201.15> 1300 342<112.912 1221.52>
LayerCount: 2
Fore
SplineSet
642 1372 m 1
 937 555 l 1
 1214 1372 l 1
 1834 1372 l 1
 1834 1269 l 1
 1813 1269 l 2
 1712 1269 1672 1262 1655 1241 c 0
 1642 1226 1642 1216 1642 1098 c 2
 1642 274 l 2
 1642 156 1642 146 1655 131 c 0
 1672 110 1712 103 1813 103 c 2
 1834 103 l 1
 1834 0 l 1
 1108 0 l 1
 1108 103 l 1
 1129 103 l 2
 1230 103 1269 110 1286 131 c 0
 1299 146 1300 154 1300 274 c 2
 1300 1222 l 1
 880 0 l 1
 781 0 l 1
 350 1203 l 1
 350 412 l 2
 350 243 359 196 399 154 c 0
 429 122 483 103 559 103 c 1
 559 0 l 1
 17 0 l 1
 17 103 l 1
 91 103 143 122 173 154 c 0
 213 196 222 245 222 412 c 2
 222 1098 l 2
 222 1218 222 1226 209 1241 c 0
 192 1262 152 1269 51 1269 c 2
 30 1269 l 1
 30 1372 l 1
 642 1372 l 1
EndSplineSet
Validated: 1
EndChar

StartChar: N
Encoding: 47 78 215
Width: 1582
VWidth: 1900
Flags: W
HStem: 0 104<30 178.701 419.368 572> 1269 103<34 173.668 1041 1189.57 1430.47 1583>
VStem: 236 127<161.951 1037> 1246 128<513 1212.04>
LayerCount: 2
Fore
SplineSet
513 1372 m 1
 1246 513 l 1
 1246 960 l 2
 1246 1127 1237 1176 1197 1218 c 0
 1167 1250 1115 1269 1041 1269 c 1
 1041 1372 l 1
 1583 1372 l 1
 1583 1269 l 1
 1507 1269 1453 1250 1423 1218 c 0
 1383 1176 1374 1129 1374 960 c 2
 1374 -13 l 1
 1246 -13 l 1
 363 1037 l 1
 363 412 l 2
 363 245 372 198 412 156 c 0
 442 124 490 104 572 104 c 1
 572 0 l 1
 30 0 l 1
 30 104 l 1
 112 104 156 124 186 156 c 0
 226 198 236 245 236 412 c 2
 236 1161 l 1
 188 1229 120 1269 34 1269 c 1
 34 1372 l 1
 513 1372 l 1
EndSplineSet
Validated: 1
EndChar

StartChar: O
Encoding: 48 79 216
Width: 1582
VWidth: 1900
Flags: W
HStem: -28 98<646.068 945.154> 1302 98<634.397 941.256>
VStem: 74 380<415.871 926.452> 1129 380<417.911 919.66>
LayerCount: 2
Fore
SplineSet
792 1400 m 0
 978 1400 1127 1349 1254 1239 c 0
 1412 1104 1509 887 1509 667 c 0
 1509 445 1417 251 1254 120 c 0
 1127 19 977 -28 783 -28 c 0
 371 -28 74 262 74 665 c 0
 74 887 169 1102 329 1239 c 0
 453 1347 608 1400 792 1400 c 0
794 1302 m 0
 682 1302 606 1260 551 1167 c 0
 486 1059 454 906 454 701 c 0
 454 501 488 335 551 217 c 0
 604 118 684 70 794 70 c 0
 1011 70 1129 279 1129 665 c 0
 1129 870 1095 1041 1032 1155 c 0
 977 1252 897 1302 794 1302 c 0
EndSplineSet
Validated: 1
EndChar

StartChar: P
Encoding: 49 80 217
Width: 1442
VWidth: 1900
Flags: W
HStem: 0 103<46 229.186 598.814 798> 589 105<585 921.209> 1267 105<46 229.186 592.833 936.189>
VStem: 243 342<129.789 589 694 1240.21> 1030 366<803.873 1168.47>
LayerCount: 2
Fore
SplineSet
585 589 m 1
 585 274 l 2
 585 152 585 146 598 129 c 0
 615 110 655 103 756 103 c 2
 798 103 l 1
 798 0 l 1
 46 0 l 1
 46 103 l 1
 74 103 l 2
 173 103 213 110 230 129 c 0
 243 146 243 152 243 274 c 2
 243 1096 l 2
 243 1218 243 1224 230 1241 c 0
 213 1260 173 1267 74 1267 c 2
 46 1267 l 1
 46 1372 l 1
 800 1372 l 2
 990 1372 1102 1353 1205 1305 c 0
 1327 1248 1396 1132 1396 990 c 0
 1396 724 1195 589 798 589 c 2
 585 589 l 1
585 694 m 1
 695 694 l 2
 940 694 1030 774 1030 992 c 0
 1030 1182 946 1267 766 1267 c 2
 690 1267 l 2
 604 1267 585 1246 585 1153 c 2
 585 694 l 1
EndSplineSet
Validated: 1
EndChar

StartChar: Q
Encoding: 50 81 218
Width: 1582
VWidth: 1900
Flags: W
HStem: -357 177<1109 1385.61> -28 98<633.991 895.666> 443 108<624.289 842.874> 1302 98<638.054 936.359>
VStem: 72 380<434.19 941.826> 1121 380<442.757 937.206> 1433 102<-166.162 -34>
LayerCount: 2
Fore
SplineSet
897 -48 m 2xfa
 897 -19 l 1
 851 -27 823 -28 777 -28 c 0
 564 -28 392 47 255 203 c 0
 135 338 72 506 72 690 c 0
 72 1093 382 1400 790 1400 c 0
 1185 1400 1501 1085 1501 690 c 0xfc
 1501 445 1379 217 1178 84 c 1
 1248 -129 1281 -180 1340 -180 c 0
 1399 -180 1433 -140 1433 -34 c 1
 1535 -34 l 1
 1535 -49 l 2
 1535 -231 1402 -357 1208 -357 c 0
 1010 -357 897 -246 897 -48 c 2xfa
1074 332 m 1
 1104 412 1121 551 1121 703 c 0
 1121 865 1095 1013 1047 1123 c 0
 996 1241 907 1302 787 1302 c 0
 567 1302 452 1104 452 720 c 0
 452 562 465 441 492 359 c 1
 515 418 530 447 560 475 c 0
 609 523 686 551 766 551 c 0
 863 551 955 509 1016 439 c 0
 1041 409 1053 385 1074 332 c 1
901 101 m 1
 901 143 906 171 906 190 c 0
 906 353 845 443 735 443 c 0
 636 443 568 363 568 251 c 0
 568 143 654 70 781 70 c 0
 827 70 852 76 901 101 c 1
EndSplineSet
Validated: 1
EndChar

StartChar: R
Encoding: 51 82 219
Width: 1548
VWidth: 1900
Flags: W
HStem: -28 159<1146.5 1415.73> 0 104<38 221.186 591.815 798> 659 105<578 839.34> 1269 103<38 221.186 585.338 927.555>
VStem: 236 342<131.789 659 764 1242.21> 899 385<160.702 468.134> 1015 363<868.541 1187.86> 1450 102<147.401 312>
LayerCount: 2
Fore
SplineSet
578 659 m 1xbd
 578 276 l 2
 578 154 578 148 591 131 c 0xbd
 608 112 650 104 749 104 c 2
 798 104 l 1
 798 0 l 1
 38 0 l 1
 38 104 l 1
 66 104 l 2x7d
 165 104 205 112 222 131 c 0
 235 148 236 154 236 276 c 2
 236 1098 l 2
 236 1220 235 1226 222 1243 c 0
 205 1262 165 1269 66 1269 c 2
 38 1269 l 1
 38 1372 l 1
 849 1372 l 2
 1024 1372 1152 1349 1224 1303 c 0
 1323 1238 1378 1142 1378 1028 c 0xbb
 1378 904 1311 800 1195 741 c 0
 1147 718 1099 705 998 686 c 1
 1163 631 1236 545 1264 374 c 1
 1277 302 l 2
 1281 275 1284 257 1284 249 c 0
 1294 188 1296 175 1307 160 c 0
 1318 143 1341 131 1362 131 c 0
 1419 131 1450 192 1450 312 c 1
 1552 312 l 1
 1552 289 l 2
 1552 88 1434 -28 1229 -28 c 0
 1064 -28 957 50 925 198 c 0
 919 228 899 308 899 435 c 1
 899 543 883 566 853 602 c 0
 819 640 766 659 684 659 c 2
 578 659 l 1xbd
578 764 m 1
 682 764 l 2
 935 764 1015 824 1015 1018 c 0x3b
 1015 1191 935 1269 758 1269 c 2
 712 1269 l 2
 590 1269 578 1256 578 1148 c 2
 578 764 l 1
EndSplineSet
Validated: 1
EndChar

StartChar: S
Encoding: 52 83 220
Width: 1267
VWidth: 1900
Flags: W
HStem: -28 98<517.635 872.605> -13 21G<97 215.071> 1302 98<410.121 753.311>
VStem: 97 220<867.583 1163.85> 97 97<422.666 524> 975 228<229.711 544.5> 1041 76<893 965.477>
LayerCount: 2
Fore
SplineSet
1117 1385 m 1xb2
 1117 893 l 1
 1041 893 l 1xb2
 929 1163 772 1302 574 1302 c 0
 424 1302 317 1218 317 1102 c 0
 317 1024 360 969 446 939 c 0
 494 922 494 921 640 893 c 1
 732 872 l 1
 1061 800 1203 665 1203 424 c 0
 1203 158 997 -28 701 -28 c 0xb4
 549 -28 428 12 312 99 c 1
 194 -13 l 1
 97 -13 l 1x6c
 97 524 l 1
 194 524 l 1
 298 239 486 70 701 70 c 0
 866 70 975 160 975 293 c 0xac
 975 359 944 417 891 445 c 0
 845 470 808 479 686 502 c 2
 568 524 l 1
 270 579 97 745 97 977 c 0
 97 1230 298 1400 591 1400 c 0
 724 1400 827 1370 933 1298 c 1
 1032 1385 l 1
 1117 1385 l 1xb2
EndSplineSet
Validated: 1
EndChar

StartChar: T
Encoding: 53 84 221
Width: 1371
VWidth: 1900
Flags: W
HStem: 0 103<302 511.057 860.943 1070> 1273 99<309.377 513.238 858.655 1062.97>
VStem: 57 72<857 1008.53> 515 342<112.912 1271.65> 1243 72<857 1007.41>
LayerCount: 2
Fore
SplineSet
1315 1372 m 1
 1315 857 l 1
 1243 857 l 1
 1215 1011 1183 1091 1130 1161 c 0
 1069 1239 1007 1273 925 1273 c 0
 868 1273 857 1260 857 1195 c 2
 857 274 l 2
 857 154 857 146 870 131 c 0
 887 110 927 103 1028 103 c 2
 1070 103 l 1
 1070 0 l 1
 302 0 l 1
 302 103 l 1
 344 103 l 2
 445 103 485 110 502 131 c 0
 515 146 515 154 515 274 c 2
 515 1195 l 2
 515 1260 503 1273 446 1273 c 0
 359 1273 287 1229 226 1138 c 0
 180 1072 154 998 129 857 c 1
 57 857 l 1
 57 1372 l 1
 1315 1372 l 1
EndSplineSet
Validated: 1
EndChar

StartChar: U
Encoding: 54 85 222
Width: 1582
VWidth: 1900
Flags: W
HStem: -28 142<693.537 1073.52> 1269 103<28 222.057 571.943 768 1024 1172.57 1413.47 1566>
VStem: 226 342<236.013 1259.09> 1229 128<272.203 1212.04>
LayerCount: 2
Fore
SplineSet
568 1098 m 2
 568 490 l 2
 568 351 589 258 631 207 c 1
 684 146 766 114 874 114 c 0
 1032 114 1142 174 1197 294 c 0
 1222 347 1229 422 1229 578 c 2
 1229 960 l 2
 1229 1129 1220 1176 1180 1218 c 0
 1150 1250 1098 1269 1024 1269 c 1
 1024 1372 l 1
 1566 1372 l 1
 1566 1269 l 1
 1490 1269 1436 1250 1406 1218 c 0
 1366 1176 1357 1127 1357 960 c 2
 1357 578 l 2
 1357 354 1341 268 1288 182 c 0
 1195 36 1049 -28 806 -28 c 0
 538 -28 354 48 276 190 c 0
 240 256 226 336 226 496 c 2
 226 1098 l 2
 226 1218 226 1226 213 1241 c 0
 196 1262 156 1269 57 1269 c 2
 28 1269 l 1
 28 1372 l 1
 768 1372 l 1
 768 1269 l 1
 739 1269 l 2
 640 1269 598 1262 581 1241 c 0
 568 1226 568 1218 568 1098 c 2
EndSplineSet
Validated: 1
EndChar

StartChar: V
Encoding: 55 86 223
Width: 1442
VWidth: 1900
Flags: W
HStem: 1269 103<-34 105.531 496.1 654 918 1068.49 1351.5 1478>
LayerCount: 2
Fore
SplineSet
815 391 m 1
 1085 1068 l 2
 1096 1096 1102 1119 1102 1140 c 0
 1102 1186 1078 1227 1036 1248 c 0
 1009 1263 979 1269 918 1269 c 1
 918 1372 l 1
 1478 1372 l 1
 1478 1269 l 1
 1362 1269 1277 1180 1216 1028 c 2
 781 -28 l 1
 614 -28 l 1
 152 1138 l 2
 108 1248 78 1269 -34 1269 c 1
 -34 1372 l 1
 654 1372 l 1
 654 1269 l 1
 614 1269 l 2
 530 1269 496 1256 496 1222 c 0
 496 1211 502 1189 513 1159 c 2
 815 391 l 1
EndSplineSet
Validated: 1
EndChar

StartChar: W
Encoding: 56 87 224
Width: 1863
VWidth: 1900
Flags: W
HStem: 1269 103<11 127.326 488.069 600 686 783.555 1136.28 1248 1370 1474.83 1745.33 1849>
LayerCount: 2
Fore
SplineSet
1351 490 m 1
 1516 1032 l 2
 1537 1100 1541 1121 1541 1148 c 0
 1541 1194 1516 1233 1476 1252 c 0
 1451 1263 1425 1269 1370 1269 c 1
 1370 1372 l 1
 1849 1372 l 1
 1849 1269 l 1
 1735 1246 1699 1203 1644 1015 c 1
 1313 -28 l 1
 1174 -28 l 1
 937 745 l 1
 686 -28 l 1
 543 -28 l 1
 156 1159 l 2
 126 1250 101 1269 15 1269 c 2
 11 1269 l 1
 11 1372 l 1
 600 1372 l 1
 600 1269 l 1
 511 1269 488 1256 488 1222 c 0
 488 1209 493 1189 504 1157 c 2
 724 477 l 1
 876 954 l 1
 808 1168 l 1
 780 1250 760 1269 686 1269 c 1
 686 1372 l 1
 1248 1372 l 1
 1248 1269 l 1
 1159 1269 1136 1254 1136 1218 c 0
 1136 1207 1138 1195 1148 1167 c 2
 1351 490 l 1
EndSplineSet
Validated: 1
EndChar

StartChar: X
Encoding: 57 88 225
Width: 1371
VWidth: 1900
Flags: W
HStem: 0 103<-23 125.543 421.48 606 712 837.977 1269.4 1396> 1269 103<-23 98.4997 528.013 657 762 924.115 1201.83 1347>
LayerCount: 2
Fore
SplineSet
819 785 m 1
 1155 294 l 2
 1273 123 1295 103 1396 103 c 1
 1396 0 l 1
 712 0 l 1
 712 103 l 1
 807 103 838 116 838 148 c 0
 838 167 828 194 813 213 c 2
 606 509 l 1
 439 296 l 2
 414 266 401 231 401 201 c 0
 401 135 462 103 606 103 c 1
 606 0 l 1
 -23 0 l 1
 -23 103 l 1
 87 103 141 139 251 274 c 2
 530 618 l 1
 141 1172 l 2
 88 1248 61 1269 -23 1269 c 1
 -23 1372 l 1
 657 1372 l 1
 657 1269 l 1
 545 1269 528 1260 528 1224 c 0
 528 1209 534 1193 547 1174 c 2
 747 887 l 1
 880 1051 l 2
 926 1104 944 1142 944 1172 c 0
 944 1235 882 1269 762 1269 c 1
 762 1372 l 1
 1347 1372 l 1
 1347 1269 l 1
 1248 1269 1182 1224 1096 1123 c 1
 819 785 l 1
EndSplineSet
Validated: 1
EndChar

StartChar: Y
Encoding: 58 89 226
Width: 1371
VWidth: 1900
Flags: W
HStem: 0 103<302 510.776 860.943 1070> 1269 103<-23 108.811 524.026 661 836 998.154 1256.25 1396>
VStem: 515 342<112.912 580>
LayerCount: 2
Fore
SplineSet
798 752 m 1
 988 1091 l 2
 1003 1121 1015 1155 1015 1178 c 0
 1015 1233 960 1269 876 1269 c 2
 836 1269 l 1
 836 1372 l 1
 1396 1372 l 1
 1396 1269 l 1
 1290 1269 1214 1210 1142 1092 c 1
 857 604 l 1
 857 274 l 2
 857 154 857 146 870 131 c 0
 887 110 927 103 1028 103 c 2
 1070 103 l 1
 1070 0 l 1
 302 0 l 1
 302 103 l 1
 344 103 l 2
 445 103 485 110 502 131 c 0
 515 146 515 156 515 274 c 2
 515 580 l 1
 127 1201 l 2
 91 1256 63 1269 -23 1269 c 1
 -23 1372 l 1
 661 1372 l 1
 661 1269 l 1
 631 1269 l 2
 559 1269 524 1255 524 1227 c 0
 524 1210 528 1198 547 1168 c 2
 798 752 l 1
EndSplineSet
Validated: 1
EndChar

StartChar: Z
Encoding: 59 90 227
Width: 1267
VWidth: 1900
Flags: W
HStem: 0 104<443 870.34> 1267 105<410.016 808>
VStem: 116 74<893 992.844> 1104 101<374.191 524>
LayerCount: 2
Fore
SplineSet
1205 1372 m 1
 1205 1267 l 1
 443 104 l 1
 612 104 l 2
 747 104 800 112 859 142 c 0
 981 203 1070 342 1104 524 c 1
 1205 524 l 1
 1205 0 l 1
 46 0 l 1
 46 110 l 1
 808 1267 l 1
 667 1267 l 2
 466 1267 377 1231 293 1113 c 0
 251 1056 222 996 190 893 c 1
 116 893 l 1
 116 1372 l 1
 1205 1372 l 1
EndSplineSet
Validated: 1
EndChar

StartChar: a
Encoding: 66 97 228
Width: 1160
VWidth: 1900
Flags: W
HStem: -28 161<876.5 1064.13> -28 129<269 597.867> 828 99<393.186 647.452>
VStem: 68 318<126.725 330.643> 120 266<622.165 800.086> 682 298<170.893 446 538.867 792.545>
LayerCount: 2
Fore
SplineSet
980 604 m 2x6c
 980 270 l 2
 980 160 990 133 1032 133 c 0
 1045 133 1051 135 1068 146 c 0
 1083 156 1095 160 1106 160 c 0
 1123 160 1134 148 1134 129 c 0
 1134 47 1033 -28 925 -28 c 0xac
 828 -28 756 20 724 106 c 1
 623 7 524 -28 361 -28 c 0
 177 -28 68 53 68 194 c 0x74
 68 308 133 384 272 441 c 0
 361 477 427 494 619 536 c 0
 636 538 661 543 682 549 c 1
 682 648 l 2
 682 779 640 828 526 828 c 0
 450 828 386 800 386 768 c 0
 386 758 386 756 403 735 c 0
 420 712 429 686 429 663 c 0
 429 593 361 540 274 540 c 0
 187 540 120 600 120 682 c 0
 120 830 291 927 553 927 c 0
 701 927 821 897 891 840 c 0
 957 787 980 728 980 604 c 2x6c
682 446 m 1
 581 424 l 2
 444 392 386 335 386 234 c 0
 386 152 433 101 507 101 c 0x74
 613 101 682 194 682 340 c 2
 682 446 l 1
EndSplineSet
Validated: 1
EndChar

StartChar: b
Encoding: 67 98 229
Width: 1231
VWidth: 1900
Flags: W
HStem: -28 98<536.374 747.23> 785 142<565.304 761.392> 1275 97<0 149.055>
VStem: 158 298<164.509 676.528 785 1268.88> 834 329<245.482 682.684>
LayerCount: 2
Fore
SplineSet
456 1400 m 1
 456 785 l 1
 534 884 623 927 750 927 c 0
 991 927 1163 736 1163 466 c 0
 1163 173 965 -28 676 -28 c 0
 534 -28 437 17 348 125 c 1
 224 -28 l 1
 131 -28 l 1
 150 76 158 207 158 391 c 2
 158 1098 l 2
 158 1267 152 1275 36 1275 c 2
 0 1275 l 1
 0 1372 l 1
 456 1400 l 1
656 785 m 0
 523 785 454 656 454 403 c 0
 454 188 521 70 646 70 c 0
 770 70 834 198 834 443 c 0
 834 671 776 785 656 785 c 0
EndSplineSet
Validated: 1
EndChar

StartChar: c
Encoding: 68 99 230
Width: 1056
VWidth: 1900
Flags: W
HStem: -28 129<500.715 773.338> 828 99<497.909 708.199>
VStem: 59 329<235.026 634.841> 714 266<620.5 800.385>
LayerCount: 2
Fore
SplineSet
902 336 m 1
 1001 304 l 1
 973 215 942 158 887 101 c 1
 803 10 711 -28 570 -28 c 0
 264 -28 59 158 59 435 c 0
 59 722 287 927 602 927 c 0
 832 927 980 825 980 669 c 0
 980 572 913 507 809 507 c 0
 718 507 654 564 654 646 c 0
 654 682 662 699 694 739 c 0
 711 760 714 769 714 775 c 0
 714 805 669 828 614 828 c 0
 472 828 388 695 388 469 c 0
 388 233 477 101 631 101 c 0
 709 101 784 137 830 198 c 0
 858 236 875 266 902 336 c 1
EndSplineSet
Validated: 1
EndChar

StartChar: d
Encoding: 69 100 231
Width: 1267
VWidth: 1900
Flags: W
HStem: -28 129<360.667 672.913> 0 124<1102.7 1243> 798 129<490.493 684.719> 1275 97<598 772.055>
VStem: 70 329<213.345 651.254> 781 298<209.898 691.451 798 1268.88>
LayerCount: 2
Fore
SplineSet
1079 1400 m 1xbc
 1079 232 l 2
 1079 175 1085 152 1102 137 c 0
 1117 124 1123 124 1191 124 c 2
 1243 124 l 1
 1248 0 l 1
 803 0 l 1x7c
 798 137 l 1
 720 23 623 -28 486 -28 c 0
 239 -28 70 159 70 435 c 0
 70 712 261 927 504 927 c 0
 624 927 709 885 781 798 c 1
 781 1098 l 2
 781 1267 775 1275 659 1275 c 2
 598 1275 l 1
 598 1372 l 1
 1079 1400 l 1xbc
591 798 m 0
 469 798 399 665 399 439 c 0
 399 222 467 101 587 101 c 0xbc
 705 101 785 243 785 450 c 0
 785 661 709 798 591 798 c 0
EndSplineSet
Validated: 1
EndChar

StartChar: e
Encoding: 70 101 232
Width: 1090
VWidth: 1900
Flags: W
HStem: -28 129<506.411 793.878> 433 105<391 727.324> 828 99<469.035 673.817>
VStem: 61 329<238.391 433 538 638.688> 728 298<538.265 686.284>
LayerCount: 2
Fore
SplineSet
1026 433 m 1
 390 433 l 1
 390 325 405 266 437 215 c 0
 485 143 561 101 648 101 c 0
 772 101 857 164 933 312 c 1
 1026 274 l 1
 942 71 796 -28 574 -28 c 0
 430 -28 302 13 215 87 c 0
 120 169 61 306 61 441 c 0
 61 566 112 692 198 781 c 0
 293 878 420 927 572 927 c 0
 849 927 1026 747 1026 464 c 2
 1026 433 l 1
391 538 m 1
 676 538 l 2
 714 538 728 552 728 598 c 0
 728 748 675 828 578 828 c 0
 464 828 391 718 391 538 c 1
EndSplineSet
Validated: 1
EndChar

StartChar: f
Encoding: 71 102 233
Width: 739
VWidth: 1900
Flags: W
HStem: 0 95<40 186.938 495.188 667> 785 114<27 192 490 728> 1294 99<535.551 643.126>
VStem: 192 298<103.121 785 899 1146.4> 644 238<1130.31 1292.33>
LayerCount: 2
Fore
SplineSet
728 899 m 1
 728 785 l 1
 490 785 l 1
 490 274 l 1
 490 184 l 2
 490 108 511 95 633 95 c 2
 667 95 l 1
 667 0 l 1
 40 0 l 1
 40 95 l 1
 48 95 l 2
 172 95 192 108 192 184 c 2
 192 274 l 1
 192 785 l 1
 27 785 l 1
 27 899 l 1
 192 899 l 1
 192 923 l 2
 192 1204 357 1393 606 1393 c 0
 764 1393 882 1304 882 1186 c 0
 882 1097 817 1030 730 1030 c 0
 650 1030 587 1087 587 1161 c 0
 587 1197 607 1239 635 1262 c 0
 643 1270 644 1273 644 1279 c 0
 644 1287 631 1294 614 1294 c 0
 576 1294 532 1262 513 1218 c 0
 494 1176 490 1134 490 1007 c 2
 490 899 l 1
 728 899 l 1
EndSplineSet
Validated: 1
EndChar

StartChar: g
Encoding: 72 103 234
Width: 1160
VWidth: 1900
Flags: W
HStem: -384 99<339.107 782.855> -82 266<376.447 794.506> 302 91<448.469 639.797> 828 99<449.951 645.252> 880 142<908.713 1085>
VStem: 57 247<-246.885 -96.9836> 86 290<106 259.133> 97 308<451.284 748.427> 690 308<458.433 756.824> 825 247<-212.375 -15>
LayerCount: 2
Fore
SplineSet
500 184 m 2xf240
 631 184 l 2
 768 184 851 177 914 156 c 1
 1009 128 1072 38 1072 -68 c 0
 1072 -271 874 -384 521 -384 c 0
 211 -384 57 -323 57 -198 c 0xf440
 57 -109 131 -47 258 -28 c 1
 148 2 86 64 86 148 c 0xf2
 86 247 158 307 306 334 c 1
 169 382 97 475 97 602 c 0
 97 790 285 927 545 927 c 0xf1
 642 927 728 908 800 872 c 1
 884 976 957 1022 1043 1022 c 0
 1127 1022 1184 973 1184 899 c 0
 1184 831 1132 777 1066 777 c 0
 1015 777 963 819 963 863 c 2
 963 870 l 2
 963 878 960 880 954 880 c 0xe9
 931 880 909 862 884 828 c 1
 968 760 998 701 998 612 c 0xf180
 998 496 935 399 825 348 c 0
 753 314 680 302 555 302 c 2
 521 302 l 2
 411 302 376 287 376 239 c 0
 376 193 399 184 500 184 c 2xf240
551 828 m 0
 454 828 405 758 405 619 c 0
 405 558 414 504 435 462 c 1
 456 414 492 393 549 393 c 0
 638 393 690 473 690 608 c 0xf180
 690 752 642 828 551 828 c 0
623 -82 m 2
 374 -82 l 1
 326 -103 304 -133 304 -175 c 0
 304 -245 388 -285 534 -285 c 0
 730 -285 825 -247 825 -169 c 0xe440
 825 -144 813 -117 796 -106 c 0
 764 -85 741 -82 623 -82 c 2
EndSplineSet
Validated: 1
EndChar

